<svg viewBox="0 0 1024 1024" version="1.1" xmlns="http://www.w3.org/2000/svg"><path d="M992.7168 158.6688C963.1232 69.8368 923.8016 51.2 896 51.2l-1.792 0.0512c-28.3136 0.6144-78.6432 15.3088-154.0096 37.4272-157.9008 46.2336-396.4928 116.1728-637.8496 116.1728-58.368 0-102.4 77.056-102.4 179.2s44.032 179.2 102.4 179.2c18.8928 0 37.7856 0.4096 56.576 1.2288l85.2992 339.3536c9.728 38.7072 48.5888 69.0176 88.5248 69.0176h67.2256c22.1696 0 41.0112-9.216 51.6096-25.344s11.7248-37.0176 3.072-57.3952l-131.9424-309.6576c160.5632 23.6544 308.3264 66.9696 417.4848 98.9184 75.3664 22.0672 125.696 36.8128 154.0096 37.4272l1.792 0.0512c27.7504 0 67.072-18.6368 96.7168-107.4688 20.1728-60.5696 31.2832-140.5952 31.2832-225.3312s-11.1104-164.7616-31.2832-225.3312zM819.2 384c0-26.2656 1.1264-51.968 3.2768-76.5952 26.2656 2.6624 47.9232 36.6592 47.9232 76.5952s-21.6064 73.984-47.9232 76.5952A883.3536 883.3536 0 0 1 819.2 384z m-768 0C51.2 305.8688 81.5104 256 102.4 256c58.112 0 115.9168-3.8912 172.4416-10.4448C262.7072 284.3648 256 332.4416 256 384s6.656 99.6352 18.8416 138.4448A1500.0064 1500.0064 0 0 0 102.4 512c-20.8896 0-51.2-49.8688-51.2-128z m356.4032 526.1312c2.0992 4.9152 1.9456 8.192 1.3312 9.1136S405.4016 921.6 400.0256 921.6H332.8c-16.3328 0-34.8672-14.4384-38.8608-30.3104l-81.3056-323.5328c17.152 1.3824 34.2528 3.0208 51.2 4.9664l143.7696 337.408z m-75.3664-380.0576C316.672 494.8992 307.2 440.576 307.2 384c0-57.4464 9.216-110.7456 24.9856-146.0224 163.072-24.2176 312.1152-67.84 422.4-100.1984 21.248-6.2464 41.5232-12.1856 59.9552-17.3568a333.7728 333.7728 0 0 0-15.2576 38.2464C779.1104 219.2384 768 299.264 768 384s11.1104 164.7616 31.2832 225.3312c4.864 14.5408 9.984 27.2384 15.2576 38.2464-18.432-5.1712-38.7072-11.1104-59.9552-17.3568-110.336-32.3072-259.328-75.9808-422.4-100.1984z m611.8912 63.0784c-19.0976 57.344-39.8336 72.448-48.128 72.448s-29.0304-15.1552-48.128-72.448a509.2864 509.2864 0 0 1-19.2-81.7152c24.8832-2.8672 48.2816-16.9472 65.3312-39.68C911.8208 448 921.6 416.8192 921.6 384s-9.8304-64.0512-27.5968-87.7568c-17.0496-22.7328-40.448-36.8128-65.3312-39.68 4.7616-30.0032 11.2128-57.6512 19.2-81.7152 19.0976-57.344 39.8336-72.4992 48.128-72.4992s29.0304 15.1552 48.128 72.448c18.4832 55.5008 28.672 129.7408 28.672 209.152s-10.1888 153.6512-28.672 209.152z"/></svg>