<svg viewBox="0 0 1024 1024" xmlns="http://www.w3.org/2000/svg"><path d="m593.792 952.746667c223.36-209.92 336.341333-383.786667 336.341333-526.08 0-230.912-187.221333-418.133333-418.133333-418.133334-230.912 0-418.133333 187.221334-418.133333 418.133334 0 142.293333 112.981333 316.16 336.341333 526.08a119.466667 119.466667 0 0 0 163.584 0zm-46.72-49.749334a51.2 51.2 0 0 1 -70.144 0c-210.688-198.016-314.794667-358.229333-314.794667-476.330666a349.866667 349.866667 0 1 1 699.733334 0c0 118.101333-104.106667 278.314667-314.794667 476.330666zm-35.072-271.530666a204.8 204.8 0 1 0 0-409.6 204.8 204.8 0 0 0 0 409.6zm0-68.266667a136.533333 136.533333 0 1 1 0-273.066667 136.533333 136.533333 0 0 1 0 273.066667z"/></svg>