<svg viewBox="0 0 1024 1024" xmlns="http://www.w3.org/2000/svg"><path d="m924.8 337.6c-22.6-53.4-54.9-101.3-96-142.4s-89-73.4-142.4-96c-55.3-23.4-113.9-35.2-174.4-35.2-71.9 0-143.4 17.5-206.8 50.5-71.5 37.3-131.8 93.3-174.3 161.9-43.8 70.7-66.9 152.1-66.9 235.6 0 60.5 11.8 119.1 35.2 174.4 22.6 53.4 54.9 101.3 96 142.4s89 73.4 142.4 96c55.3 23.4 113.9 35.2 174.4 35.2s119.1-11.8 174.4-35.2c53.4-22.6 101.3-54.9 142.4-96s73.4-89 96-142.4c23.4-55.3 35.2-113.9 35.2-174.4s-11.8-119.1-35.2-174.4zm-412.8 558.4c-211.7 0-384-172.3-384-384 0-143.7 79.2-274.3 206.8-340.8 55-28.7 114.7-43.2 177.2-43.2 211.7 0 384 172.3 384 384s-172.3 384-384 384z"/><path d="m754.4 272.4c-19.7-10.5-45.1-15.7-80-16.4h-4.3c-9 .1-17.3-3.8-22.1-10.6-24-33.4-62.9-53.4-104-53.4h-.2c-36 0-62 4.9-82 15.4-20.6 10.8-45.2 33.2-45.8 78.8-.5 34.5 12.6 67.1 36.8 91.7s56.6 38.1 91.1 38.1h2.5c8.4-.1 16.7 4.1 22.1 11.5 4.8 6.6 10.1 13.2 16.1 19.4-25.9 23.5-41 58.6-40.7 98.2.3 32.2 12.8 76.7 31.8 113.4 10.9 21 23.1 38.1 36.4 50.8 18.2 17.5 38 26.5 58.7 26.6h.5c44.8 0 72-53.4 93.9-96.4 5.3-10.3 10.2-20.1 13.6-25.3 7.1-10.8 16.5-20.1 27.8-27.7 36-23.7 57.4-63.5 57.4-106.5 0-40.6-18.6-77.8-51-102.3-8-6.1-12.9-16.1-13-26.8v-1.4c-.7-34.9-16.4-61.6-45.6-77.1zm45.6 207.6c0 21.5-10.7 41.4-28.6 53.3-18.5 12.3-34 27.7-45.9 45.8-5.4 8.1-10.9 18.9-17.2 31.4-7.1 13.9-15.1 29.6-23.4 42.4-8 12.4-13.2 17.1-15.4 18.8-7.5-2-22-14-36.9-42.6-16.7-32.2-24.5-66.4-24.6-84.5-.2-29.8 14.5-53.3 38.5-61.3 11-3.7 19.8-12.4 23.5-23.4 0-.1 0-.1.1-.2 3.1-9.3 2.4-19.3-1.9-28.1-4.3-8.9-12.2-15.8-21.6-18.9-9.5-3.2-15.9-8.8-26.3-23-17.4-23.7-44.6-37.7-73.3-37.7h-3c-17.3 0-33.4-6.8-45.6-19.1-12.1-12.3-18.7-28.6-18.4-45.9.2-15.8 5.8-20 11.6-23 10.3-5.4 27.4-8 52.2-8h.2c20.6 0 40 10 52 26.7 16.8 23.4 44.3 37.3 73.7 37.3h3.5c62.2 1.2 62.5 18.3 62.7 30.8v.7c.3 30.5 14.6 59.4 38.5 77.4 16.3 12.2 25.6 30.8 25.6 51.1zm-472 24c0-31.5-8.9-54.4-26.3-68.2-14-11-30.2-13.3-42.3-11.7-60.6 1.5-96.6 49.5-96.6 96 0 4.6-.5 11.1-1.1 17.9-2.3 27.5-5.4 65.3 17.4 90 8.4 9.1 23.8 20 49.5 20 35.4 0 64.3-18.7 81.4-52.6 14.8-29.9 18-66.2 18-91.4zm-75.4 62.6c-7.7 15.3-16.1 17.4-24.2 17.4-1.2 0-2-.1-2.6-.2-.6-1.6-1.5-5-1.8-11.6-.4-8.8.5-19.1 1.3-29 .7-8.2 1.3-15.9 1.3-23.2 0-12.9 9.5-32 35.5-32 .8 2.8 1.8 7.7 1.8 16 .1 25.8-3.9 48-11.3 62.6zm242.2 121.2c-5.4-11.6-19.7-31.1-56-31.1h-.1c-15.8 0-32.7 3.5-47.6 6.6-5.7 1.2-13.4 2.8-19 3.6-5.2-3.7-11.6-5.8-18.3-5.8-26.1 0-38.9 14.4-44.2 23-9.5 15.4-10.5 35.2-2.9 60.5 4.2 14.2 9.9 25.6 10.5 26.8 4.4 8.7 12.5 15 22 17 .2 0 23.3 5 48 14.6 31.2 12.2 46.2 24.5 49.8 32 6.9 14.3 13.2 24.7 19.3 32 11.4 13.5 23.1 17 32.3 17 7.2 0 12.9-2.2 15.6-3.4 22.4-10.6 23.4-37 23.8-45.6.5-11.9-.6-27.1-3.2-43.9-5.6-36.2-16.5-73.9-30-103.3zm-85.4 55.4c-13.3-5.2-26.1-9.1-36.1-12 9.5-.8 19.9-2.9 30.8-5.2 9-1.9 26.2-5.5 35.3-5.4 6.1 14.4 11 29.7 14.8 44.5-12.5-7.9-27.3-15.2-44.8-21.9z"/></svg>