<svg viewBox="0 0 1024 1024" xmlns="http://www.w3.org/2000/svg"><path d="m664.88260888 860.06521777a50.98695644 50.98695644 0 0 0 77.1652169-28.79999999l189.86087021-670.89130489a71.17826045 71.17826045 0 0 0 -48.63913066-87.80869512 70.55217422 70.55217422 0 0 0 -49.06956533 3.75652178l-715.06956533 330.02608623a51.26086934 51.26086934 0 0 0 -6.73043467 89.3347831l149.24347822 98.41304356a31.30434756 31.30434756 0 1 0 34.43478223-52.27826132l-132.18260801-87.1826089 696.52173868-321.45652177a7.94347822 7.94347822 0 0 1 5.55652177-.43043467 8.56956533 8.56956533 0 0 1 5.67391289 10.56521777l-185.51739111 655.78695645-132.45652178-87.37826045a39.13043467 39.13043467 0 0 0 -53.53043466 10.09565157l-72.46956534 102.52173954v-205.70869599l274.38260889-226.09565244a31.30434756 31.30434756 0 1 0 -39.79565244-48.32608624l-282.91304356 233.13912979a39.13043467 39.13043467 0 0 0 -14.282608 30.20869599v290.73913067a39.13043467 39.13043467 0 0 0 71.09999999 22.53912979l102.01304268-144.35217335 126.7434791 83.62173868z"/></svg>