<svg viewBox="0 0 1024 1024" xmlns="http://www.w3.org/2000/svg"><path d="m872 520.41304356v295.74782577a75.40434756 75.40434756 0 0 1 -75.40434756 75.40434844h-569.19130488a75.40434756 75.40434756 0 0 1 -75.40434756-75.40434844v-569.191304c0-41.63478223 33.76956533-75.40434756 75.40434756-75.40434756h271.91739199a31.30434756 31.30434756 0 1 0 0-62.60869599h-271.91739199a138.01304356 138.01304356 0 0 0 -138.01304355 138.01304355v569.191304a138.01304356 138.01304356 0 0 0 138.01304355 138.01304356h569.19130488a138.01304356 138.01304356 0 0 0 138.01304355-138.01304356v-295.74782577a31.30434756 31.30434756 0 1 0 -62.60869599 0z"/><path d="m707.65217422 242.35217422a187.82608711 187.82608711 0 0 0 -187.82608711 187.82608623v196.66956533a31.30434756 31.30434756 0 1 0 62.60869511 0v-196.66956533a125.21739112 125.21739112 0 0 1 125.217392-125.21739111h185.24347822a35.21739112 35.21739112 0 0 0 27-57.83478223l-139.26521777-166.10869599a31.30434756 31.30434756 0 0 0 -48.01304355 40.2260871l101.54347821 121.108696z"/></svg>