<svg viewBox="0 0 1024 1024" xmlns="http://www.w3.org/2000/svg"><path d="m512 373.333333c-76.458667 0-138.666667 62.208-138.666667 138.666667s62.208 138.666667 138.666667 138.666667 138.666667-62.208 138.666667-138.666667-62.208-138.666667-138.666667-138.666667zm0 213.333334c-41.173333 0-74.666667-33.493333-74.666667-74.666667s33.493333-74.666667 74.666667-74.666667 74.666667 33.493333 74.666667 74.666667-33.493333 74.666667-74.666667 74.666667z"/><path d="m949.333333 503.466667c0-2.368-.298667-4.650667-.789333-6.869334-8.213333-233.984-200.597333-421.930666-436.544-421.930666s-428.330667 187.946666-436.544 421.930666a31.68 31.68 0 0 0 -.789333 6.869334c0 .981333.192 1.898667.277333 2.858666-.021333 1.898667-.277333 3.754667-.277333 5.674667 0 241.152 196.181333 437.333333 437.333333 437.333333s437.333333-196.181333 437.333333-437.333333c0-1.92-.256-3.776-.277333-5.674667.085333-.96.277333-1.877333.277333-2.858666zm-437.333333-364.8c192.149333 0 350.741333 145.941333 371.029333 332.8h-84.8c-16.021333-144.384-139.776-256-286.229333-256s-270.208 111.616-286.229333 256h-84.8c20.288-186.858667 178.88-332.8 371.029333-332.8zm0 746.666666c-197.930667 0-359.936-154.965333-372.138667-349.866666h95.68c27.733333 0 51.050667-21.44 53.098667-48.810667 8.597333-116.202667 106.709333-207.189333 223.36-207.189333s214.762667 91.008 223.381333 207.189333c2.048 27.370667 25.365333 48.810667 53.098667 48.810667h95.68c-12.224 194.901333-174.229333 349.866666-372.16 349.866666z"/></svg>