<svg viewBox="0 0 1024 1024" xmlns="http://www.w3.org/2000/svg"><path d="m512 691.2c70.40000001 0 121.6 57.6 121.6 121.6s-57.6 121.6-121.6 121.6c-70.40000001 0-121.6-57.6-121.6-121.6s51.2-121.6 121.6-121.6zm0 185.6c38.4 0 64-32 64.00000001-64s-32-64-64.00000001-64.00000001c-38.4 0-64 32-64.00000001 64.00000001s25.6 64 64.00000001 64zm0-486.4c70.40000001 0 121.6 57.6 121.6 121.6s-57.6 121.6-121.6 121.6c-70.40000001 0-121.6-57.6-121.6-121.6s51.2-121.6 121.6-121.6zm0 185.60000001c38.4 0 64-32 64.00000001-64.00000001s-32-64-64.00000001-64.00000001c-38.4 0-64 32-64.00000001 64.00000001s25.6 64 64.00000001 64.00000001zm0-486.40000001c70.40000001 0 121.6 57.6 121.6 121.6s-57.6 121.6-121.6 121.6c-70.40000001 0-121.6-57.6-121.6-121.6s51.2-121.6 121.6-121.6zm0 185.60000001c38.4 0 64-32 64.00000001-64.00000001s-32-64-64.00000001-64c-38.4 0-64 32-64.00000001 64s25.6 64 64.00000001 64.00000001z"/></svg>