<svg viewBox="0 0 1024 1024" xmlns="http://www.w3.org/2000/svg"><path d="m-1-1h1026v1026h-1026z" fill="none"/><path d="m760.893066 492.467102a397.539459 397.539459 0 0 1 262.139771 373.736877 35.52631 35.52631 0 1 1 -71.052612 0 326.309204 326.309204 0 1 0 -652.618408 0 35.52631 35.52631 0 1 1 -71.052612 0c0-171.947388 109.243408-318.404602 262.095398-373.736877a216.444077 216.444077 0 1 1 270.488464 0zm-135.222046-23.625a145.391449 145.391449 0 1 0 0-290.782898 145.391449 145.391449 0 0 0 0 290.782898z"/><path d="m308.824005 489.266449a35.393089 35.393089 0 0 1 -14.787811 3.197357 221.773026 221.773026 0 0 0 -221.773148 221.77301 35.52631 35.52631 0 1 1 -71.052743 0 292.870056 292.870056 0 0 1 165.508447-263.782898 164.17598 164.17598 0 1 1 219.819061-243.976974 35.52631 35.52631 0 1 1 -47.694061 52.712173 93.123352 93.123352 0 1 0 -16.430939 150.098663 35.52631 35.52631 0 1 1 35.126648 61.72699 163.243423 163.243423 0 0 1 -48.715454 18.207214v.044464z"/></svg>