<svg viewBox="0 0 1024 1024" xmlns="http://www.w3.org/2000/svg"><path d="m503.306008 943.44652c-16.165136 0-31.740848-6.740504-42.680993-18.538178-10.886933-11.686133-16.208114-27.079698-15.027221-43.3707l19.127601-269.765487h-254.697334c-22.189327 0-41.97696-12.415749-51.683-32.415206-9.775625-20.113043-7.24704-43.48224 6.516401-61.024743l326.830044-416.641356c21.784099-27.779638 66.585378-27.978159 89.057137-1.769293 10.924795 12.752416 15.533757 29.184634 12.946844 46.234929l-35.812575 234.458424h256.115633c21.459711 0 41.009937 11.881585 50.981013 30.952904 9.972099 19.1583 8.509797 42.078267-3.850694 59.801895l-311.05581 447.301595c-10.923772 15.786513-27.975089 24.775217-46.767046 24.775216zm-.310061-57.525043.310061 28.706752v-28.764057c-.112563 0-.196474 0-.310061.057305zm33.819179-748.474333-326.716457 416.461254 316.382108.280386-23.539065 331.450261 311.029204-447.162425-323.122613-.251733 45.966823-300.777743z"/></svg>