<svg viewBox="0 0 1024 1024" xmlns="http://www.w3.org/2000/svg"><path d="m863.07999969 243.99999969-31.99999969 576.40000031a151.99999969 151.99999969 0 0 1 -151.8 143.59999969h-332.95999969a151.99999969 151.99999969 0 0 1 -151.76000062-143.59999969l-31.99999969-576.40000031h-90.55999969a31.99999969 31.99999969 0 1 1 0-63.99999938h879.99999938a31.99999969 31.99999969 0 1 1 0 63.99999938zm-636.43999969 0 31.8 572.88a88.00000031 88.00000031 0 0 0 87.88000031 83.12000062h332.95999969a88.00000031 88.00000031 0 0 0 87.88000031-83.12000062l31.8-572.88zm165.36-120h240a31.99999969 31.99999969 0 1 0 0-63.99999938h-240a31.99999969 31.99999969 0 1 0 0 63.99999938zm8.80000031 308.00000062v256.11999938a31.99999969 31.99999969 0 0 0 63.99999938 0v-256.11999938a31.99999969 31.99999969 0 1 0 -63.99999938 0zm159.99999938 0v256.11999938a31.99999969 31.99999969 0 1 0 64.00000031 0v-256.11999938a31.99999969 31.99999969 0 1 0 -64.00000031 0z"/></svg>