<svg viewBox="0 0 1024 1024" xmlns="http://www.w3.org/2000/svg"><path d="m356.54545479 384.48636348v271.39090957a53.18181826 53.18181826 0 0 0 80.55 45.61363564l226.1454539-135.6954539a53.18181826 53.18181826 0 0 0 0-91.22727305l-226.1454539-135.69545479a53.18181826 53.18181826 0 0 0 -80.55 45.61363653zm255.47727216 135.69545478-190.02272695 114.01363653v-228.02727305zm-100.02272695 433.63636348c244.02272695 0 441.81818174-197.79545479 441.81818174-441.81818174s-197.79545479-441.81818174-441.81818174-441.81818174-441.81818174 197.79545479-441.81818174 441.81818174 197.79545479 441.81818174 441.81818174 441.81818174zm0-65.45454522a376.36363653 376.36363653 0 1 1 0-752.72727305 376.36363653 376.36363653 0 0 1 0 752.72727305z"/></svg>