<svg viewBox="0 0 1024 1024" xmlns="http://www.w3.org/2000/svg"><path d="m725.4 569.3h-427.4l-6.6-24c-5.5-19.8-8.3-40.4-8.3-61.2 0-126.1 102.6-228.6 228.6-228.6s228.6 102.6 228.6 228.6c0 20.8-2.8 41.4-8.3 61.2zm-375.8-65.4h324.1c.8-6.5 1.2-13.1 1.2-19.8 0-90-73.2-163.2-163.2-163.2s-163.2 73.2-163.2 163.2c0 6.7.4 13.2 1.1 19.8zm162.1-279.2c-18.1 0-32.7-14.6-32.7-32.7v-88.3c0-18.1 14.6-32.7 32.7-32.7s32.7 14.6 32.7 32.7v88.3c0 18-14.7 32.7-32.7 32.7zm-213.1 88.2c-8.4 0-16.7-3.2-23.1-9.6l-62.4-62.4c-12.8-12.8-12.8-33.5 0-46.3s33.5-12.8 46.3 0l62.4 62.4c12.8 12.8 12.8 33.5 0 46.2-6.4 6.5-14.8 9.7-23.2 9.7zm-88.2 213h-88.3c-18.1 0-32.7-14.6-32.7-32.7s14.6-32.7 32.7-32.7h88.3c18.1 0 32.7 14.6 32.7 32.7s-14.6 32.7-32.7 32.7zm690.8 0h-88.3c-18.1 0-32.7-14.6-32.7-32.7s14.6-32.7 32.7-32.7h88.3c18.1 0 32.7 14.6 32.7 32.7.1 18.1-14.6 32.7-32.7 32.7zm-176.5-213c-8.4 0-16.7-3.2-23.1-9.6-12.8-12.8-12.8-33.5 0-46.2l62.4-62.4c12.8-12.8 33.5-12.8 46.3 0s12.8 33.5 0 46.3l-62.4 62.4c-6.5 6.3-14.8 9.5-23.2 9.5zm-660.7 315.8h895.3v65.4h-895.3z"/><path d="m488.2 728.1h46.9v168.8h-46.9z"/><path d="m478.442 916.067 95.6-95.6 33.163 33.163-95.6 95.6z"/><path d="m416.145 853.567 33.163-33.163 95.6 95.6-33.163 33.162z"/></svg>