<svg viewBox="0 0 1024 1024" xmlns="http://www.w3.org/2000/svg"><path d="m512 953.81818174c244.02272695 0 441.81818174-197.79545479 441.81818174-441.81818174s-197.79545479-441.81818174-441.81818174-441.81818174-441.81818174 197.79545479-441.81818174 441.81818174 197.79545479 441.81818174 441.81818174 441.81818174zm0-65.45454522a376.36363653 376.36363653 0 1 1 0-752.72727305 376.36363653 376.36363653 0 0 1 0 752.72727305zm-32.72727305-409.09090957v-130.90909042a32.72727305 32.72727305 0 1 1 65.4545461-.00000001v130.90909043h130.90909042a32.72727305 32.72727305 0 1 1 .00000001 65.4545461h-130.90909043v130.90909042a32.72727305 32.72727305 0 1 1 -65.4545461.00000001v-130.90909043h-130.90909042a32.72727305 32.72727305 0 1 1 -.00000001-65.4545461z"/></svg>