<svg viewBox="0 0 1024 1024" xmlns="http://www.w3.org/2000/svg"><path d="m147.40869594 646.90086969v-239.24869594c0-202.39304345 154.60173937-367.3043475 346.43478187-367.3043475s346.43478281 164.91130406 346.43478282 367.3043475v236.57739188a8.34782625 8.34782625 0 0 0 1.66956562 5.008695l44.07652125 59.10260906a54.26086969 54.26086969 0 0 1 -43.49217375 86.69217374h-685.31478281a54.26086969 54.26086969 0 0 1 -46.99826063-81.34956562l36.06260907-62.608695a8.34782625 8.34782625 0 0 0 1.12695656-4.17391312zm670.16347781 81.39130406-29.17565156-39.15130406a75.13043437 75.13043437 0 0 1 -14.90086969-44.91130407v-236.57739187c0-166.4556525-125.67652219-300.52173937-279.65217469-300.52173937-153.93391313 0-279.65217375 134.06608687-279.65217375 300.52173937v239.24869594a75.13043437 75.13043437 0 0 1 -10.01739094 37.56521718l-25.29391312 43.82608688zm-445.81565156 210.28173937a310.12173938 310.12173938 0 0 0 139.99304344 33.09913033 310.12173938 310.12173938 0 0 0 140.57739094-33.39130407 33.39130406 33.39130406 0 1 0 -30.21913032-59.52 243.33913031 243.33913031 0 0 1 -110.35826062 26.128695 243.33913031 243.33913031 0 0 1 -109.94086969-25.87826063 33.39130406 33.39130406 0 0 0 -30.05217375 59.60347875z"/></svg>