<svg viewBox="0 0 1185 1024" width="200" xmlns="http://www.w3.org/2000/svg"><path d="m1058.21710513 612.18421027v144.05921109a168.75 168.75 0 0 1 -168.75 168.75h-621.71052649a168.75 168.75 0 0 1 -168.75-168.75v-488.48684272a168.75 168.75 0 0 1 168.75-168.75h621.71052649a168.75 168.75 0 0 1 168.75 168.75zm-71.05263162-55.50986838v-288.91776325a97.69736838 97.69736838 0 0 0 -97.69736838-97.69736837h-621.71052649a97.69736838 97.69736838 0 0 0 -97.69736837 97.69736837v488.48684272a97.69736838 97.69736838 0 0 0 97.69736837 97.69736837h74.29440812l330.52796027-324.31085513a168.75 168.75 0 0 1 190.6875-31.8848692zm0 78.69078973-154.45065811-73.49506622a97.69736838 97.69736838 0 0 0 -110.39802567 18.51809271l-278.79276324 273.55263162h445.94407864a97.69736838 97.69736838 0 0 0 97.69736838-97.69736837zm-630.59210513-110.04276324a124.34210513 124.34210513 0 1 0 0-248.68421027 124.34210513 124.34210513 0 0 0 0 248.68421027zm0-71.05263162a53.28947351 53.28947351 0 1 1 0-106.57894702 53.28947351 53.28947351 0 0 1 0 106.57894702z"/></svg>