<svg viewBox="0 0 1024 1024" xmlns="http://www.w3.org/2000/svg"><path d="m828.8 195.2c-84.6-84.6-197.1-131.2-316.8-131.2s-232.2 46.6-316.8 131.2-131.2 197.1-131.2 316.8 46.6 232.2 131.2 316.8 197.1 131.2 316.8 131.2 232.2-46.6 316.8-131.2 131.2-197.1 131.2-316.8-46.6-232.2-131.2-316.8zm-316.8 700.8c-211.7 0-384-172.3-384-384s172.3-384 384-384 384 172.3 384 384-172.3 384-384 384z"/><path d="m630.8 598.8c44.6-35.1 73.2-89.6 73.2-150.8 0-106-86-192-192-192s-192 86-192 192c0 61.2 28.6 115.7 73.2 150.8-98.7 39.5-173.1 126.8-194.8 233.2h66.6c28.6-110.2 127.8-192 247-192s218.4 81.8 246.9 192h66.6c-21.6-106.4-96-193.7-194.7-233.2zm-246.8-150.8c0-70.7 57.3-128 128-128s128 57.3 128 128-57.3 128-128 128-128-57.3-128-128z"/></svg>