<svg viewBox="0 0 1024 1024" xmlns="http://www.w3.org/2000/svg"><path d="m512 512a225 225 0 1 0 0-450 225 225 0 0 0 0 450zm0-65.45454521a159.54545479 159.54545479 0 1 1 0-319.09090958 159.54545479 159.54545479 0 0 1 0 319.09090958zm-245.45454521 106.36363652h490.90909042a204.54545479 204.54545479 0 0 1 204.54545479 204.5454539v81.81818174a122.72727305 122.72727305 0 0 1 -122.72727305 122.72727305h-654.5454539a122.72727305 122.72727305 0 0 1 -122.72727305-122.72727305v-81.81818174a204.54545479 204.54545479 0 0 1 204.54545479-204.5454539zm0 65.45454522a139.09090869 139.09090869 0 0 0 -139.09090958 139.09090868v81.81818174a57.27272695 57.27272695 0 0 0 57.27272784 57.27272784h654.5454539a57.27272695 57.27272695 0 0 0 57.27272784-57.27272784v-81.81818174a139.09090869 139.09090869 0 0 0 -139.09090958-139.09090868z"/></svg>