<svg viewBox="0 0 1024 1024" xmlns="http://www.w3.org/2000/svg"><path d="m302.87272695 181.74090869 9.94090958-34.03636348a108.40909131 108.40909131 0 0 1 104.4-77.52272695h189.12272695a108.40909131 108.40909131 0 0 1 104.44090957 77.52272695l9.94090869 34.03636348h77.64545478a155.45454521 155.45454521 0 0 1 155.45454522 155.4545461v450a155.45454521 155.45454521 0 0 1 -155.45454522 155.45454521h-572.72727304a155.45454521 155.45454521 0 0 1 -155.45454522-155.45454521v-450a155.45454521 155.45454521 0 0 1 155.45454522-155.4545461zm68.19545479 0h281.45454521l-4.58181826-15.70909043a42.95454521 42.95454521 0 0 0 -41.60454521-30.39545479h-189.12272695a42.95454521 42.95454521 0 0 0 -41.56363653 30.39545479zm-145.43181826 65.4545461a90 90 0 0 0 -90.00000001 90v450a90 90 0 0 0 90 90h572.72727305a90 90 0 0 0 90-90v-450a90 90 0 0 0 -90-90zm286.36363652 483.46363652a181.47272695 181.47272695 0 1 0 0-362.94545479 181.47272695 181.47272695 0 0 0 0 362.94545479zm0-65.4545461a116.01818174 116.01818174 0 1 1 0-232.03636347 116.01818174 116.01818174 0 0 1 0 232.03636347zm256.62272695-301.95a40.90909131 40.90909131 0 1 0 81.81818174 0 40.90909131 40.90909131 0 1 0 -81.81818174 0z"/></svg>