<svg viewBox="0 0 1024 1024" xmlns="http://www.w3.org/2000/svg"><path d="m518.25909131 805.07272695h291.27272695a144.28636348 144.28636348 0 0 0 144.28636348-144.32727216v-446.27727305a144.28636348 144.28636348 0 0 0 -144.28636348-144.28636348h-595.06363652a144.28636348 144.28636348 0 0 0 -144.28636348 144.28636348v446.31818173a144.28636348 144.28636348 0 0 0 144.28636348 144.28636348h72.69545479a32.72727305 32.72727305 0 1 0 0-65.45454521h-72.69545479a78.83181826 78.83181826 0 0 1 -78.83181827-78.87272695v-446.27727305c0-43.52727305 35.30454521-78.83181826 78.83181827-78.83181827h595.06363652c43.52727305 0 78.83181826 35.30454521 78.83181826 78.83181827v446.31818173a78.83181826 78.83181826 0 0 1 -78.83181826 78.83181827h-306.53181826a32.72727305 32.72727305 0 0 0 -25.03636347 11.65909131l-102.92727305 122.31818174a32.72727305 32.72727305 0 1 0 50.07272783 42.13636347l93.10909043-110.65909131zm-259.07727305-408.80454521h481.66363653a32.72727305 32.72727305 0 1 0 0-65.45454521h-481.66363653a32.72727305 32.72727305 0 1 0 0 65.45454521zm0 189.36818174h240.83181826a32.72727305 32.72727305 0 1 0 0-65.45454522h-240.79090957a32.72727305 32.72727305 0 1 0 0 65.45454522z"/></svg>