<svg viewBox="0 0 1024 1024" xmlns="http://www.w3.org/2000/svg"><path d="m512 953.81818174c244.02272695 0 441.81818174-197.79545479 441.81818174-441.81818174s-197.79545479-441.81818174-441.81818174-441.81818174-441.81818174 197.79545479-441.81818174 441.81818174 197.79545479 441.81818174 441.81818174 441.81818174zm0-65.45454522a376.36363653 376.36363653 0 1 1 0-752.72727305 376.36363653 376.36363653 0 0 1 0 752.72727305zm-216-216.85909131a305.46818174 305.46818174 0 0 0 432 0 32.72727305 32.72727305 0 1 0 -46.30909131-46.26818173 240.01363652 240.01363652 0 0 1 -339.38181738 0 32.72727305 32.72727305 0 1 0 -46.30909131 46.26818173zm11.45454521-244.71818174a51.13636347 51.13636347 0 1 0 102.27272784 0 51.13636347 51.13636347 0 1 0 -102.27272784 0zm306.81818174 0a51.13636347 51.13636347 0 1 0 102.27272784 0 51.13636347 51.13636347 0 1 0 -102.27272784 0z"/></svg>