<svg viewBox="0 0 1024 1024" xmlns="http://www.w3.org/2000/svg"><path d="m774.50000029 204.49999971a82.50000029 82.50000029 0 0 1 82.49999942 82.50000029v524.99999971a82.50000029 82.50000029 0 0 1 -82.49999942 82.50000029h-525.00000058a82.50000029 82.50000029 0 0 1 -82.49999942-82.50000029v-524.99999971a82.50000029 82.50000029 0 0 1 82.49999942-82.50000029 29.99999971 29.99999971 0 1 0 0-59.99999942 142.49999971 142.49999971 0 0 0 -142.49999971 142.49999971v524.99999971a142.49999971 142.49999971 0 0 0 142.49999971 142.50000058h525.00000058a142.49999971 142.49999971 0 0 0 142.49999971-142.50000058v-524.99999971a142.49999971 142.49999971 0 0 0 -142.49999971-142.49999971 29.99999971 29.99999971 0 1 0 0 59.99999942z"/><g fill="#333"><path d="m475.47500029 99.50000029-.45 581.24999971a29.99999971 29.99999971 0 0 0 59.99999942 0l.45-581.24999971a29.99999971 29.99999971 0 0 0 -59.99999942 0z"/><path d="m504.87499971 648.83750029-181.87499971-173.3625a29.99999971 29.99999971 0 0 0 -41.4 43.46249942l189.71250029 180.7875a48.75000029 48.75000029 0 0 0 67.53749942-.26249942l186.71250058-180.71250029a29.99999971 29.99999971 0 0 0 -41.7375-43.12500029l-178.95000058 173.25z"/></g></svg>