<svg viewBox="0 0 1024 1024" xmlns="http://www.w3.org/2000/svg"><path d="m683.38086969 207.3043475h120.79304344a158.60869594 158.60869594 0 0 1 158.60869593 158.60869594v459.13043437a158.60869594 158.60869594 0 0 1 -158.60869594 158.60869594h-584.34782625a158.60869594 158.60869594 0 0 1 -158.60869593-158.60869594v-459.13043437a158.60869594 158.60869594 0 0 1 158.60869593-158.60869594h116.36869594l-62.4-117.95478188a33.39130406 33.39130406 0 0 1 59.01913031-31.22086968l78.92869594 149.17565156h196.09043438l78.92869593-149.17565156a33.39130406 33.39130406 0 0 1 59.06086969 31.22086969zm-463.55478282 66.78260906a91.82608688 91.82608688 0 0 0 -91.82608687 91.82608688v459.13043437a91.82608688 91.82608688 0 0 0 91.82608687 91.82608781h584.34782625a91.82608688 91.82608688 0 0 0 91.82608688-91.82608781v-459.13043437a91.82608688 91.82608688 0 0 0 -91.82608687-91.82608688zm133.56521719 191.29043438v276.89739187a54.26086969 54.26086969 0 0 0 82.18434844 46.53913031l230.73391312-138.44869593a54.26086969 54.26086969 0 0 0 0-93.07826063l-230.73391312-138.44869593a54.26086969 54.26086969 0 0 0 -82.18434844 46.53913031zm260.66086969 138.44869593-193.87826063 116.32695657v-232.65391313l193.87826063 116.32695657z"/></svg>