<svg height="200" viewBox="0 0 1024 1024" width="200" xmlns="http://www.w3.org/2000/svg"><path d="m704 874.666667a21.333333 21.333333 0 0 1 -21.333333 21.333333h-341.333334a21.333333 21.333333 0 0 1 -21.333333-21.333333v-106.666667a21.333333 21.333333 0 0 1 21.333333-21.333333h341.333334a21.333333 21.333333 0 0 1 21.333333 21.333333z" fill="#bbdefb"/><path d="m787.989333 128h-551.978666c-92.074667 78.250667-150.677334 194.730667-150.677334 325.077333 0 235.669333 191.018667 426.666667 426.666667 426.666667s426.666667-190.997333 426.666667-426.666667c0-130.346667-58.581333-246.826667-150.677334-325.077333z" fill="#bbdefb"/><path d="m854.741333 281.301333c-89.749333 56.064-216.149333 65.984-321.408 60.032-122.453333-6.933333-195.413333-61.781333-318.805333-68.672-14.016-.789333-27.733333-.298667-41.322667.746667a382.186667 382.186667 0 0 0 -45.205333 179.669333c0 211.754667 172.266667 384 384 384 211.754667 0 384-172.245333 384-384 0-60.501333-14.698667-119.04-41.258667-171.776z" fill="#1e88e5"/><path d="m456.32 512c-74.666667 0-132.757333 58.069333-132.757333 58.069333l-24.896 16.64 24.896 17.792c33.386666 23.808 74.816 56.832 132.757333 56.832 58.069333 0 141.013333-58.090667 141.013333-82.944 0-24.917333-82.965333-66.389333-141.013333-66.389333z" fill="#ffeb3b"/><path d="m254.656 512c9.344 9.344 18.666667 52.928 18.666667 74.666667 0 21.589333-9.344 65.344-18.666667 74.666666 28.010667-9.344 57.877333-39.829333 65.045333-54.784.106667.064 10.965333-19.84 10.965334-19.84l-10.666667-18.709333s-18.666667-37.333333-65.344-56z" fill="#ffeb3b"/><path d="m507.050667 559.616a16.426667 16.426667 0 1 0 32.853333 0 16.426667 16.426667 0 1 0 -32.853333 0z" fill="#37474f"/><path d="m661.333333 426.709333a42.666667 42.666667 0 1 0 85.333334 0 42.666667 42.666667 0 1 0 -85.333334 0z" fill="#90caf9"/><g fill="#64b5f6"><path d="m640 512.042667a21.333333 21.333333 0 1 0 42.666667 0 21.333333 21.333333 0 1 0 -42.666667 0z"/><path d="m554.666667 416a32 32 0 1 0 64 0 32 32 0 1 0 -64 0z"/></g></svg>