<svg height="200" viewBox="0 0 1024 1024" width="200" xmlns="http://www.w3.org/2000/svg"><path d="m661.333333 448c-25.6-59.733333-27.733333-68.266667-42.666666-125.866667-2.133333 0-4.266667-2.133333-4.266667-2.133333-29.866667-12.8-61.866667-21.333333-102.4-21.333333s-72.533333 8.533333-102.4 21.333333c-2.133333 0-4.266667 2.133333-4.266667 2.133333-17.066667 57.6-17.066667 66.133333-42.666666 125.866667-140.8 0-128 166.4-128 213.333333 0 106.666667 206.933333 256 277.333333 256s277.333333-149.333333 277.333333-256c0-46.933333 12.8-213.333333-128-213.333333z" fill="#8d6e63"/><path d="m640 533.333333c23.466667 0 42.666667 19.2 42.666667 42.666667s-19.2 42.666667-42.666667 42.666667-21.333333-19.2-21.333333-42.666667-2.133333-42.666667 21.333333-42.666667zm-298.666667 42.666667c0 23.466667 19.2 42.666667 42.666667 42.666667s21.333333-19.2 21.333333-42.666667 2.133333-42.666667-21.333333-42.666667-42.666667 19.2-42.666667 42.666667zm170.666667 64 149.333333 64s-98.133333 85.333333-149.333333 85.333333-149.333333-85.333333-149.333333-85.333333z" fill="#212121"/><path d="m565.333333 640h-106.666666l32 85.333333 21.333333-57.6 21.333333 57.6z" fill="#fff"/><path d="m512 746.666667c-25.6 0-42.666667 12.8-53.333333 25.6 17.066667 10.666667 34.133333 17.066667 53.333333 17.066666s36.266667-8.533333 53.333333-17.066666c-10.666666-12.8-27.733333-25.6-53.333333-25.6z" fill="#ef5350"/><path d="m682.666667 704c-42.666667 17.066667-170.666667-64-170.666667-64s-128 81.066667-170.666667 64c0-53.333333 42.666667-85.333333 42.666667-85.333333 34.133333-21.333333 0-85.333333 0-85.333334s51.2-64 128-64 128 64 128 64-34.133333 64 0 85.333334c0 0 42.666667 32 42.666667 85.333333zm0-384c6.4-81.066667 53.333333-185.6 106.666666-213.333333-134.4 38.4-168.533333 166.4-170.666666 215.466666-2.133333 51.2 42.666667 125.866667 42.666666 125.866667 34.133333 0 57.6 10.666667 76.8 29.866667-19.2-29.866667-59.733333-96-55.466666-157.866667zm-341.333334 0c-6.4-81.066667-53.333333-185.6-106.666666-213.333333 134.4 38.4 168.533333 166.4 170.666666 215.466666 2.133333 51.2-42.666667 125.866667-42.666666 125.866667-34.133333 0-57.6 10.666667-76.8 29.866667 19.2-29.866667 59.733333-96 55.466666-157.866667z" fill="#6d4c41"/><path d="m682.666667 704s-117.333333 170.666667-170.666667 170.666667-170.666667-170.666667-170.666667-170.666667c6.4 2.133333 14.933333 2.133333 23.466667 2.133333 12.8 10.666667 100.266667 83.2 147.2 83.2s134.4-72.533333 147.2-83.2c8.533333 0 17.066667 0 23.466667-2.133333zm234.666666-234.666667c6.4-121.6-104.533333-268.8-128-298.666666s0-64 0-64c-53.333333 27.733333-102.4 134.4-106.666666 213.333333-4.266667 55.466667 27.733333 115.2 49.066666 147.2 57.6 38.4 59.733333 128 57.6 174.933333 0 6.4 4.266667 19.2 21.333334 19.2 51.2 25.6 85.333333-64 85.333333-64s-42.666667-59.733333-42.666667-85.333333 57.6 78.933333 64-42.666667zm-625.066666-2.133333c19.2-32 51.2-91.733333 49.066666-147.2-6.4-81.066667-53.333333-185.6-106.666666-213.333333 0 0 23.466667 34.133333 0 64s-134.4 177.066667-128 298.666666 64 17.066667 64 42.666667-42.666667 85.333333-42.666667 85.333333 34.133333 89.6 85.333333 64c17.066667 0 21.333333-12.8 21.333334-19.2 0-46.933333 2.133333-134.4 57.6-174.933333zm283.733333 130.133333v-42.666666c0-23.466667-19.2-42.666667-42.666667-42.666667h-42.666666c-23.466667 0-42.666667 19.2-42.666667 42.666667v42.666666c0 44.8 23.466667 64 64 64 42.666667 0 64-19.2 64-64z" fill="#ef9a9a"/><path d="m576 576c0 44.8-64 42.666667-64 42.666667s29.866667-64 64-64zm-128 0c0 42.666667 64 42.666667 64 42.666667s-32-64-64-64z" fill="#5d4037"/><path d="m729.6 467.2c-10.666667-17.066667-25.6-40.533333-25.6-51.2 0-17.066667 14.933333-32 32-32s32 14.933333 32 32c0 14.933333-12.8 51.2-19.2 68.266667-4.266667-6.4-10.666667-12.8-19.2-17.066667zm-435.2 0c12.8-17.066667 25.6-40.533333 25.6-51.2 0-17.066667-14.933333-32-32-32s-32 14.933333-32 32c0 14.933333 12.8 51.2 19.2 68.266667 4.266667-6.4 10.666667-12.8 19.2-17.066667z" fill="#c15656"/></svg>