<svg height="200" viewBox="0 0 1024 1024" width="200" xmlns="http://www.w3.org/2000/svg"><path d="m362.666667 234.666667c0-42.666667-128-128-213.333334-64-61.546667 46.144 0 234.666667 0 234.666666zm298.666666 0c0-42.666667 128-128 213.333334-64 61.546667 46.144 0 234.666667 0 234.666666z" fill="#795548"/><path d="m917.333333 533.333333c0 64-128 384-405.333333 384s-405.333333-320-405.333333-384c42.666666-256 256-405.333333 405.333333-298.666666 149.333333-106.666667 362.666667 42.666667 405.333333 298.666666z" fill="#795548"/><path d="m876.245333 400.277333c7.274667-23.914667 37.269333-129.194667 20.864-192.021333-53.397333-18.048-114.026667 5.568-149.930666 34.645333 51.008 34.645333 96.768 88.768 129.066666 157.376zm-599.402666-157.376c-35.925333-29.077333-96.554667-52.693333-149.952-34.645333-16.405333 62.848 13.589333 168.106667 20.885333 192.021333 32.277333-68.608 78.037333-122.730667 129.066667-157.376z" fill="#4e342e"/><path d="m394.666667 426.666667c-41.173333 0-74.666667 33.493333-74.666667 74.666666s33.493333 74.666667 74.666667 74.666667 74.666667-33.493333 74.666666-74.666667-33.493333-74.666667-74.666666-74.666666zm234.666666 0c-41.173333 0-74.666667 33.493333-74.666666 74.666666s33.493333 74.666667 74.666666 74.666667 74.666667-33.493333 74.666667-74.666667-33.493333-74.666667-74.666667-74.666666z" fill="#bcaaa4"/><path d="m640 426.666667h-256c21.333333 0 42.666667 30.869333 42.666667 42.666666l-42.666667 256c0 42.666667 21.333333 64 42.666667 64h64v-42.666666h42.666666v42.666666h64c21.333333 0 42.666667-21.333333 42.666667-64l-42.666667-256c0-11.797333 21.333333-42.666667 42.666667-42.666666z" fill="#bcaaa4"/><path d="m597.333333 789.333333h-170.666666c-4.394667 0-8.746667-1.130667-12.949334-2.944 16.170667 26.794667 54.101334 45.610667 98.282667 45.610667s82.112-18.816 98.282667-45.610667a32.789333 32.789333 0 0 1 -12.949334 2.944zm-21.333333-64c0 11.797333-30.869333 42.666667-42.666667 42.666667h-42.666666c-11.776 0-42.666667-30.869333-42.666667-42.666667v-42.666666a21.333333 21.333333 0 0 1 21.333333-21.333334h85.333334a21.333333 21.333333 0 0 1 21.333333 21.333334z" fill="#3e2723"/><g fill="#212121"><path d="m220.074667 292.032a334.72 334.72 0 0 1 56.661333-49.066667 192.426667 192.426667 0 0 0 -69.248-35.178666 53.12 53.12 0 0 0 12.586667 84.245333zm583.872 0a53.12 53.12 0 0 0 12.565333-84.266667 192.704 192.704 0 0 0 -69.269333 35.178667 334.144 334.144 0 0 1 56.704 49.088z"/><path d="m362.666667 501.333333a32 32 0 1 0 64 0 32 32 0 1 0 -64 0z"/><path d="m597.333333 501.333333a32 32 0 1 0 64 0 32 32 0 1 0 -64 0z"/></g></svg>