<svg height="200" viewBox="0 0 1024 1024" width="200" xmlns="http://www.w3.org/2000/svg"><path d="m704 213.333333s8.533333-64 106.666667-64-42.666667 170.666667-42.666667 170.666667zm-384 0s-8.533333-64-106.666667-64 42.666667 170.666667 42.666667 170.666667z" fill="#3e2723"/><path d="m810.666667 149.333333c36.266667 0 64 27.733333 64 64 0 49.066667-70.4 106.666667-106.666667 106.666667s-21.333333-70.4-21.333333-106.666667 27.733333-64 64-64zm-597.333334 0c-36.266667 0-64 27.733333-64 64 0 49.066667 70.4 106.666667 106.666667 106.666667s21.333333-70.4 21.333333-106.666667-27.733333-64-64-64z" fill="#6d4c41"/><path d="m832 448c-68.266667-264.533333-157.866667-317.866667-234.666667-320-49.066667 0-85.333333 21.333333-85.333333 21.333333s-36.266667-21.333333-85.333333-21.333333c-76.8 2.133333-166.4 55.466667-234.666667 320-42.666667 108.8-66.133333 78.933333-64 128 0 0-10.666667 320 384 320s384-320 384-320c2.133333-49.066667-21.333333-19.2-64-128z" fill="#e65100"/><path d="m672 298.666667c17.066667 0 32 14.933333 32 32s-14.933333 32-32 32-32-14.933333-32-32 14.933333-32 32-32zm-320 0c-17.066667 0-32 14.933333-32 32s14.933333 32 32 32 32-14.933333 32-32-14.933333-32-32-32z"/><path d="m512 362.666667c-70.4 0-151.466667 61.866667-149.333333 128s6.4 113.066667 21.333333 170.666666c29.866667 119.466667 57.6 106.666667 128 106.666667s104.533333 0 128-106.666667c12.8-57.6 19.2-104.533333 21.333333-170.666666s-78.933333-128-149.333333-128z" fill="#ffb74d"/><path d="m618.666667 725.333333c0 36.266667-40.533333 85.333333-106.666667 85.333334s-106.666667-49.066667-106.666667-85.333334c21.333333 0 93.866667 0 106.666667-64 14.933333 64 81.066667 64 106.666667 64z" fill="#3e2723"/><path d="m490.666667 490.666667 21.333333 170.666666 21.333333-170.666666z" fill="#795548"/><path d="m597.333333 473.6c0 10.666667-6.4 19.2-14.933333 23.466667-14.933333 8.533333-38.4 14.933333-70.4 14.933333s-55.466667-6.4-70.4-12.8c-10.666667-4.266667-14.933333-12.8-14.933333-23.466667v-72.533333c0-10.666667 6.4-21.333333 17.066666-25.6 19.2-6.4 46.933333-14.933333 68.266667-14.933333s49.066667 8.533333 68.266667 14.933333c10.666667 4.266667 17.066667 12.8 17.066666 25.6z" fill="#6d4c41"/><path d="m597.333333 473.6s-42.666666-25.6-42.666666-46.933333 42.666667-23.466667 42.666666-23.466667zm-170.666666 0s42.666667-25.6 42.666666-46.933333-42.666667-23.466667-42.666666-23.466667z" fill="#3e2723"/><path d="m512 661.333333c-8.533333 38.4-38.4 53.333333-64 59.733334v132.266666h128v-132.266666c-25.6-6.4-55.466667-21.333333-64-59.733334z" fill="#fff8e1"/><path d="m490.666667 853.333333 21.333333-192 21.333333 192z" fill="#d7ccc8"/></svg>