<svg height="200" viewBox="0 0 1024 1024" width="200" xmlns="http://www.w3.org/2000/svg"><path d="m351.893333 469.333333s150.08.746667 214.08-63.253333a106.666667 106.666667 0 0 0 -150.826666-150.826667c-74.666667 74.666667-63.253334 214.08-63.253334 214.08z" fill="#ffc107"/><path d="m625.834667 661.952c-83.648 83.626667-359.893334 106.048-359.893334 106.048s22.421333-254.912 116.714667-349.205333a171.946667 171.946667 0 0 1 243.178667 0 171.925333 171.925333 0 0 1 0 243.157333z" fill="#ffc107"/><path d="m593.685333 299.584 67.541334-75.584-92.714667 34.346667-29.930667 59.904 57.152 27.797333 86.826667-36.714667z" fill="#455a64"/><path d="m471.978667 270.506667c1.792 3.968 2.837333 8.32 2.837333 12.906666 0 17.365333-14.101333 31.509333-31.509333 31.509334-4.608 0-8.96-1.045333-12.906667-2.837334a31.509333 31.509333 0 0 0 60.181333-12.928 31.509333 31.509333 0 0 0 -18.602666-28.650666z" fill="#795548"/><path d="m844.416 106.666667c-13.696 0-35.946667-.810667-36.010667 11.754666v121.578667s-5.205333-3.114667-17.386666-1.706667c-24.576 2.88-44.394667 22.122667-44.458667 41.749334-.106667 19.797333 19.754667 31.893333 44.245333 28.565333 24.490667-3.434667 42.773333-21.568 42.901334-41.365333v-100.352c0-8.746667 6.826667-12.501333 10.496-12.501334 78.08 0 71.829333 43.797333 71.829333 43.797334s16.938667-91.52-71.616-91.52z" fill="#ff1744"/><path d="m496.277333 603.008c-42.176 42.176-133.184 86.826667-250.816 111.893333 35.114667-135.552 66.645333-211.733333 108.8-253.888 42.176-42.176 108.138667-44.544 147.349334-5.312 39.210667 39.168 36.8 105.130667-5.333334 147.306667z" fill="#90a4ae"/><path d="m265.941333 768s.96-10.474667 3.114667-27.413333l-162.496 48.746666c0 106.666667 128 85.333333 128 85.333334l64-106.666667 1.792-3.584c-21.312 2.517333-34.410667 3.584-34.410667 3.584zm34.496-222.314667c-18.730667 42.261333-36.352 97.344-54.976 169.216 117.632-25.066667 208.64-69.738667 250.816-111.893333a111.957333 111.957333 0 0 0 33.130667-74.325333c-97.92-16.682667-177.365333-.853333-228.970667 17.002666z" fill="#607d8b"/><path d="m468.650667 522.538667c-3.413333 4.714667-6.954667 9.344-11.2 13.568-34.325333 34.304-101.376 70.144-188.458667 95.850666-4.330667 13.866667-8.64 28.373333-13.013333 44.010667 103.872-25.834667 184.106667-66.453333 222.805333-105.194667a113.045333 113.045333 0 0 0 27.370667-45.205333 513.130667 513.130667 0 0 0 -37.504-3.029333zm-185.792 67.84c57.706667-19.541333 104.682667-43.349333 136.938666-67.562667a442.837333 442.837333 0 0 0 -119.36 22.869333c-5.952 13.44-11.797333 28.437333-17.578666 44.693334z" fill="#37474f"/></svg>