<svg height="200" viewBox="0 0 1024 1024" width="200" xmlns="http://www.w3.org/2000/svg"><path d="m576.448 443.989333a64.426667 64.426667 0 1 1 -128.896 0v-123.52a64.426667 64.426667 0 1 1 128.896-.021333z" fill="#00695c"/><path d="m512 896c-128 0-149.333333-469.333333-149.333333-469.333333 0-23.552 85.333333-42.666667 149.333333-42.666667s149.333333 19.114667 149.333333 42.666667c0 0-21.333333 469.333333-149.333333 469.333333z" fill="#26a69a"/><path d="m490.666667 891.157333c6.677333 3.093333 13.781333 4.842667 21.333333 4.842667s14.656-1.749333 21.333333-4.842667v-506.432c-7.061333-.448-14.186667-.725333-21.333333-.725333s-14.272.277333-21.333333.725333z" fill="#00897b"/></svg>