<svg height="200" viewBox="0 0 1024 1024" width="200" xmlns="http://www.w3.org/2000/svg"><path d="m279.616 539.562667c-67.434667-21.632-66.282667-64.213334-66.282667-64.213334-.682667-64.213333 84.032-218.325333 84.032-218.325333s-42.389333-19.114667 25.962667-85.162667c67.178667-64.874666 113.237333-86.528 177.664-86.528s108.16 21.653333 178.346667 86.528c69.781333 64.533333 25.962667 85.162667 25.962666 85.162667s84.693333 154.112 84.032 218.325333c0 0-1.856 42.581333-66.282666 64.213334 0 0-104.512 104.448-104.512 212.586666 0 53.418667-28.48 79.850667-106.837334 79.850667-78.336 0-107.221333-32.661333-107.221333-87.402667-.042667-108.138667-124.864-205.034667-124.864-205.034666z" fill="#ff3d00"/><path d="m698.282667 268.522667c-28.544 20.522667 20.970667 60.074667 20.970666 60.074666s69.376 75.882667 155.413334 2.261334c-54.165333-8.405333-50.709333-60.906667-176.384-62.336zm-570.624 62.336c86.037333 73.621333 155.392-2.24 155.392-2.24s49.536-39.552 20.970666-60.074667c-125.653333 1.408-122.197333 53.909333-176.362666 62.314667z" fill="#a01c02"/><path d="m682.538667 203.114667c70.208 23.232 133.781333 4.565333 133.781333-44.010667 0-63.210667-36.458667-94.762667-36.458667-94.762667s94.805334 31.552 94.805334 126.336c0 63.189333-67.093333 108.309333-130.261334 108.309334-31.573333 0-55.957333-5.525333-73.728-13.994667-68.672-33.984-20.672-92.650667 11.861334-81.877333zm-350.890667 81.877333c-17.770667 8.469333-42.154667 13.994667-73.728 13.994667-63.189333 0-130.261333-45.12-130.261333-108.309334 0-94.784 94.784-126.357333 94.784-126.357333s-36.458667 31.573333-36.458667 94.784c0 48.554667 63.594667 67.221333 133.802667 44.010667 32.533333-10.773333 80.533333 47.893333 11.861333 81.877333z" fill="#ffcc80"/><path d="m379.562667 476.757333c-48.085333-18.730667-36.053333-74.837333-36.053334-74.837333l92.16 61.44s-26.24 24.96-56.106666 13.397333zm235.093333 0c-29.866667 11.562667-56.106667-13.397333-56.106667-13.397333l92.16-61.44s11.989333 56.106667-36.053333 74.837333z"/><path d="m730.176 298.368c-24.618667-1.408-44.544-6.250667-59.498667-13.376-63.018667-31.210667-27.754667-83.2 3.626667-83.2 2.794667 0 5.589333.426667 8.256 1.322667 13.930667 4.629333 27.562667 7.466667 40.533333 8.853333-4.650667-11.797333-18.794667-25.066667-42.922666-40.405333a295.402667 295.402667 0 0 0 -18.837334-10.901334c-32.405333 4.693333-58.496 29.781333-66.261333 63.104-7.232 30.933333 24.192 51.882667 37.610667 56.810667 49.984 18.432 92.650667 18.432 92.650666 18.432 1.984 0 11.114667 12.138667 4.842667-.64zm-458.026667 0c24.64-1.408 44.565333-6.250667 59.52-13.376 63.018667-31.210667 27.754667-83.2-3.605333-83.2-2.816 0-5.589333.426667-8.256 1.322667a194.026667 194.026667 0 0 1 -40.533333 8.853333c4.629333-11.797333 13.781333-26.069333 37.909333-41.386667 6.357333-4.032 12.608-7.573333 18.837333-10.901333 32.405333 4.693333 63.488 30.784 71.253334 64.106667 7.232 30.933333-24.192 51.882667-37.610667 56.810666-50.005333 18.410667-92.672 18.410667-92.672 18.410667-1.984 0-11.114667 12.138667-4.842667-.64zm111.850667 433.728c0 62.549333 24.874667 99.904 126.784 99.904 101.952 0 129.216-38.848 129.216-99.904 0-39.210667-30.848-49.429333-59.285333-49.429333-16.597333 0-40.170667 10.048-72.896 10.048-23.338667 0-57.493333-10.048-69.333334-10.048-28.458666 0-54.485333 10.218666-54.485333 49.429333z" fill="#dd2c00"/><path d="m486.592 728.725333a42.602667 42.602667 0 0 0 -81.258667 17.941334c0 12.864 5.802667 24.256 14.805334 32.085333a106.474667 106.474667 0 0 1 66.453333-50.026667zm117.290667 50.026667c9.002667-7.829333 14.784-19.221333 14.784-32.085333a42.666667 42.666667 0 0 0 -42.666667-42.666667c-17.130667 0-31.786667 10.176-38.592 24.725333a106.624 106.624 0 0 1 66.474667 50.026667z" fill="#a01c02"/><path d="m617.706667 818.624-.448-2.752a98.346667 98.346667 0 0 0 -2.432-11.392l-.256-.917333a107.349333 107.349333 0 0 0 -32.64-51.626667c-.618667-.554667-1.450667-.746667-2.154667-1.237333a104.810667 104.810667 0 0 0 -42.346667-21.973334c-2.581333 5.482667-4.096 11.52-4.096 17.941334 0 14.826667 7.573333 27.882667 19.093334 35.52.533333.597333.810667 1.344 1.408 1.877333 3.050667 2.645333 5.589333 5.568 8.021333 8.576.896 1.109333 1.749333 2.218667 2.56 3.370667 1.493333 2.154667 2.794667 4.416 4.032 6.72.789333 1.514667 1.664 3.050667 2.346667 4.629333 1.024 2.346667 1.728 4.821333 2.432 7.274667.448 1.557333 1.045333 3.072 1.365333 4.672.896 4.138667 1.408 8.362667 1.408 12.693333 0 35.285333-28.714667 64-64 64s-64-28.714667-64-64c0-4.330667.512-8.554667 1.365333-12.693333.341333-1.6.917333-3.114667 1.365334-4.672.725333-2.453333 1.429333-4.906667 2.453333-7.274667.682667-1.578667 1.557333-3.114667 2.368-4.629333a56 56 0 0 1 6.592-10.090667c2.432-3.029333 4.992-5.930667 8-8.576.618667-.533333.896-1.28 1.429333-1.877333a42.24 42.24 0 0 0 15.018667-53.461334 105.28 105.28 0 0 0 -42.368 21.973334c-.704.469333-1.514667.661333-2.154667 1.237333a107.349333 107.349333 0 0 0 -32.64 51.626667l-.256.917333a109.354667 109.354667 0 0 0 -2.453333 11.392l-.448 2.752a107.264 107.264 0 0 0 -.938667 13.376c0 58.816 47.850667 106.666667 106.666667 106.666667s106.666667-47.850667 106.666667-106.666667c0-4.501333-.384-8.96-.96-13.376z" fill="#ffc107"/></svg>