<svg height="200" viewBox="0 0 1024 1024" width="200" xmlns="http://www.w3.org/2000/svg"><path d="m624.192 831.168c4.8-5.418667 9.408-11.072 13.824-16.917333-124.693333 14.464-265.237333-92.010667-300.288-207.872v.042666c-1.6 7.061333-2.837333 14.101333-3.733333 21.12l-.234667 1.472a182.144 182.144 0 0 0 -1.365333 21.653334c0 100.138667 70.528 245.333333 170.666666 245.333333 6.314667 0 12.586667-.533333 18.816-1.578667 1.621333-.256 3.2-.832 4.821334-1.173333 4.608-.938667 9.194667-1.898667 13.717333-3.349333 1.514667-.469333 2.986667-1.237333 4.501333-1.770667 4.565333-1.664 9.130667-3.328 13.610667-5.504 1.237333-.576 2.389333-1.344 3.605333-1.962667 4.714667-2.410667 9.386667-4.885333 13.952-7.786666.810667-.490667 1.578667-1.130667 2.368-1.664 4.906667-3.2 9.792-6.592 14.506667-10.282667.448-.384.874667-.789333 1.344-1.152 5.034667-4.032 9.962667-8.277333 14.741333-12.842667l.448-.469333c4.992-4.8 9.898667-9.856 14.592-15.168zm-50.88-288.277333c-25.152-22.698667-43.904-48.64-54.442667-75.264-3.968-1.344-7.957333-2.730667-11.861333-3.669334a112.490667 112.490667 0 0 0 -18.986667-2.88 114.048 114.048 0 0 0 -17.28.362667c-2.624.298667-5.248.64-7.829333 1.130667-2.090667.362667-4.138667.874667-6.208 1.365333a109.802667 109.802667 0 0 0 -17.450667 5.717333c-.490667.213333-1.002667.384-1.493333.576a128.298667 128.298667 0 0 0 -10.581333 5.248c14.186667 106.218667 125.461333 214.528 265.685333 212.458667.576-3.989333 1.045333-7.914667 1.408-11.84a174.933333 174.933333 0 0 0 .810667-14.784c0-25.066667-4.864-47.274667-13.610667-67.072-36.352-2.538667-74.538667-20.992-108.16-51.349333zm227.008-49.856a117.738667 117.738667 0 0 0 -3.733333-39.594667 145.856 145.856 0 0 0 -6.058667-18.304v-.021333a167.253333 167.253333 0 0 0 -8.725333-17.813334c-.576-1.109333-1.237333-2.197333-1.877334-3.264a185.045333 185.045333 0 0 0 -10.752-16.533333c-.149333-.213333-.256-.405333-.405333-.576a214.421333 214.421333 0 0 0 -13.226667-16.128c-1.109333-1.258667-2.24-2.474667-3.370666-3.712a260.757333 260.757333 0 0 0 -15.402667-15.296 255.210667 255.210667 0 0 0 -17.685333-14.421333l-3.605334-2.666667c-5.973333-4.288-12.053333-8.298667-18.218666-11.84-.64-.384-1.301333-.704-1.941334-1.066667a187.861333 187.861333 0 0 0 -18.346666-9.109333l-1.706667-.768a163.434667 163.434667 0 0 0 -19.797333-6.805333c-.554667-.170667-1.130667-.298667-1.685334-.448a129.984 129.984 0 0 0 -40.192-4.330667l-.853333.042667a105.813333 105.813333 0 0 0 -38.741333 9.856l-.064.021333c10.944 69.994667 78.506667 195.328 222.933333 192.704v-.042667c1.706667-6.101333 2.794667-12.288 3.370667-18.56z" fill="#ffc107"/><path d="m638.016 814.250667c31.253333-41.365333 52.373333-92.288 56.234667-138.133334-.384 3.925333-.832 7.850667-1.408 11.84-140.224 2.069333-251.498667-106.24-265.685334-212.458666 3.456-1.92 6.997333-3.669333 10.581334-5.248-49.834667 21.76-86.890667 78.208-100.010667 136.128 35.072 115.861333 175.616 222.336 300.288 207.872zm-64.106667-493.994667a112.341333 112.341333 0 0 0 -35.626666 26.752c-52.650667 58.368-29.44 137.706667 35.029333 195.904 64.469333 58.218667 145.792 73.194667 198.464 14.805333a111.232 111.232 0 0 0 25.088-44.757333c-144.448 2.624-212.010667-122.709333-222.954667-192.704z" fill="#5d4037"/><path d="m513.472 451.008c-9.493333-36.394667-3.029333-73.130667 24.832-104 3.370667-3.733333 7.061333-6.613333 10.666667-9.749333-47.232-85.781333-111.914667-192.384-148.757334-206.762667-39.722667-15.530667-74.176 131.349333-17.962666 222.016 27.008 43.562667 85.525333 77.354667 131.221333 98.496z" fill="#42a5f5"/><path d="m840.704 402.986667c-18.752 43.733333-102.976 23.68-158.741333-2.325334-42.026667-19.605333-60.970667-70.762667-42.24-114.517333 18.752-43.754667 65.28-55.573333 110.122666-43.946667 53.290667 13.845333 109.610667 117.034667 90.858667 160.789334z" fill="#8d6e63"/><path d="m789.418667 368.96c-9.749333 15.893333-43.029333 10.176-74.261334-12.8s-48.682667-54.464-38.933333-70.378667c9.728-15.872 43.029333-10.154667 74.261333 12.821334s48.682667 54.442667 38.933334 70.357333z" fill="#3e2723"/><path d="m589.184 431.616.149333-.298667c0 .021334-351.210666-303.317333-418.666666-303.317333-42.666667 0-21.333333 149.333333 64 213.333333 72.426667 54.314667 336 127.338667 336 127.338667l.192-.384c1.685333.448 3.306667 1.045333 5.141333 1.045333a21.333333 21.333333 0 0 0 21.333333-21.333333 21.013333 21.013333 0 0 0 -8.149333-16.384z" fill="#90caf9"/><path d="m584.938667 437.824.021333-.213333s-299.136-110.912-342.613333-94.677334c-27.477333 10.24 16.405333 101.333333 88.32 115.712 53.333333 10.688 245.333333 10.688 245.333333 10.688 1.194667-.128 8.362667-3.605333 9.514667-4.032a14.677333 14.677333 0 0 0 8.597333-18.88 14.528 14.528 0 0 0 -9.173333-8.597333z" fill="#90caf9"/><path d="m227.413333 302.997333a55.168 55.168 0 0 0 -19.776 12.885334 178.346667 178.346667 0 0 0 27.029334 25.450666c1.514667 1.130667 3.221333 2.282667 4.906666 3.434667.874667-.64 1.664-1.386667 2.773334-1.813333 2.986667-1.130667 7.125333-1.621333 12.309333-1.621334 70.634667 0 330.304 96.298667 330.304 96.298667-48.298667-24.298667-223.616-130.965333-330.304-138.965333a62.464 62.464 0 0 0 -27.242667 4.330666z" fill="#64b5f6"/></svg>