<svg height="200" viewBox="0 0 1024 1024" width="200" xmlns="http://www.w3.org/2000/svg"><path d="m603.306667 170.666667 85.333333 64-64 106.666666s-42.666667-106.666667-21.333333-170.666666zm271.36 0-85.333334 64 64 106.666666s42.666667-106.666667 21.333334-170.666666z" fill="#37474f"/><g fill="#455a64"><path d="m576 640 106.666667 213.418667s0 42.581333 42.666666 42.581333h85.333334s0-42.666667-42.666667-42.666667l-64-149.333333 42.666667-170.666667zm-362.666667 64.042667 42.666667 149.376s5.333333 42.581333 42.666667 42.581333h85.333333s0-42.666667-42.666667-42.666667l-42.666666-127.978666z"/><path d="m405.333333 661.376c-42.666667 64-106.666667 106.666667-106.666666 106.666667l-85.333334-64s21.333333-85.333333 21.333334-192z"/><path d="m576 661.333333c-89.664-32.597333-170.666667.042667-170.666667.042667l-170.666666-.042667v-256c149.333333-256 533.333333 42.666667 533.333333 42.666667s.746667 8.170667.554667 21.312c-.768 57.322667-19.008 209.365333-192.554667 192.021333z"/><path d="m258.133333 460.8h-29.866666c-68.181333 0-121.6-53.418667-121.6-121.6s53.418667-121.6 121.6-121.6h29.866666c32.832 0 57.6-24.768 57.6-57.6a32 32 0 0 1 64 0c0 68.181333-53.418667 121.6-121.6 121.6h-29.866666c-32.832 0-57.6 24.746667-57.6 57.578667s24.768 57.6 57.6 57.6h29.866666a32 32 0 0 1 0 64.021333z"/><path d="m597.333333 352a138.666667 138.666667 0 1 0 277.333334 0 138.666667 138.666667 0 1 0 -277.333334 0z"/></g><path d="m256 853.418667-29.269333-102.464-34.730667 81.045333s0 64 42.666667 64h64c-37.333333 0-42.666667-42.581333-42.666667-42.581333zm427.157333 5.333333a43.818667 43.818667 0 0 0 -21.824-5.376v-42.645333l-74.432-148.906667c-3.690667-.234667-7.061333-.106667-10.901333-.490667v192.128s0 42.581333 42.666667 42.581334h85.333333s-.085333-2.24-.512-5.418667c-14.869333-8.213333-19.2-23.68-20.330667-31.872zm-277.824-197.376c-29.162667 43.754667-67.882667 77.12-89.706666 94.101333 0 0-1.28.896-2.368 1.877334a19.2 19.2 0 0 1 -.789334.597333l.021334.042667c-1.152.917333-2.24 1.664-2.368 1.770666l5.610666 16.768 4.266667-8.533333s85.333333-42.624 128-106.624l10.304-12.373333c-32.149333 4.010667-52.970667 12.373333-52.970667 12.373333zm330.666667-170.709333a138.666667 138.666667 0 0 1 -138.666667-138.666667c0-1.621333.192-3.178667.256-4.8a663.552 663.552 0 0 0 -41.472-16.96 178.346667 178.346667 0 0 0 -1.450666 21.76c0 100.010667 81.344 181.333333 181.333333 181.333333a182.826667 182.826667 0 0 0 25.258667-1.962666c3.669333-16.192 5.610667-31.445333 6.506666-44.501334a137.877333 137.877333 0 0 1 -31.765333 3.797334zm10.666667-85.333334s-11.562667 16-21.333334 0l-21.333333-21.312v-21.333333l64.021333-.021333v21.333333z" fill="#263238"/><path d="m832 298.666667s6.229333 63.978667-32 63.978666l-31.978667.021334s-7.125333-64 31.978667-64zm-192 .021333s-7.978667 63.978667 32 63.978667l32 .021333s8.021333-64.021333-32-64.021333z" fill="#ffeb3b"/></svg>