<svg height="200" viewBox="0 0 1024 1024" width="200" xmlns="http://www.w3.org/2000/svg"><g fill="#8bc34a"><path d="m192 864a74.666667 74.666667 0 1 0 149.333333 0 74.666667 74.666667 0 1 0 -149.333333 0z"/><path d="m384 800a96 96 0 1 0 192 0 96 96 0 1 0 -192 0z"/><path d="m512 650.666667a117.333333 117.333333 0 1 0 234.666667 0 117.333333 117.333333 0 1 0 -234.666667 0z"/><path d="m533.333333 437.333333a138.666667 138.666667 0 1 0 277.333334 0 138.666667 138.666667 0 1 0 -277.333334 0z"/></g><path d="m192 864a74.24 74.24 0 0 1 28.010667-57.877333 53.077333 53.077333 0 0 0 -38.677334-16.789334 53.333333 53.333333 0 0 0 0 106.666667c5.824 0 11.306667-1.173333 16.554667-2.901333a74.624 74.624 0 0 1 -5.888-29.098667zm192-64c0-11.072 2.24-21.546667 5.696-31.424-1.92-.128-3.754667-.576-5.696-.576a85.333333 85.333333 0 0 0 0 170.666667c32.512 0 60.458667-18.410667 74.858667-45.162667a95.936 95.936 0 0 1 -74.858667-93.504zm245.333333-32a117.333333 117.333333 0 0 1 -115.2-139.349333 105.856 105.856 0 0 0 -38.933333 29.568l-3.413333 4.202666a106.453333 106.453333 0 0 0 151.125333 148.565334l4.117333-3.456c4.928-4.202667 10.026667-9.28 14.250667-14.485334 7.146667-8.810667 12.16-18.538667 16.106667-28.586666a116.970667 116.970667 0 0 1 -28.053334 3.541333zm42.666667-192a138.496 138.496 0 0 1 -124.906667-78.784 126.784 126.784 0 0 0 -13.76 57.450667 128 128 0 0 0 256 0c0-12.501333-1.877333-24.554667-5.205333-35.968a138.389333 138.389333 0 0 1 -112.128 57.301333z" fill="#388e3c"/><path d="m533.333333 298.666667a149.333333 149.333333 0 1 0 298.666667 0 149.333333 149.333333 0 1 0 -298.666667 0z" fill="#388e3c"/><path d="m597.333333 277.333333a42.666667 42.666667 0 1 0 85.333334 0 42.666667 42.666667 0 1 0 -85.333334 0z" fill="#ffeb3b"/><path d="m725.333333 277.333333a42.666667 42.666667 0 1 0 85.333334 0 42.666667 42.666667 0 1 0 -85.333334 0z" fill="#ffeb3b"/><path d="m725.333333 277.333333a21.333333 21.333333 0 1 0 42.666667 0 21.333333 21.333333 0 1 0 -42.666667 0z" fill="#4e342e"/><path d="m597.333333 277.333333a21.333333 21.333333 0 1 0 42.666667 0 21.333333 21.333333 0 1 0 -42.666667 0z" fill="#4e342e"/><path d="m893.76 502.464c-18.474667-36.949333-59.285333-48.832-84.096-52.650667a138.026667 138.026667 0 0 1 -10.410667 41.664c15.594667 1.856 45.397333 8.170667 56.362667 30.08a21.248 21.248 0 0 0 28.586667 9.536c10.538667-5.290667 14.826667-18.090667 9.557333-28.629333zm-41.536 109.461333c-12.650667-37.952-38.954667-58.709333-63.765333-69.248.384 3.968.874667 7.914667.874666 11.989334 0 11.797333-1.728 23.168-4.714666 34.005333 10.752 7.274667 21.12 18.730667 27.136 36.757333a21.354667 21.354667 0 0 0 26.986666 13.461334 21.290667 21.290667 0 0 0 13.482667-26.965334z" fill="#004d40"/><path d="m725.333333 341.333333s-64 0-75.968 9.365334c-13.909333 10.922667-12.501333 32.746667 0 45.248s32.746667 12.501333 45.248 0 30.72-54.613334 30.72-54.613334z" fill="#004d40"/></svg>