<svg height="200" viewBox="0 0 1024 1024" width="200" xmlns="http://www.w3.org/2000/svg"><path d="m556.010667 684.010667 21.333333 169.322666m-44.010667 0h42.666667s64 0 106.666667 21.333334" fill="#dd2c00"/><path d="m490.666667 874.666667h42.666666s64 0 106.666667 21.333333" fill="#dd2c00"/><g fill="#cfd8dc"><path d="m789.12 347.242667c-16.490667-26.112 9.621333-26.112 31.616-70.08l-75.584-127.829334c-109.973333 0-147.157333 169.344-169.152 213.333334-87.978667 0-234.666667 85.333333-234.666667 85.333333-43.989333 0-94.293333-128.874667-121.770666-144 0 0-56.213333 89.024-75.562667 224 15.338667 10.517333 33.706667 21.866667 56.234667 30.72 75.114666 173.973333 247.146666 230.613333 346.965333 230.613333 109.952 0 156.8-64 156.8-64s239.061333-70.208 85.12-378.090666z"/><path d="m170.666667 330.666667a32 32 0 1 0 64 0 32 32 0 1 0 -64 0z"/><path d="m128.981333 437.333333a32 32 0 1 0 64 0 32 32 0 1 0 -64 0z"/><path d="m128 501.333333a32 32 0 1 0 64 0 32 32 0 1 0 -64 0z"/><path d="m138.666667 376.874667a32 32 0 1 0 64 0 32 32 0 1 0 -64 0z"/></g><path d="m619.498667 261.696c-20.074667 41.493333-33.088 82.816-42.176 100.970667-85.312 0-235.989334 85.333333-235.989334 85.333333 42.666667 42.666667 108.010667 42.666667 108.010667 42.666667s-33.216 41.792-108.010667 64c42.666667 21.333333 106.666667 21.333333 106.666667 21.333333s-21.333333 42.666667-85.333333 64c42.666667 21.333333 116.992 18.858667 161.194666.917333 170.666667-69.333333 160-234.602667 160-234.602666-4.778667-57.642667-35.904-128.149333-64.362666-144.618667z" fill="#b0bec5"/><path d="m726.677333 160c0-17.664 21.333333-74.666667 32-74.666667s32 57.002667 32 74.666667a32 32 0 0 1 -64 0z" fill="#ff3d00"/><path d="m751.445333 137.962667c7.957333-15.744 52.693333-57.045333 62.186667-52.245334 9.536 4.821333 2.922667 65.301333-5.034667 81.088a32.064 32.064 0 0 1 -43.008 14.165334 32.042667 32.042667 0 0 1 -14.144-43.008z" fill="#ff3d00"/><path d="m721.344 187.477333c-9.429333-14.912-21.888-74.496-12.885333-80.213333s57.536 31.04 66.965333 45.973333a31.978667 31.978667 0 0 1 -9.898667 44.138667c-14.933333 9.472-34.709333 5.013333-44.181333-9.898667z" fill="#ff3d00"/><path d="m794.624 130.026667c16.533333-6.208 77.418667-6.250667 81.173333 3.733333 3.754667 10.005333-42.133333 50.005333-58.688 56.192a32 32 0 0 1 -22.485333-59.925333z" fill="#ff3d00"/><path d="m827.541333 171.050667c17.450667 2.666667 70.549333 32.405333 68.949334 42.944-1.621333 10.538667-61.205333 22.997333-78.677334 20.309333a32 32 0 1 1 9.728-63.253333zm5.802667 138.282666a53.333333 53.333333 0 0 1 -106.218667 7.082667c.277333-.512 54.656.042667 63.552-39.082667 0 0 19.306667-12.458667 19.136-12.224a53.312 53.312 0 0 1 23.530667 44.224z" fill="#ff3d00"/><path d="m662.677333 234.666667a85.333333 85.333333 0 1 0 170.666667 0 85.333333 85.333333 0 1 0 -170.666667 0z" fill="#607d8b"/><path d="m748.010667 149.333333c-108.010667 0-150.677334 149.333334-170.666667 213.333334l64-42.666667 32 49.344 55.338667-52.672z" fill="#607d8b"/><path d="m748.010667 234.666667a21.333333 21.333333 0 1 0 42.666666 0 21.333333 21.333333 0 1 0 -42.666666 0z"/><path d="m833.344 234.666667-42.666667 42.666666 42.666667 21.333334s42.666667-21.333333 85.333333 0c-21.333333-64-85.333333-64-85.333333-64z" fill="#ffc107"/></svg>