<svg height="200" viewBox="0 0 1024 1024" width="200" xmlns="http://www.w3.org/2000/svg"><path d="m765.866667 597.333333v277.333334c42.666667 0 42.666667 42.666667 42.666666 42.666666h-85.333333c-42.666667 0-42.666667-42.666667-42.666667-42.666666v-213.333334zm-576 128v149.333334s0 42.666667 42.666666 42.666666h85.333334s0-42.666667-42.666667-42.666666v-85.333334z" fill="#b0bec5"/><path d="m403.2 490.666667s-234.666667-70.4-234.666667 128c0 40.533333 21.333333 149.333333 21.333334 149.333333v85.333333l85.333333-21.333333v-21.333333c19.2-29.866667 91.733333-17.066667 149.333333-64 36.266667-27.733333-21.333333-256-21.333333-256z" fill="#bf360c"/><path d="m23.466667 640 19.2 21.333333 36.266666-21.333333c21.333333-38.4 46.933333-42.666667 46.933334-42.666667l42.666666-106.666666s-123.733333 6.4-145.066666 149.333333z" fill="#e65100"/><path d="m211.2 725.333333v149.333334c42.666667 0 42.666667 42.666667 42.666667 42.666666h-85.333334c-42.666667 0-42.666667-42.666667-42.666666-42.666666v-149.333334zm663.466667-405.333333s-6.4-19.2-19.2-38.4c-6.4-10.666667-14.933333-21.333333-23.466667-25.6-29.866667-21.333333-66.133333-21.333333-66.133333-21.333333s-38.4-134.4-85.333334-128-42.666667 170.666667-42.666666 170.666666c-12.8 19.2-21.333333 42.666667-21.333334 42.666667-25.6 68.266667-83.2 149.333333-125.866666 149.333333h-42.666667l-85.333333 277.333334s72.533333 38.4 243.2 42.666666l12.8 85.333334s0 42.666667 42.666666 42.666666h85.333334s0-42.666667-42.666667-42.666666v-93.866667c130.133333-36.266667 128-183.466667 128-183.466667s-12.8-70.4-21.333333-106.666666c-12.8-53.333333 160-29.866667 192-106.666667v-42.666667zm-851.2 320c-2.133333 12.8-4.266667 27.733333-4.266667 42.666667 0 12.8 8.533333 21.333333 21.333333 21.333333s21.333333-8.533333 21.333334-21.333333c4.266667-17.066667 10.666667-32 17.066666-42.666667z" fill="#cfd8dc"/><path d="m595.2 725.333333 8.533333 64c-166.4 0-243.2-42.666667-243.2-42.666666s-8.533333-2.133333-21.333333-8.533334c-55.466667 32-119.466667 27.733333-128 72.533334v21.333333l-85.333333 21.333333v-85.333333s-21.333333-108.8-21.333334-149.333333c0-198.4 234.666667-149.333333 234.666667-149.333334h151.466667s17.066667 46.933333 61.866666 85.333334c187.733333 153.6 42.666667 170.666667 42.666667 170.666666zm170.666667-490.666666s-38.4-134.4-85.333334-128 0 170.666667 0 170.666666-85.333333 170.666667 0 170.666667c17.066667-38.4 177.066667-42.666667 192-64s2.133333-64 2.133334-64-12.8-42.666667-42.666667-64-66.133333-21.333333-66.133333-21.333333z" fill="#f57f17"/><path d="m808.533333 298.666667c-12.8 0-21.333333 8.533333-21.333333 21.333333v21.333333h21.333333c12.8 0 21.333333-8.533333 21.333334-21.333333s-8.533333-21.333333-21.333334-21.333333z" fill="#3e2723"/><path d="m957.866667 334.933333v6.4c0 38.4 44.8 42.666667 44.8 42.666667v-42.666667z" fill="#4e342e"/><path d="m680.533333 277.333333s-6.4-19.2-8.533333-34.133333c-4.266667-14.933333-8.533333-36.266667-12.8-57.6-2.133333-21.333333-4.266667-44.8 2.133333-59.733333 2.133333-8.533333 8.533333-12.8 12.8-14.933334 4.266667-4.266667 8.533333-4.266667 6.4-4.266666 0 0-2.133333 0-6.4 4.266666-2.133333 2.133333-6.4 8.533333-6.4 14.933334-2.133333 14.933333 4.266667 34.133333 12.8 53.333333s17.066667 36.266667 23.466667 49.066667c8.533333 12.8 12.8 21.333333 12.8 21.333333s-21.333333 6.4-36.266667 27.733333z" fill="#bf360c"/></svg>