<svg height="200" viewBox="0 0 1024 1024" width="200" xmlns="http://www.w3.org/2000/svg"><path d="m421.44 274.133333-79.274667-20.544-39.637333-10.261333-19.818667-5.141333-12.181333-3.114667a87.765333 87.765333 0 0 1 -12.202667-5.162667 100.074667 100.074667 0 0 1 -37.546666-32.469333 92.842667 92.842667 0 0 1 -15.616-44.437333c-1.557333-15.338667 1.258667-29.397333 2.837333-42.624l2.666667-20.309334.170666-1.28.042667-.32.021333-.149333.021334-.085333c2.154667-.064-4.842667 0 4.842666.021333l-.085333.64-.341333 2.538667-.661334 5.056-1.344 10.176-1.322666-10.154667-.682667-5.056-.32-2.538667-.085333-.64c9.664-.021333 2.688-.085333 4.842666-.021333l.021334.085333.021333.149334.042667.32.170666 1.28 2.666667 20.309333c1.898667 13.738667 2.944 27.008 7.402667 38.250667 8.149333 23.232 26.858667 37.589333 47.466666 41.408 2.474667.448 5.12.832 7.168.832.170667 0 .554667.021333.469334-.042667l-.042667-.064.170667.021333c-2.261333-.362667-.533333-.106667-1.002667-.192h.618667l2.56-.021333 5.12-.042667 20.458666-.170666 40.96-.298667 81.877334-.618667zm170.666667-84.672 81.877333.618667 40.96.298667 20.458667.170666 5.12.042667 2.56.021333h.618666c-.448.085333 1.28-.170667-1.002666.192l.170666-.021333-.042666.042667c-.085333.064.32.042667.469333.042666 2.048 0 4.693333-.384 7.168-.832 20.608-3.84 39.317333-18.197333 47.466667-41.408 4.458667-11.242667 5.504-24.512 7.402666-38.250666l2.666667-20.309334.170667-1.28.042666-.32.021334-.149333.021333-.085333c2.154667-.064-4.842667 0 4.842667.021333l-.085334.64-.341333 2.538667-.661333 5.056-1.344 10.176-1.344-10.154667-.661334-5.056-.341333-2.538667-.085333-.64c9.664-.021333 2.688-.085333 4.842666-.021333l.021334.085333.021333.149334.042667.32.170666 1.28 2.666667 20.309333c1.578667 13.226667 4.394667 27.285333 2.837333 42.624a92.885333 92.885333 0 0 1 -15.594666 44.416 99.904 99.904 0 0 1 -37.546667 32.469333 88.874667 88.874667 0 0 1 -12.202667 5.162667l-12.181333 3.114667-19.818667 5.141333-39.637333 10.261333-79.274667 20.544z" fill="#ffd54f"/><path d="m725.333333 384s-1.792-39.125333 17.792-39.125333c19.541333 0 19.541333 39.125333 78.208 39.125333s117.333333-78.272 117.333334-97.792c0-19.541333-78.208-39.146667-117.333334-39.146667s-78.208 39.146667-97.792 39.146667c-19.541333 0-104.874666-72.874667-104.874666-72.874667h-213.333334s-85.333333 72.874667-104.874666 72.874667c-19.584 0-58.666667-39.146667-97.792-39.146667s-117.333334 19.605334-117.333334 39.146667c0 19.52 58.666667 97.792 117.333334 97.792s58.666667-39.125333 78.208-39.125333c19.584 0 17.792 39.125333 17.792 39.125333z" fill="#5d4037"/><path d="m682.666667 277.333333h-341.333334s-42.666667 42.666667-42.666666 85.333334c0 106.666667 85.333333 426.666667 106.666666 448 7.552 7.552 42.666667 10.666667 85.333334 8 42.666667 2.666667 120.448-.448 128-8 21.333333-21.333333 106.666667-362.666667 106.666666-448 0-42.666667-42.666667-85.333333-42.666666-85.333334z" fill="#795548"/><path d="m576 149.333333h-128c-47.125333 0-64 42.666667-85.333333 85.333334l-21.333334 42.666666s106.666667 85.333333 106.666667 298.666667c0 64-39.253333 194.282667-42.666667 213.333333h213.333334c-3.413333-19.050667-48.384-149.333333-48.384-213.333333 0-213.333333 112.384-298.666667 112.384-298.666667l-21.333334-42.666666c-21.333333-42.666667-38.208-85.333333-85.333333-85.333334z" fill="#cfd8dc"/><path d="m618.666667 906.666667a32 32 0 0 1 -31.936 32h-149.461334a32 32 0 1 1 0-64h149.461334a32 32 0 0 1 31.936 32z" fill="#78909c"/><path d="m640 874.666667a21.333333 21.333333 0 0 1 -21.333333 21.333333h-213.333334a21.333333 21.333333 0 0 1 -21.333333-21.333333l21.333333-85.333334c3.008-13.333333 12.672-42.666667 42.666667-42.666666h128c28.992 0 38.677333 28.672 42.666667 42.666666z" fill="#b0bec5"/><path d="m554.666667 832c0-11.797333 42.666667-42.666667 42.666666-42.666667v42.666667a21.333333 21.333333 0 1 1 -42.666666 0zm-85.333334 0c0-11.797333-42.666667-42.666667-42.666666-42.666667v42.666667a21.333333 21.333333 0 1 0 42.666666 0z" fill="#455a64"/><path d="m682.453333 432.533333a61.162667 61.162667 0 0 1 -3.456-20.394666c0-18.602667 8.170667-34.837333 20.373334-44.138667-17.728 6.848-38.037334 22.613333-38.037334 58.666667 0 0 9.898667 2.133333 21.461334 5.994666zm-341.909333 0c2.218667-6.272 3.456-13.162667 3.456-20.394666 0-18.602667-8.170667-34.837333-20.373333-44.138667 17.728 6.848 38.037333 22.613333 38.037333 58.666667 0 0-9.898667 2.133333-21.461333 5.994666z" fill="#fff"/><path d="m725.333333 362.666667s-12.202667 0-25.962666 5.333333c-12.202667 9.322667-20.373333 25.536-20.373334 44.138667 0 7.232 1.237333 14.122667 3.456 20.394666 11.029333 3.648 23.658667 8.896 30.869334 15.466667 7.573333-6.208 42.688-46.677333 12.010666-85.333333zm-427.669333 0s12.202667 0 25.962667 5.333333c12.202667 9.322667 20.373333 25.536 20.373333 44.138667 0 7.232-1.237333 14.122667-3.456 20.394666-11.029333 3.648-23.658667 8.896-30.869333 15.466667-7.573333-6.208-42.666667-46.677333-12.010667-85.333333z" fill="#263238"/></svg>