<svg height="200" viewBox="0 0 1024 1024" width="200" xmlns="http://www.w3.org/2000/svg"><path d="m490.666667 447.125333a21.333333 21.333333 0 1 1 -42.666667 0v-42.666666c0-11.818667 9.536-21.333333 21.333333-21.333334 11.797333 0 21.333333 9.514667 21.333334 21.333334zm85.333333 0a21.333333 21.333333 0 1 1 -42.666667 0v-42.666666c0-11.818667 9.536-21.333333 21.333334-21.333334 11.797333 0 21.333333 9.514667 21.333333 21.333334z" fill="#3e2723"/><g fill="#aa290b"><path d="m220.437333 494.122667s-64-64 0-128c64-21.333333 85.333333 42.666667 85.333334 42.666666s-64 42.666667-42.666667 85.333334-42.666667 0-42.666667 0zm583.125334 19.349333s64-64 0-128c-64-21.333333-85.333333 42.666667-85.333334 42.666667s64 42.666667 42.666667 85.333333 42.666667 0 42.666667 0zm-120.810667 403.861333-.085333-.874666 38.528-35.349334-13.077334-52.245333-142.186666-20.330667-26.346667-26.325333 30.165333-30.165333 16.32 16.298666 156.48 22.336 29.589334 118.421334z"/><path d="m832 852.458667-3.093333-58.24-47.125334-47.146667-146.816 20.970667-70.805333-47.189334 23.68-35.477333 57.194667 38.122667 151.850666-21.696 80.874667 80.874666zm-168.021333-170.858667-5.290667-42.325333 158.186667-19.776 36.458666-91.157334v-102.549333l42.666667 110.741333-48.874667 122.176zm-322.730667 235.733333.085333-.874666-38.528-35.349334 13.077334-52.245333 142.186666-20.330667 26.346667-26.325333-30.165333-30.165333-16.32 16.298666-156.48 22.336-29.589334 118.421334z"/><path d="m192 852.458667 3.093333-58.24 47.125334-47.146667 146.816 20.970667 70.805333-47.189334-23.68-35.477333-57.194667 38.122667-151.850666-21.696-80.874667 80.874666zm168.021333-170.858667 5.290667-42.325333-158.186667-19.776-36.458666-91.157334v-102.549333l-42.666667 110.741333 48.874667 122.176z"/></g><path d="m384 340.458667c26.986667-13.525333 42.666667-64 129.344-106.346667 0-31.914667-127.658667 0-191.509333 63.829333-44.501334 42.517334 19.498666 63.850667 62.165333 42.517334z" fill="#ff5722"/><path d="m256.661333 308.010667s-31.914667-159.552 159.573334-159.552c10.197333 0 95.744 0 95.744 31.893333-63.829333 0-159.573333 31.914667-159.573334 95.744 0 31.914667-11.093333 64.362667-11.093333 64.362667zm379.157334 9.557333c-16.768-25.066667-5.418667-76.736-59.818667-156.373333 15.786667-27.733333 110.954667 63.146667 134.869333 150.186666 17.642667 58.944-48.512 45.824-75.050666 6.186667z" fill="#ff5722"/><path d="m762.517333 352.384s106.666667-122.922667-59.776-217.621333c-8.853333-5.034667-83.221333-47.381333-99.008-19.626667 55.488 31.573333 122.901333 106.666667 91.328 162.154667-15.765333 27.733333-22.186667 61.397333-22.186666 61.397333zm-165.184 414.698667s-11.328 21.376-42.666666 21.376l-85.333334-.042667c-32.661333 0-42.666667-21.333333-42.666666-21.333333-85.333333-106.624-192-106.624-192-192 0-106.624 105.066667-170.666667 234.666666-170.666667h85.333334c129.6 0 234.666667 63.978667 234.666666 170.666667 0 85.376-106.666667 85.376-192 192z" fill="#ff5722"/><path d="m802.794667 385.28c-1.557333-18.752-6.250667-49.493333-20.565334-63.786667-64-21.333333-85.333333 42.666667-85.333333 42.666667s14.357333 24.554667 31.253333 45.184c11.733333-16.832 34.88-36.949333 74.645334-24.064zm-506.944 4.693333c16.896-20.629333 31.253333-45.184 31.253333-45.184s-21.333333-64-85.333333-42.666666c-14.293333 14.293333-19.008 45.034667-20.544 63.786666 39.744-12.864 62.890667 7.253333 74.624 24.064zm130.816 99.818667 85.333333 298.666667 85.333333-298.666667-21.333333-85.333333h-128z" fill="#d84315"/></svg>