<svg height="200" viewBox="0 0 1024 1024" width="200" xmlns="http://www.w3.org/2000/svg"><path d="m618.666667 853.333333c0 67.456-64 106.666667-106.666667 106.666667s-106.666667-39.210667-106.666667-106.666667c0-55.701333-68.608-179.541333-85.333333-276.010666v-44.010667c0-42.666667 42.666667-85.333333 106.666667-128 0 0 42.666667-21.333333 85.333333-21.333333s85.333333 21.333333 85.333333 21.333333c64 42.666667 106.666667 85.333333 106.666667 128v42.666667c-15.957333 114.496-85.333333 202.368-85.333333 277.354666z" fill="#6d4c41"/><g fill="#4e342e"><path d="m400.853333 423.552c-16.085333 8.234667-37.781333 13.973333-59.52 3.114667-42.666667-21.333333-170.666667-64-170.666666-64s-10.218667 72.128 42.666666 128c38.912 41.109333 103.488 22.549333 110.912 20.245333 9.770667-29.141333 37.354667-58.261333 76.608-87.36zm452.48-60.885333s-128 42.666667-170.666666 64c-21.738667 10.858667-43.413333 5.12-59.52-3.114667 39.616 29.397333 67.392 58.794667 76.885333 88.192l-.042667-.746667s66.325334 24.341334 110.677334-20.330666c54.186667-54.613333 42.666667-128 42.666666-128z"/><path d="m448 448c11.797333 0 42.666667-9.536 42.666667-21.333333 0-36.885333-48.085333-106.666667-149.333334-106.666667-40.554667 0-192-28.949333-192-170.666667a21.333333 21.333333 0 1 0 -42.666666 0c0 161.194667 136.768 213.333333 213.333333 213.333334 84.352 0 85.333333 61.397333 85.333333 64 0 11.797333 30.869333 21.333333 42.666667 21.333333z"/><path d="m341.354667 362.666667a21.333333 21.333333 0 0 0 3.562666-42.346667c-11.072-1.984-106.837333-22.656-89.130666-146.624a21.333333 21.333333 0 0 0 -42.261334-6.037333c-24 168.021333 122.794667 194.474667 124.288 194.730666 1.216.192 2.368.277333 3.541334.277334zm234.645333 85.333333c-11.797333 0-42.666667-9.536-42.666667-21.333333 0-36.885333 48.085333-106.666667 149.333334-106.666667 40.554667 0 192-28.949333 192-170.666667a21.333333 21.333333 0 1 1 42.666666 0c0 161.194667-136.768 213.333333-213.333333 213.333334-84.352 0-85.333333 61.397333-85.333333 64 0 11.797333-30.869333 21.333333-42.666667 21.333333z"/><path d="m682.645333 362.666667a21.333333 21.333333 0 0 1 -3.562666-42.346667c11.072-1.984 106.837333-22.656 89.130666-146.624a21.333333 21.333333 0 0 1 42.261334-6.037333c24 168.021333-122.794667 194.474667-124.288 194.730666a22.4 22.4 0 0 1 -3.541334.277334z"/></g><path d="m618.666667 490.666667c-21.333333 0-64 64-106.666667 64s-85.333333-64-106.666667-64c-19.221333 0-78.314667 62.869333-85.333333 85.333333 7.509333 102.08 85.333333 213.333333 85.333333 298.666667 0 0 64 85.333333 106.666667 85.333333s106.666667-64 106.666667-85.333333c0-85.333333 77.76-195.584 85.333333-298.666667-7.018667-22.464-66.112-85.333333-85.333333-85.333333z" fill="#a1887f"/><path d="m597.333333 789.333333s-8.448-42.666667-42.666666-42.666666h-85.333334c-36.224 0-42.666667 42.666667-42.666666 42.666666l-21.333334 85.333334c0 23.552 40.448 85.333333 64 85.333333h85.333334c23.552 0 64-61.781333 64-85.333333z" fill="#bcaaa4"/><path d="m597.333333 586.666667a32 32 0 1 0 64 0 32 32 0 1 0 -64 0z"/><path d="m362.666667 586.666667a32 32 0 1 0 64 0 32 32 0 1 0 -64 0z"/><path d="m797.76 501.248a93.589333 93.589333 0 0 1 -38.122667 14.656c4.117333-1.322667 50.709333-33.898667 46.058667-81.685333l-123.904 44.224c8.448 11.114667 14.677333 22.208 18.24 33.322666l-.042667-.746666c.021333-.021333 54.528 19.818667 97.770667-9.770667zm-579.456-67.029333c-6.272 43.818667 41.237333 79.829333 45.930667 81.621333 28.821333 4.181333 55.402667-3.498667 60.010666-4.906667 3.626667-10.816 9.749333-21.653333 17.984-32.469333zm308.778667 426.24-15.061334 15.125333-.021333-.042667v28.010667l.042667-.042667c17.642667 13.12 49.301333 29.162667 78.293333 29.504a152.704 152.704 0 0 0 26.005333-46.997333c-44.010667 16.661333-87.36-23.68-89.258666-25.557333zm-30.165334 0 15.061334 15.125333.021333-.042667v28.010667l-.042667-.042667c-17.642667 13.12-49.301333 29.162667-78.293333 29.504a152.704 152.704 0 0 1 -26.005333-46.997333c44.010667 16.661333 87.36-23.68 89.258666-25.557333z" fill="#8d6e63"/><path d="m554.666667 853.333333c0 11.797333-30.869333 42.666667-42.666667 42.666667-11.797333 0-42.666667-30.869333-42.666667-42.666667v-21.333333a21.333333 21.333333 0 0 1 21.333334-21.333333h42.666666a21.333333 21.333333 0 0 1 21.333334 21.333333z" fill="#3e2723"/></svg>