<svg height="200" viewBox="0 0 1024 1024" width="200" xmlns="http://www.w3.org/2000/svg"><path d="m727.445333 570.069333c1.962667 9.578667 1.728 19.072 1.429334 28.864a126.848 126.848 0 0 1 -5.44 28.864c-2.88 9.344-3.712 21.205333-12.608 27.477334-8.426667 6.250667-19.2 10.752-33.728 7.701333l-2.752-3.242667c-1.130667-14.613333.426667-22.912 2.816-30.677333 2.005333-7.701333 10.666667-10.88 16.042666-17.173333 5.248-6.165333 10.432-12.8 15.488-19.882667 5.397333-6.954667 9.834667-14.634667 14.549334-22.528zm49.6 42.666667c1.962667 9.578667 1.728 19.072 1.429334 28.864a126.848 126.848 0 0 1 -5.44 28.864c-2.88 9.344-3.712 21.205333-12.608 27.477333-8.426667 6.250667-19.2 10.752-33.728 7.701334l-2.752-3.242667c-1.130667-14.613333.426667-22.912 2.816-30.677333 2.005333-7.701333 10.666667-10.88 16.042666-17.173334 5.248-6.165333 10.432-12.8 15.488-19.882666 5.397333-6.954667 9.834667-14.634667 14.549334-22.528zm-106.666666-57.770667c1.962667 9.578667 1.728 19.072 1.429333 28.864a126.848 126.848 0 0 1 -5.44 28.864c-2.88 9.344-3.712 21.205333-12.608 27.477334-8.426667 6.250667-19.2 10.752-33.728 7.701333l-2.752-3.242667c-1.130667-14.613333.426667-22.912 2.816-30.677333 2.005333-7.68 10.666667-10.88 16.042667-17.173333 5.248-6.165333 10.432-12.778667 15.488-19.861334 5.397333-6.976 9.834667-14.656 14.549333-22.549333zm-64 0c1.962667 9.578667 1.728 19.072 1.429333 28.864a126.848 126.848 0 0 1 -5.44 28.864c-2.88 9.344-3.712 21.205333-12.608 27.477334-8.426667 6.250667-19.2 10.752-33.728 7.701333l-2.752-3.242667c-1.130667-14.613333.426667-22.912 2.816-30.677333 2.005333-7.68 10.666667-10.88 16.042667-17.173333 5.248-6.165333 10.432-12.778667 15.488-19.861334 5.397333-6.976 9.834667-14.656 14.549333-22.549333zm-49.6-6.229333c1.962667 9.578667 1.728 19.072 1.429333 28.864a126.848 126.848 0 0 1 -5.44 28.864c-2.88 9.344-3.712 21.205333-12.608 27.477333-8.426667 6.250667-19.2 10.752-33.728 7.701334l-2.752-3.242667c-1.130667-14.613333.426667-22.912 2.816-30.677333 2.005333-7.701333 10.666667-10.88 16.042667-17.173334 5.248-6.165333 10.432-12.8 15.488-19.882666 5.397333-6.954667 9.834667-14.634667 14.549333-22.528zm181.504-37.376c-.810667-9.152-1.514667-17.984-3.392-26.602667a295.68 295.68 0 0 0 -5.418667-24.576c-2.154667-8-8.597333-14.592-7.082667-22.421333 1.194667-8 3.349333-16.170667 10.645334-28.885333l3.925333-1.749334c14.4 3.498667 22.208 12.202667 27.114667 21.504 5.312 9.450667.981333 20.522667-.469334 30.208a124.864 124.864 0 0 1 -7.509333 28.394667c-3.968 8.96-7.829333 17.6-13.717333 25.408zm-73.664 0c-.810667-9.152-1.514667-17.984-3.392-26.602667a295.68 295.68 0 0 0 -5.418667-24.576c-2.154667-8-8.597333-14.592-7.082667-22.421333 1.194667-8 3.349333-16.170667 10.645334-28.885333l3.925333-1.749334c14.4 3.498667 22.208 12.202667 27.114667 21.504 5.312 9.450667.981333 20.522667-.469334 30.208a124.864 124.864 0 0 1 -7.509333 28.394667c-3.968 8.96-7.829333 17.6-13.717333 25.408zm-64-2.666667c-.810667-9.152-1.514667-17.984-3.392-26.602666a295.68 295.68 0 0 0 -5.418667-24.576c-2.154667-8-8.597333-14.592-7.082667-22.421334 1.194667-8 3.349333-16.170667 10.645334-28.885333l3.925333-1.749333c14.4 3.498667 22.208 12.202667 27.114667 21.504 5.312 9.450667.981333 20.522667-.469334 30.208a125.162667 125.162667 0 0 1 -7.509333 28.394666c-3.968 8.96-7.829333 17.6-13.717333 25.408zm-54.336-21.333333c-.810667-9.152-1.514667-17.984-3.392-26.602667a295.68 295.68 0 0 0 -5.418667-24.576c-2.154667-8-8.597333-14.592-7.082667-22.421333 1.194667-8 3.349333-16.170667 10.645334-28.885333l3.925333-1.749334c14.4 3.498667 22.208 12.202667 27.114667 21.504 5.312 9.450667.981333 20.522667-.469334 30.208a125.162667 125.162667 0 0 1 -7.509333 28.394667c-3.968 8.96-7.829333 17.6-13.717333 25.408zm-52.330667-21.333333c-.810667-9.152-1.514667-17.984-3.392-26.602667a295.68 295.68 0 0 0 -5.418667-24.576c-2.154667-8-8.597333-14.592-7.082666-22.421333 1.194667-8 3.349333-16.170667 10.645333-28.885334l3.925333-1.749333c14.4 3.498667 22.208 12.202667 27.114667 21.504 5.312 9.450667.981333 20.522667-.469333 30.208a125.162667 125.162667 0 0 1 -7.509334 28.394667c-3.968 8.96-7.829333 17.6-13.717333 25.408zm308.330667 24c-.810667-9.152-1.514667-17.984-3.392-26.602667a295.68 295.68 0 0 0 -5.418667-24.576c-2.154667-8-8.597333-14.592-7.082667-22.421333 1.194667-8 3.349333-16.170667 10.645334-28.885334l3.925333-1.749333c14.4 3.498667 22.208 12.202667 27.114667 21.504 5.312 9.450667.981333 20.522667-.469334 30.208a124.864 124.864 0 0 1 -7.509333 28.394667c-3.968 8.96-7.829333 17.6-13.717333 25.408zm54.336-45.333334c-.810667-9.152-1.514667-17.984-3.392-26.602666a295.68 295.68 0 0 0 -5.418667-24.576c-2.154667-8-8.597333-14.592-7.082667-22.421334 1.194667-8 3.349333-16.170667 10.645334-28.885333l3.925333-1.749333c14.4 3.498667 22.208 12.202667 27.114667 21.504 5.312 9.450667.981333 20.522667-.469334 30.208a125.162667 125.162667 0 0 1 -7.509333 28.394666c-3.968 8.96-7.829333 17.6-13.717333 25.408z" fill="#ffc107"/><path d="m213.333333 896s-85.333333-149.333333-64-448 213.333334-298.666667 256-298.666667 170.666667 42.666667 213.333334 42.666667 170.666667-21.333333 192-21.333333 106.666667-21.333333 106.666666 106.666666v85.333334s-64 64-149.333333 64h-320l-42.666667 85.333333s21.333333 277.333333 234.666667 384z" fill="#63560a"/><path d="m768 661.333333c-170.666667-64-256-106.666667-298.666667-128s-64-21.333333-21.333333-85.333333c0 0-64 42.666667-149.333333 42.666667 42.666667 64 64 21.333333 170.666666 85.333333 89.088 53.461333 267.370667 106.88 323.754667 123.050667 11.093333-19.562667-25.088-37.717334-25.088-37.717334z" fill="#ff1744"/><path d="m298.666667 490.666667c-12.010667 3.008-26.816 5.546667-42.666667 7.957333v43.157333c17.408-2.517333 33.706667-5.226667 47.893333-8.490666 48.64-.874667 90.581333-13.504 120.512-25.834667.170667-16.746667 6.378667-36.522667 23.594667-59.456 0 0-64 42.666667-149.333333 42.666667z" fill="#d50000"/><path d="m810.666667 170.666667c-21.333333 0-149.333333 21.333333-192 21.333333-27.498667 0-90.282667-17.642667-142.997334-30.229333-78.08-45.162667-113.002666-33.770667-113.002666-33.770667s-106.666667 0-106.666667 128c0 42.666667-21.333333 64-21.333333 64s-42.666667 42.666667-42.666667 149.333333c0 85.333333 21.333333 128 21.333333 128s21.333333 64 85.333334 85.333334l405.333333 64s85.333333 21.333333 106.666667-42.666667c0 0-234.666667-64-341.333334-128s-128-21.333333-170.666666-85.333333c85.333333 0 149.333333-42.666667 149.333333-42.666667h256c149.333333 0 213.333333-85.333333 213.333333-85.333333v-85.333334c0-128-85.333333-106.666667-106.666666-106.666666z" fill="#827717"/><path d="m469.333333 576c-65.92-39.552-99.221333-38.528-125.141333-46.997333-5.610667-2.538667-12.650667-5.333333-20.010667-10.090667a75.690667 75.690667 0 0 1 -8.234666-6.912h-.725334a77.162667 77.162667 0 0 1 -16.533333-21.333333s-21.333333 0-42.666667-21.333334l-4.202666-4.202666c-8.981333 16.490667 5.013333 39.744 9.792 46.869333h-.042667l.533333.789333.512.746667.554667.789333c3.669333 5.504 7.296 10.282667 10.922667 14.784 28.501333 35.264 55.786667 41.344 82.24 47.082667 21.226667 4.608 47.637333 10.325333 91.050666 36.373333 93.418667 56.042667 273.578667 110.208 333.44 127.338667 12.757333-6.869333 23.850667-17.941333 29.845334-35.904 0 0-234.666667-64-341.333334-128z" fill="#423603"/><path d="m298.666667 256c0-47.125333 26.389333-85.333333 85.333333-85.333333 85.333333 0 149.333333 85.333333 149.333333 85.333333s-42.666667 106.666667-149.333333 106.666667c-58.944 0-85.333333-59.541333-85.333333-106.666667zm618.666666 42.666667s-37.333333 57.344-92.245333 80.746666c-28.757333 13.952-68.586667 25.92-121.088 25.92h-268.906667l-10.752 7.168c-.554666.362667-61.888 40.682667-125.674666 35.498667-23.594667-1.92-39.402667 8.234667-46.869334 17.130667l4.202667 4.202666c21.333333 21.333333 42.666667 21.333333 42.666667 21.333334 85.333333 0 149.333333-42.666667 149.333333-42.666667h256c8.789333 0 17.258667-.341333 25.450667-.917333 2.752-.170667 5.312-.490667 8-.746667 5.354667-.469333 10.666667-1.002667 15.765333-1.706667 2.986667-.405333 5.824-.896 8.725333-1.365333 4.544-.746667 9.045333-1.536 13.376-2.410667a357.525333 357.525333 0 0 0 20.458667-5.013333c2.645333-.746667 5.290667-1.472 7.829333-2.261333 3.861333-1.194667 7.552-2.432 11.157334-3.733334 2.282667-.810667 4.650667-1.6 6.848-2.453333 3.861333-1.450667 7.530667-3.029333 11.136-4.586667 1.706667-.746667 3.52-1.450667 5.184-2.218666 5.077333-2.325333 9.941333-4.714667 14.506666-7.125334 1.194667-.64 2.218667-1.301333 3.370667-1.92 3.349333-1.877333 6.677333-3.712 9.728-5.589333 1.706667-1.045333 3.242667-2.090667 4.885333-3.114667 2.282667-1.450667 4.586667-2.922667 6.698667-4.373333l4.650667-3.306667c1.877333-1.344 3.712-2.709333 5.44-4.010666l4.074666-3.2c1.578667-1.301333 3.093333-2.517333 4.501334-3.733334l3.456-2.965333 3.712-3.392c.917333-.853333 1.898667-1.749333 2.709333-2.538667l3.114667-3.114666 1.898666-1.92c1.344-1.386667 2.453333-2.666667 3.392-3.712a1.472 1.472 0 0 1 -.448.256c-.234666-.042667 3.712-4.16 3.712-4.16s.661333-24 0-64z" fill="#544b09"/><path d="m448 725.333333h-64v42.666667l42.666667 42.666667 42.666666-21.333334zm42.666667 85.333334-42.666667 21.333333v42.666667h64v-42.666667zm-128-85.333334v42.666667l-42.666667 21.333333-42.666667-42.666666 21.333334-42.666667zm21.333333 64-42.666667 21.333334 21.333334 64h64v-42.666667zm-106.666667-85.333333-21.333333 42.666667-42.666667-42.666667 21.333334-42.666667zm42.666667 106.666667-42.666667 42.666666 21.333334 21.333334h42.666666zm-42.666667-42.666667 21.333334 42.666667h-42.666667zm256 64v42.666667h42.666667z" fill="#282302"/><path d="m512 192 42.666667 42.666667 21.333333-21.333334zm64 42.666667 21.333333-21.333334h64v42.666667zm106.666667-21.333334v42.666667l85.333333-21.333333 21.333333-42.666667z" fill="#9e9d24"/><path d="m469.333333 256s-42.666667 42.666667-85.333333 42.666667-42.666667-42.666667-42.666667-42.666667 0-42.666667 42.666667-42.666667 85.333333 42.666667 85.333333 42.666667z" fill="#ffeb3b"/><path d="m405.333333 256c0 23.552-10.666667 42.666667-10.666666 42.666667s-10.666667-19.114667-10.666667-42.666667 10.666667-42.666667 10.666667-42.666667 10.666667 19.114667 10.666666 42.666667z" fill="#263238"/><path d="m833.770667 215.850667c16.298667 6.890667 40.917333 61.525333 40.917333 61.525333s-49.450667 4.309333-65.749333-2.517333a32 32 0 0 1 24.832-59.008z" fill="#282302"/></svg>