<svg height="200" viewBox="0 0 1024 1024" width="200" xmlns="http://www.w3.org/2000/svg"><path d="m277.333333 704v149.44s0 42.56 42.666667 42.56h85.333333s0-42.666667-42.666666-42.666667v-85.333333z" fill="#b0bec5"/><path d="m490.666667 640c-42.666667 64-128 128-128 128l-85.333334-64s64-85.333333 64-192zm149.333333 0v213.44s0 42.56 42.666667 42.56h85.333333s0-42.666667-42.666667-42.666667v-277.333333z" fill="#b0bec5"/><g fill="#cfd8dc"><path d="m576 640v213.44s0 42.56 42.666667 42.56h85.333333s0-42.666667-42.666667-42.666667v-213.333333z"/><path d="m576 682.666667c-64 0-128-42.666667-128-42.666667s-64-42.666667-106.666667 21.333333-106.666667 106.666667-106.666666 106.666667l-85.333334-64s64-85.333333 64-192 106.666667-128 106.666667-128h170.666667l64-42.666667 64-170.666666s21.333333-42.624 64-42.624h42.666666s55.168 3.648 85.333334 64c21.333333 42.666667 106.666667 64 106.666666 64s0 106.624-128 106.624c-42.666667 0-42.666667 21.333333-42.666666 42.666666v128c0 64-64 106.666667-85.333334 128"/><path d="m149.333333 704v149.44s0 42.56 42.666667 42.56h85.333333s0-42.666667-42.666666-42.666667v-85.333333z"/></g><path d="m746.666667 533.333333v-128c0-21.333333 0-42.666667 42.666666-42.666666 0 0 64-106.666667 21.333334-170.624-30.165333-60.352-85.333333-64-85.333334-64h-42.666666c-42.666667 0-64 42.624-64 42.624l-64 170.666666-64 42.666667h-170.666667s-106.666667 21.333333-106.666667 128-64 192-64 192 149.333333 21.333333 192-42.666667 106.666667-21.333333 106.666667-21.333333 58.901333 42.666667 128 42.666667 170.666667-19.093333 170.666667-149.333334z" fill="#cc6c25"/><path d="m640 192-21.333333 128s21.333333 64 64 85.333333 85.333333 0 85.333333-64v-42.666666l-64-128z" fill="#894415"/><path d="m804.416 219.584c8.341333 8.341333 8.341333 21.824 0 30.165333s-36.416 6.250667-36.416 6.250667-2.090667-28.074667 6.250667-36.416 21.824-8.341333 30.165333 0z" fill="#3e2723"/><path d="m917.333333 256.042667s-14.058667-3.584-32.128-10.581334l-4.288 4.288a21.312 21.312 0 0 0 0 30.165334l23.552 23.552c12.693333-24.554667 12.864-47.424 12.864-47.424z" fill="#5d4037"/><path d="m597.333333 227.541333-42.666666 113.792-64 42.666667h-170.666667s-46.208 6.272-77.781333 46.250667c17.024 27.776 78.229333 133.802667 141.248 198.272 33.344-9.216 64.533333 11.477333 64.533333 11.477333s25.706667 17.109333 60.8 29.653333a149.269333 149.269333 0 0 0 88.533333-136.32z" fill="#6d350f"/><path d="m277.312 448a21.056 21.056 0 0 1 -8.64-1.834667c-3.626667-1.621333-89.344-40.576-114.112-125.973333-16.256-56-2.453333-117.482667 41.024-182.698667a21.354667 21.354667 0 0 1 35.498667 23.68c-36.096 54.122667-48.085333 103.552-35.648 146.837334 19.029333 66.261333 123.84 75.669333 124.565333 75.989333 10.709333 4.842667-18.410667 40.618667-23.210667 51.370667a21.376 21.376 0 0 1 -19.477333 12.629333z" fill="#6d350f"/></svg>