<svg height="200" viewBox="0 0 1024 1024" width="200" xmlns="http://www.w3.org/2000/svg"><path d="m427.050667 176.192a256.213333 256.213333 0 0 0 -43.413334-22.08c-22.762667 16.064-44.224 33.770667-63.594666 54.08a448.256 448.256 0 0 0 -37.141334 45.098667c7.850667 15.658667 13.290667 33.578667 14.997334 53.909333 31.018667-50.538667 72.896-96.085333 129.152-131.008z" fill="#3949ab"/><path d="m853.333333 256c0 82.453333-42.666667 128-170.666666 128-82.453333 0-149.333333-45.546667-149.333334-128s66.88-149.333333 149.333334-149.333333c85.333333 0 170.666667 66.88 170.666666 149.333333z" fill="#7986cb"/><path d="m704 384s-341.333333-64-405.333333 341.333333l-42.666667 85.333334-42.666667-85.333334c0-64-69.205333-618.773333 490.666667-618.666666z" fill="#7986cb"/><path d="m512 341.333333c0 23.552 95.530667 42.666667 213.333333 42.666667s213.333333 0 213.333334-42.666667-95.530667-85.333333-213.333334-85.333333-213.333333 61.781333-213.333333 85.333333z" fill="#7986cb"/><path d="m512 341.333333c-128 42.666667-256 149.333333-298.666667 384l42.666667 85.333334 42.666667-85.333334c64-362.666667 394.752-341.546667 399.978666-341.717333.810667.021333 19.477333.384 26.688.384 101.269333 0 185.877333-.085333 207.701334-27.157333l5.632-15.509334s-243.392-61.077333-426.666667 0z" fill="#9fa8da"/><g fill="#3949ab"><path d="m85.333333 853.333333a21.333333 21.333333 0 1 0 42.666667 0 21.333333 21.333333 0 1 0 -42.666667 0z"/><path d="m384 853.333333a21.333333 21.333333 0 1 0 42.666667 0 21.333333 21.333333 0 1 0 -42.666667 0z"/><path d="m296.448 295.317333c30.442667-46.741333 71.296-89.109333 126.357333-121.770666-31.018666-18.901334-91.690666-45.546667-188.138666-45.546667-21.333333 0-42.666667 0-42.666667 21.333333 0 19.584 89.770667 57.344 104.448 145.984zm-211.114667 558.016s12.501333 30.165333 42.666667 0c21.333333-21.333333 128 0 128-42.666666l-42.666667-85.333334s-128 42.666667-128 128zm213.333334-128-42.666667 85.333334c0 42.666667 106.666667 21.333333 128 42.666666 30.165333 30.165333 42.666667 0 42.666667 0 0-85.333333-128-128-128-128zm404.330666-379.008s-20.330667 87.658667-143.36 153.685334c-18.794667 10.090667-38.933333 17.429333-47.637333-2.026667-7.637333-17.045333 47.082667-53.269333 22.613333-146.282667-3.498667-13.290667-2.261333-22.037333 19.072-43.370666 54.336-21.333333 128.661333-.661333 128.661334-.661334z"/><path d="m533.333333 338.005333a32 32 0 1 0 64 0 32 32 0 1 0 -64 0z"/><path d="m640 338.005333a32 32 0 1 0 64 0 32 32 0 1 0 -64 0z"/></g><path d="m746.666667 234.666667a21.333333 21.333333 0 1 0 42.666666 0 21.333333 21.333333 0 1 0 -42.666666 0z"/></svg>