<svg height="200" viewBox="0 0 1024 1024" width="200" xmlns="http://www.w3.org/2000/svg"><g fill="#42a5f5"><path d="m192 277.333333h298.666667v42.666667h-341.333334s-47.594667 8-84.757333 23.872c.042667.298667.256.490667.298667.789333h-.128c-.234667-1.109333-.746667-2.133333-.746667-3.328 0-42.666667 128-64 128-64z"/><path d="m213.333333 478.506667 277.333334-170.666667v42.666667s-19.221333 12.885333-40.128 35.008l-255.125334 156.992s-27.690667 27.733333-47.573333 59.456c-13.952-43.84 65.493333-123.456 65.493333-123.456zm618.666667-201.173334h-298.666667v42.666667h341.333334s47.594667 8 84.757333 23.872c-.042667.298667-.256.490667-.298667.789333h.128c.234667-1.109333.746667-2.133333.746667-3.328 0-42.666667-128-64-128-64z"/><path d="m810.666667 478.506667-277.333334-170.666667v42.666667s19.221333 12.885333 40.128 35.008l255.125334 156.992s27.690667 27.733333 47.573333 59.456c13.952-43.84-65.493333-123.456-65.493333-123.456z"/></g><path d="m64.576 343.872c37.162667-15.872 84.757333-23.872 84.757333-23.872h320v8.789333c-.298667.128-134.229333 55.210667-192 55.210667-62.656 0-206.677333-.106667-212.757333-40.128zm385.962667 41.621333c-25.642667 24.725333-42.965333 64.896-45.205334 71.658667-21.333333 64-229.013333 203.306667-256 149.333333-.704-1.408-1.024-3.008-1.493333-4.544 19.904-31.722667 47.573333-59.456 47.573333-59.456zm508.885333-41.621333c-37.162667-15.872-84.757333-23.872-84.757333-23.872h-320v8.789333c.298667.128 134.208 55.210667 192 55.210667 62.656 0 206.677333-.106667 212.757333-40.128zm-385.962667 41.621333c25.642667 24.725333 42.965333 64.896 45.205334 71.658667 21.333333 64 229.013333 203.306667 256 149.333333.704-1.408 1.024-3.008 1.493333-4.544-19.904-31.722667-47.573333-59.456-47.573333-59.456z" fill="#90caf9"/><path d="m533.333333 874.666667c0 23.552-21.333333 21.333333-21.333333 21.333333s-21.333333 2.218667-21.333333-21.333333l-21.333334-405.333334a42.666667 42.666667 0 0 1 85.333334 0z" fill="#9fa8da"/><path d="m554.666667 170.666667c0 23.552-19.114667 85.333333-42.666667 85.333333s-42.666667-61.781333-42.666667-85.333333 19.114667-42.666667 42.666667-42.666667 42.666667 19.114667 42.666667 42.666667z" fill="#004d40"/><path d="m512 160.256a52.821333 52.821333 0 0 0 -32-10.922667 53.333333 53.333333 0 1 0 0 106.666667h32c-24.661333-35.328-12.885333-86.016 0-95.744zm32-10.922667c-12.053333 0-23.061333 4.16-32 10.922667 12.885333 9.728 24.661333 63.424 0 95.744h32a53.333333 53.333333 0 1 0 0-106.666667z" fill="#4caf50"/><path d="m512 426.666667a42.666667 42.666667 0 0 0 -42.666667 42.666666l2.24 42.666667h80.832l2.261334-42.666667a42.666667 42.666667 0 0 0 -42.666667-42.666666z" fill="#311b92"/><path d="m477.184 618.666667h69.632l4.48-85.333334h-78.592z" fill="#3949ab"/><path d="m576 320c0 42.666667-21.333333 106.666667-64 106.666667s-64-64-64-106.666667c0-35.328 0-64 64-64s64 28.672 64 64zm-64 106.666667a42.666667 42.666667 0 0 0 -42.666667 42.666666l3.370667 64h78.592l3.370667-64a42.666667 42.666667 0 0 0 -42.666667-42.666666z" fill="#283593"/><path d="m481.685333 704h60.629334l4.501333-85.333333h-69.632z" fill="#5c6bc0"/><path d="m486.165333 789.333333h51.669334l4.48-85.333333h-60.629334z" fill="#7986cb"/></svg>