<svg height="200" viewBox="0 0 1024 1024" width="200" xmlns="http://www.w3.org/2000/svg"><path d="m533.333333 620.010667 21.333334 169.322666" fill="#dd2c00"/><path d="m704 810.666667c-21.333333 0-42.666667 21.333333-42.666667 42.666666l-96-21.333333c-10.666667 0-32-14.336-32-32a32 32 0 0 1 32-32h117.333334c-21.333333 21.333333 21.333333 42.666667 21.333333 42.666667z" fill="#dd2c00"/><path d="m661.333333 853.333333c-21.333333 0-42.666667 21.333333-42.666666 42.666667l-96-21.333333c-10.666667 0-32-14.336-32-32a32 32 0 0 1 32-32h117.333333c-21.333333 21.333333 21.333333 42.666667 21.333333 42.666666z" fill="#ff3d00"/><path d="m746.666667 362.709333s149.333333 63.957334 149.333333 170.624c0 0 21.333333 170.709333-277.333333 192.042667s-298.666667-42.666667-320-64c-21.333334-21.376-128-134.698667-128-134.698667s234.688-121.344 426.666666-121.301333c85.333333 0 149.333333-42.666667 149.333334-42.666667z" fill="#bcaaa4"/><path d="m896 533.333333c0-106.666667-149.333333-170.624-149.333333-170.624s-63.978667 42.624-149.269334 42.666667c.853334.874667 149.269334 63.957333 85.269334 149.290667 85.333333 30.677333 110.677333 74.666667 127.594666 119.658666 96.021334-57.450666 85.738667-140.992 85.738667-140.992z" fill="#795548"/><path d="m256 618.666667 42.666667 42.709333s0-21.376 21.333333-42.709333-64 0-64 0zm341.397333-213.290667c1.493333 0 2.944-.106667 4.437334-.128-1.514667.021333-2.986667.128-4.501334.128-191.978667-.042667-490.666667 106.666667-490.666666 106.666667s53.333333 67.968 118.421333 47.104c102.848-32.938667 267.989333-69.184 461.312-85.397334-26.816-41.450667-88.469333-67.818667-89.002667-68.373333z" fill="#4e342e"/><path d="m597.333333 224a96 96 0 1 0 192 0 96 96 0 1 0 -192 0z" fill="#4caf50"/><path d="m597.333333 213.376s-21.333333 85.333333 0 192c106.666667 42.666667 149.333333-42.666667 149.333334-42.666667s-42.666667-21.333333 21.333333-85.333333z" fill="#4caf50"/><path d="m769.002667 373.824c-13.397333-7.274667-22.336-11.114667-22.336-11.114667s-8.170667-4.096-12.010667-14.037333c-21.674667 20.757333-67.392 46.229333-144.533333 6.698667a486.4 486.4 0 0 0 7.189333 49.898666c24.938667 9.536 47.317333 13.44 67.178667 13.44 51.093333 0 85.589333-25.429333 104.512-44.885333z" fill="#efebe9"/><path d="m917.333333 277.333333c0 11.776-10.666667 18.325333-21.333333 21.333334-11.349333 3.178667-21.333333-9.557333-21.333333-21.333334a21.333333 21.333333 0 1 1 42.666666 0z" fill="#fbc02d"/><path d="m789.333333 213.376s35.328 42.666667 106.666667 42.666667c21.333333 0 0 42.666667 0 42.666666s-86.677333 27.626667-150.677333 6.293334c36.672-25.002667 44.010666-70.293334 44.010666-91.626667z" fill="#fbc02d"/><path d="m740.416 198.250667c8.341333 8.341333 6.250667 36.416 6.250667 36.416s-28.074667 2.090667-36.416-6.250667-6.250667-36.416-6.250667-36.416 28.074667-2.090667 36.416 6.250667z" fill="#004d40"/><path d="m803.312948 254.303614a10.922667 5.461333 14.465 1 0 21.152845 5.456714 10.922667 5.461333 14.465 1 0 -21.152845-5.456714z" fill="#6b4c07"/><path d="m683.392 469.312-.725333.021333c-191.978667 0-533.674667 106.666667-533.674667 106.666667s48.341333 68.010667 111.253333 59.114667c110.741334-15.616 286.442667-39.658667 422.421334-80.448 24.298667-32.405333 17.962667-61.568.725333-85.354667z" fill="#a1887f"/></svg>