<svg height="200" viewBox="0 0 1024 1024" width="200" xmlns="http://www.w3.org/2000/svg"><path d="m938.666667 352c0-123.712-100.288-224-224-224a222.933333 222.933333 0 0 0 -145.152 53.568c-37.802667-12.629333-111.722667-32.234667-206.848-32.234667 0 0-277.333333-6.656-277.333334 277.333334 0 126.314667 33.258667 201.557333 42.666667 256 10.88 62.954667 19.712 215.104 19.712 215.104a21.333333 21.333333 0 0 0 21.248 19.562666h151.04v-213.333333s29.44 21.333333 64 21.333333 64-21.333333 64-21.333333v192a21.333333 21.333333 0 0 0 21.333333 21.333333h149.333334s10.922667-201.344 21.333333-256c10.410667-54.656 42.666667-128 42.666667-128 172.010667 0 170.666667 128 170.666666 128v21.333334c0 23.530667-19.136 42.666667-42.666666 42.666666s-42.666667-19.136-42.666667-42.666666h-85.333333c0 70.592 57.408 128 128 128s128-57.408 128-128v-320h-.64c.277333-3.52.64-6.997333.64-10.666667z" fill="#78909c"/><path d="m789.333333 362.666667a21.333333 21.333333 0 1 0 42.666667 0 21.333333 21.333333 0 1 0 -42.666667 0z" fill="#37474f"/><path d="m405.333333 320c0 113.706667 57.365333 226.346667 170.666667 277.333333 0 0 45.845333-228.8 64-298.666666 0 0 21.333333-17.685333 21.333333-53.333334 0-64.810666-52.522666-117.333333-117.333333-117.333333s-138.666667 65.685333-138.666667 192z" fill="#b0bec5"/><path d="m930.218667 574.677333a153.6 153.6 0 0 1 -21.802667-4.437333 104.853333 104.853333 0 0 1 -14.101333-4.224c-4.885333-1.877333-10.133333-3.285333-15.189334-5.866667a194.197333 194.197333 0 0 1 -30.677333-16.725333 214.058667 214.058667 0 0 1 -47.402667-42.752 174.506667 174.506667 0 0 1 -12.138666-16.426667c-2.688-4.117333-3.349333-5.696-3.648-6.08l-.298667.213334a20.928 20.928 0 0 0 -16.96-9.045334 21.333333 21.333333 0 0 0 -21.333333 21.333334 20.906667 20.906667 0 0 0 4.352 12.288l-.298667.213333 1.813333 2.005333c.256.277333.490667.576.768.832 1.152 1.237333 2.56 2.730667 4.266667 4.394667a242.602667 242.602667 0 0 0 81.173333 52.010667 212.992 212.992 0 0 0 36.373334 10.624c5.802667 1.493333 11.669333 1.834667 17.045333 2.645333 5.376.874667 10.538667 1.024 15.274667 1.152 9.429333.64 17.258667.064 22.698666-.32l8.533334-.512z" fill="#efebe9"/><path d="m618.666667 917.333333h-149.333334a21.056 21.056 0 0 1 -20.608-17.770666c3.626667-37.802667 35.2-67.562667 73.941334-67.562667 11.498667 0 22.272 2.837333 32 7.488a73.898667 73.898667 0 0 1 32-7.488 73.813333 73.813333 0 0 1 36.586666 9.984c-2.794666 42.538667-4.586666 75.349333-4.586666 75.349333zm-426.666667-10.666666a32 32 0 0 1 64 0 32 32 0 0 1 64 0v-67.178667a73.898667 73.898667 0 0 0 -32-7.488c-11.434667 0-22.293333 2.581333-32 7.210667a74.154667 74.154667 0 0 0 -32-7.210667 74.624 74.624 0 0 0 -74.432 72.426667 21.141333 21.141333 0 0 0 19.392 12.906666h23.04zm369.152-316.736c-103.381333-53.888-155.818667-161.344-155.818667-269.930667 0-77.162667 27.626667-131.584 63.850667-162.346667a692.842667 692.842667 0 0 0 -53.44-6.250666c-31.722667 39.466666-53.077333 95.957333-53.077333 168.597333 0 134.826667 85.056 215.936 198.442666 270.314667zm-241.152 92.736v21.333333s29.44 21.333333 64 21.333333 64-21.333333 64-21.333333v-85.333333s-14.165333 64-128 64zm298.666667-405.333334c-11.776 0-21.333333 9.557333-21.333334 21.333334s21.333333 85.333333 21.333334 85.333333 21.333333-73.557333 21.333333-85.333333-9.557333-21.333333-21.333333-21.333334zm29.610666-85.632.938667 1.941334a120.277333 120.277333 0 0 1 5.418667 12.842666c1.002667 2.837333 1.877333 5.738667 2.666666 8.682667.362667 1.344.725333 2.688 1.045334 4.053333.682667 2.965333 1.194667 5.994667 1.642666 9.045334.192 1.301333.448 2.56.597334 3.882666.448 4.309333.746667 8.704.746666 13.184 0 2.816-.341333 5.312-.576 7.893334 11.626667-32.682667 21.077333-78.101333 6.144-119.893334a222.506667 222.506667 0 0 0 -52.288 18.453334h.021334a117.888 117.888 0 0 1 33.642666 39.914666z" fill="#546e7a"/><path d="m192 906.666667a32 32 0 0 1 64 0v10.666666h-64zm64 10.666666h64v-10.666666a32 32 0 0 0 -64 0zm234.666667 0h64v-10.666666a32 32 0 0 0 -64 0zm64 0h64v-10.666666a32 32 0 0 0 -64 0z" fill="#cfd8dc"/></svg>