<svg height="200" viewBox="0 0 1024 1024" width="200" xmlns="http://www.w3.org/2000/svg"><path d="m554.666667 512c30.314667-1.536 57.642667.170667 84.48 2.325333 26.709333 2.282667 52.522667 5.290667 77.952 8.170667 25.450667 2.88 50.432 5.781333 75.925333 7.786667 25.621333 2.133333 51.2 3.242667 81.642667 3.050666-18.794667 24.426667-47.381333 39.082667-76.288 46.997334-29.205333 7.829333-59.498667 9.130667-88.576 5.738666a281.664 281.664 0 0 1 -83.669334-23.317333c-26.197333-12.245333-51.2-27.776-71.466666-50.752z" fill="#6d4c41"/><path d="m533.333333 490.666667c36.501333-8.874667 71.530667-13.376 106.218667-17.216 34.645333-3.626667 68.8-6.208 102.485333-8.810667 33.664-2.730667 66.922667-5.141333 99.541334-9.728 32.725333-5.034667 64.490667-9.92 97.088-28.245333-5.568 18.389333-18.901333 33.877333-33.493334 46.677333-14.954667 12.629333-32.021333 22.293333-49.493333 29.909333-35.157333 15.04-72.149333 22.336-108.714667 25.194667-36.650667 2.773333-73.130667.938667-108.949333-4.864-35.776-6.122667-71.189333-15.488-104.682667-32.917333zm-64 21.333333c-20.266667 22.976-45.269333 38.506667-71.466666 50.752a281.664 281.664 0 0 1 -83.669334 23.317333c-29.077333 3.392-59.370667 2.112-88.576-5.738666-28.906666-7.914667-57.493333-22.570667-76.288-46.997334 30.442667.213333 56.021333-.917333 81.642667-3.050666 25.472-2.005333 50.453333-4.906667 75.925333-7.786667 25.429333-2.88 51.242667-5.866667 77.952-8.170667 26.837333-2.154667 54.165333-3.861333 84.48-2.325333z" fill="#6d4c41"/><path d="m490.666667 490.666667c-33.493333 17.429333-68.906667 26.794667-104.661334 32.917333-35.84 5.781333-72.32 7.616-108.949333 4.864-36.565333-2.858667-73.536-10.154667-108.714667-25.194667-17.472-7.616-34.538667-17.301333-49.493333-29.909333-14.613333-12.8-27.946667-28.288-33.514667-46.677333 32.597333 18.325333 64.362667 23.210667 97.088 28.245333 32.618667 4.586667 65.877333 6.997333 99.541334 9.728 33.685333 2.602667 67.84 5.184 102.485333 8.810667 34.688 3.84 69.717333 8.341333 106.218667 17.216z" fill="#6d4c41"/><path d="m512 469.333333c43.264-13.781333 85.504-23.829333 127.36-33.749333 41.813333-9.749333 83.114667-19.050667 123.562667-29.376 40.384-10.474667 80.106667-21.632 117.504-37.12 37.290667-15.786667 72.661333-34.602667 100.906666-70.421333-.96 23.061333-11.306667 45.546667-25.045333 65.066666-14.037333 19.434667-32.021333 35.733333-51.264 49.258667-38.805333 27.029333-82.410667 43.946667-126.272 55.210667a575.786667 575.786667 0 0 1 -133.44 17.194666c-44.672.256-89.450667-3.370667-133.312-16.064zm0 0c-43.861333 12.693333-88.64 16.32-133.312 16.042667a573.482667 573.482667 0 0 1 -133.44-17.194667c-43.861333-11.264-87.466667-28.181333-126.272-55.210666-19.242667-13.525333-37.226667-29.802667-51.264-49.258667-13.738667-19.498667-24.085333-41.984-25.045333-65.045333 28.245333 35.818667 63.616 54.634667 100.906666 70.421333 37.397333 15.509333 77.12 26.645333 117.504 37.12 40.448 10.325333 81.749333 19.626667 123.562667 29.376 41.856 9.92 84.096 19.968 127.36 33.749333zm0 213.376a98.56 98.56 0 0 1 25.088 37.333334 104.533333 104.533333 0 0 1 .085333 74.666666 98.026667 98.026667 0 0 1 -25.173333 37.333334 98.261333 98.261333 0 0 1 -25.173333-37.333334 104.064 104.064 0 0 1 -6.826667-37.333333 105.728 105.728 0 0 1 6.912-37.333333 98.56 98.56 0 0 1 25.088-37.333334z" fill="#8d6e63"/><path d="m512 661.333333c7.061333 18.88 8.170667 35.498667 7.488 51.477334a155.178667 155.178667 0 0 1 -9.514667 45.098666 152.704 152.704 0 0 1 -22.4 40.298667c-9.962667 12.458667-21.76 24.277333-39.573333 33.834667-7.146667-18.922667-8.277333-35.584-7.552-51.541334.938667-15.850667 4.224-30.826667 9.6-45.034666s12.757333-27.669333 22.485333-40.256c9.962667-12.501333 21.738667-24.298667 39.466667-33.877334z" fill="#8d6e63"/><path d="m384 789.376c2.197333-19.093333 8.448-33.258667 15.957333-45.952a129.386667 129.386667 0 0 1 63.936-53.397333c13.802667-5.098667 28.885333-8.682667 48.106667-7.317334-2.133333 19.114667-8.384 33.301333-15.893333 45.973334a129.792 129.792 0 0 1 -64.064 53.269333c-13.824 5.098667-28.906667 8.682667-48.042667 7.424z" fill="#8d6e63"/><path d="m512 661.333333c17.728 9.578667 29.504 21.376 39.488 33.877334 9.728 12.586667 17.109333 26.048 22.485333 40.256s8.661333 29.184 9.6 45.034666c.704 15.957333-.426667 32.618667-7.552 51.541334-17.813333-9.557333-29.610667-21.376-39.552-33.834667a152.704 152.704 0 0 1 -22.4-40.298667 155.178667 155.178667 0 0 1 -9.514666-45.098666c-.725333-15.978667.384-32.597333 7.445333-51.477334z" fill="#8d6e63"/><path d="m640 789.376c-19.136 1.301333-34.218667-2.325333-48.064-7.402667a130.432 130.432 0 0 1 -36.416-21.354666 127.765333 127.765333 0 0 1 -27.626667-31.914667c-7.509333-12.693333-13.76-26.88-15.893333-45.994667 19.2-1.344 34.261333 2.24 48.106667 7.338667a127.957333 127.957333 0 0 1 36.373333 21.418667c10.645333 8.917333 19.925333 19.498667 27.584 31.978666 7.488 12.693333 13.738667 26.858667 15.936 45.930667z" fill="#8d6e63"/><path d="m576 576c16.490667 3.285333 27.306667 9.173333 36.501333 15.829333 8.938667 6.784 15.701333 14.592 20.714667 23.296 5.013333 8.661333 8.149333 18.261333 9.429333 28.992 1.344 11.050667.170667 22.144-2.645333 38.549334-17.194667 1.344-29.781333-5.077333-39.744-11.413334a72.96 72.96 0 0 1 -32-55.765333 78.762667 78.762667 0 0 1 7.744-39.488zm-128 0c7.146667 15.253333 8.341333 27.818667 7.744 39.488a72.96 72.96 0 0 1 -32 55.765333c-9.962667 6.336-22.549333 12.757333-39.744 11.413334-2.816-16.405333-3.989333-27.498667-2.645333-38.549334a75.050667 75.050667 0 0 1 30.144-52.288 88.256 88.256 0 0 1 36.501333-15.829333z" fill="#5d4037"/><path d="m448 533.333333c-.021333 21.290667-8.362667 38.997333-19.114667 54.122667a123.306667 123.306667 0 0 1 -42.176 35.925333 117.76 117.76 0 0 1 -54.464 13.568c-19.008-.192-38.442667-5.034667-54.912-18.282666 16.362667-13.461333 29.781333-22.165333 42.581334-30.506667 12.8-8.085333 24.768-15.146667 37.354666-21.589333a413.696 413.696 0 0 1 40.064-18.090667 326.826667 326.826667 0 0 1 50.666667-15.146667zm128 0c20.458667 4.373333 36.010667 9.536 50.666667 15.168 14.485333 5.674667 27.52 11.584 40.064 18.090667 12.586667 6.442667 24.554667 13.504 37.354666 21.589333 12.8 8.341333 26.218667 17.045333 42.581334 30.506667-16.469333 13.248-35.904 18.090667-54.933334 18.261333a117.546667 117.546667 0 0 1 -54.464-13.568 123.050667 123.050667 0 0 1 -42.176-35.925333c-10.730667-15.125333-19.072-32.832-19.093333-54.122667z" fill="#5d4037"/><path d="m533.333333 426.666667c21.994667-13.717333 42.197333-23.253333 61.76-32.298667l55.424-25.130667c17.386667-8.32 33.429333-16.533333 48.874667-26.965333 15.594667-10.346667 30.336-23.594667 47.274667-43.605333 9.706667 24.362667 4.864 53.461333-9.408 76.757333-14.250667 23.445333-36.245333 40.874667-59.413334 51.669333a175.658667 175.658667 0 0 1 -72.533333 16.384c-24.448-.064-49.045333-4.032-71.978667-16.810666zm-42.666666 0c-22.933333 12.778667-47.530667 16.746667-71.957334 16.789333a175.573333 175.573333 0 0 1 -72.533333-16.384c-23.168-10.794667-45.162667-28.224-59.413333-51.669333-14.293333-23.274667-19.136-52.373333-9.429334-76.736 16.938667 20.010667 31.68 33.258667 47.296 43.626666 15.445333 10.410667 31.488 18.645333 48.874667 26.965334l55.424 25.130666c19.541333 9.024 39.744 18.56 61.738667 32.277334z" fill="#bcaaa4"/><g fill="#a1887f"><path d="m512 469.333333c22.976-9.28 43.669333-14.250667 64.192-18.090666 20.458667-3.626667 40.384-5.824 60.309333-6.869334a497.024 497.024 0 0 1 60.416.298667c20.693333 1.536 41.706667 3.754667 65.770667 10.453333-16.362667 18.837333-36.501333 30.698667-57.450667 39.168-21.034667 8.298667-43.178667 12.842667-65.386666 13.952s-44.565333-1.066667-66.24-6.912c-21.632-6.122667-43.050667-15.125333-61.610667-32z"/><path d="m561.792 483.584a185.322667 185.322667 0 0 1 43.434667-3.008 144.298667 144.298667 0 0 1 33.450666 5.909333c10.410667 3.114667 20.266667 7.552 30.677334 13.589334 10.432 6.272 21.248 13.589333 34.645333 26.176-11.797333 14.037333-26.304 20.650667-40.896 23.765333a89.749333 89.749333 0 0 1 -80.042667-24.426667c-10.176-10.538667-18.965333-23.722667-21.269333-42.005333z"/><path d="m568.896 499.584c16.810667 2.304 28.16 7.125333 38.037333 12.8a81.6 81.6 0 0 1 37.312 46.698667c3.285333 10.368 4.885333 21.312 6.442667 38.250666-16.448 5.290667-30.826667 1.834667-42.453333-3.114666a73.685333 73.685333 0 0 1 -28.138667-21.973334 75.669333 75.669333 0 0 1 -14.528-31.509333 74.581333 74.581333 0 0 1 3.328-41.152zm-78.229333-30.250667c45.930667-23.424 91.648-42.88 136.96-62.634666 45.333333-19.456 90.24-38.506667 134.293333-58.496 44.010667-20.074667 87.210667-40.832 128.213333-65.088 40.96-24.405334 79.637334-51.456 112.533334-91.114667-8.490667 52.010667-44.010667 97.002667-82.709334 131.648-39.573333 34.858667-84.8 61.610667-131.605333 82.858667a741.930667 741.930667 0 0 1 -145.450667 47.957333c-49.834667 10.496-100.522667 17.493333-152.234666 14.869333z"/><path d="m512 469.333333c-18.56 16.874667-39.978667 25.877333-61.589333 32-21.696 5.845333-44.032 8.042667-66.24 6.912s-44.352-5.674667-65.386667-13.952c-20.949333-8.448-41.109333-20.330667-57.450667-39.168 24.064-6.698667 45.077333-8.917333 65.770667-10.453333a501.376 501.376 0 0 1 60.416-.298667c19.946667 1.045333 39.850667 3.242667 60.309333 6.869334 20.501333 3.84 41.194667 8.810667 64.170667 18.090666z"/><path d="m462.208 483.584c-2.304 18.282667-11.114667 31.466667-21.290667 42.005333a89.6 89.6 0 0 1 -80.042666 24.426667c-14.592-3.114667-29.098667-9.728-40.896-23.765333a191.765333 191.765333 0 0 1 34.645333-26.176 141.866667 141.866667 0 0 1 30.677333-13.589334c10.368-3.2 21.248-5.098667 33.450667-5.909333a185.429333 185.429333 0 0 1 43.456 3.008z"/><path d="m455.104 499.584c5.845333 16 5.546667 29.141333 3.328 41.152a75.413333 75.413333 0 0 1 -14.528 31.509333 73.472 73.472 0 0 1 -28.138667 21.973334c-11.626667 4.949333-26.026667 8.426667-42.453333 3.114666 1.536-16.938667 3.136-27.882667 6.442667-38.250666 3.242667-10.069333 7.744-18.752 13.909333-26.453334a84.906667 84.906667 0 0 1 23.402667-20.245333 99.306667 99.306667 0 0 1 38.037333-12.8zm78.229333-30.250667c-51.712 2.624-102.4-4.373333-152.234666-14.869333a741.930667 741.930667 0 0 1 -145.450667-47.957333c-46.805333-21.248-92.010667-48-131.605333-82.858667-38.698667-34.645333-74.218667-79.637333-82.709334-131.648 32.896 39.658667 71.573333 66.709333 112.533334 91.114667 41.002667 24.256 84.202667 44.992 128.213333 65.088 44.032 20.010667 88.96 39.04 134.293333 58.496 45.312 19.754667 91.029333 39.210667 136.96 62.634666z"/></g><path d="m597.333333 554.666667c0 104.725333-42.666667 170.666667-85.333333 170.666666-42.666667.042667-85.333333-65.941333-85.333333-170.666666s38.208-213.333333 85.333333-213.333334 85.333333 108.608 85.333333 213.333334z" fill="#6d4c41"/><path d="m554.666667 383.936c0 23.552-19.114667-.021333-42.666667-.021333s-42.666667 23.573333-42.666667.021333v-21.312a42.666667 42.666667 0 0 1 85.333334 0z" fill="#4e342e"/><path d="m533.333333 383.957333c0 11.797333-21.333333 42.666667-21.333333 42.666667s-21.333333-30.869333-21.333333-42.666667a21.333333 21.333333 0 1 1 42.666666 0z" fill="#ffeb3b"/></svg>