<svg height="200" viewBox="0 0 1024 1024" width="200" xmlns="http://www.w3.org/2000/svg"><path d="m576 341.333333c-192 0-341.333333 149.333333-341.333333 149.333334l-64 42.730666 64 45.824c85.888 61.226667 192.384 146.112 341.333333 146.112 149.333333 0 362.666667-149.333333 362.666667-213.333333s-213.333333-170.666667-362.666667-170.666667z" fill="#00bcd4"/><path d="m673.536 353.536a389.013333 389.013333 0 0 0 -33.536 158.464c0 68.629333 19.669333 134.848 51.2 190.613333 109.802667-37.952 247.466667-130.176 247.466667-190.613333s-149.333333-133.674667-265.130667-158.464z" fill="#4dd0e1"/><path d="m704 469.333333a42.666667 42.666667 0 1 0 85.333333 0 42.666667 42.666667 0 1 0 -85.333333 0z" fill="#fff"/><path d="m725.333333 469.333333a21.333333 21.333333 0 1 0 42.666667 0 21.333333 21.333333 0 1 0 -42.666667 0z" fill="#0277bd"/><path d="m576 341.333333c30.634667 0 63.936 4.544 97.536 12.202667-1.962667-10.474667-16.362667-81.173333-54.869333-118.869333-52.010667 2.666667-244.288 73.6-298.666667 128 12.458667 18.688 20.970667 33.365333 27.221333 45.312 60.053334-34.474667 139.690667-66.645334 228.778667-66.645334zm-490.666667 21.333334c21.333333 21.333333 42.666667 121.045333 42.666667 170.666666 0 49.344-21.333333 149.333333-42.666667 170.666667 64-21.333333 132.266667-91.050667 148.672-125.248l.661334.469333-42.666667-45.824 42.666667-42.730666s-42.666667-85.333333-149.333334-128zm537.792 425.856c-87.914667 3.349333-103.68-3.648-135.786666-9.898667 20.138667-38.848 137.664-148.010667 159.146666-136.917333l-1.898666 10.048c21.461333 11.114667-1.344 97.898667-21.461334 136.768z" fill="#006064"/><path d="m640 512c0-56 12.010667-110.506667 33.536-158.464-15.616-4.032-41.92-7.616-41.92-7.616-22.506667 53.013333-34.282667 108.757333-34.282667 166.08 0 70.528 17.365333 141.013333 50.986667 203.157333 13.781333-3.818667 29.44-7.082667 42.901333-12.565333-31.552-55.744-51.221333-121.962667-51.221333-190.592z" fill="#0097a7"/></svg>