<svg height="200" viewBox="0 0 1024 1024" width="200" xmlns="http://www.w3.org/2000/svg"><path d="m266.517333 535.744c.832-22.122667-9.706666-45.077333-31.850666-45.077333-64 0-106.666667-128-106.666667-128s-26.794667 35.882667-45.717333 84.288c40 34.88 107.562667 81.621333 184.341333 85.76.021333 1.024-.064 2.026667-.106667 3.029333zm-138.517333 168.256s42.666667-128 106.666667-128c20.48 0 31.018667-19.669333 31.850666-40.128-67.712 16.170667-141.098667 56.725333-184.405333 83.392 18.922667 48.661333 45.888 84.736 45.888 84.736z" fill="#5c6bc0"/><path d="m266.624 532.714667c-76.8-4.117333-144.362667-50.88-184.341333-85.76l-.042667.170666c-2.496 6.421333-4.885333 13.056-7.018667 19.882667l-.149333.469333a268.8 268.8 0 0 0 -5.589333 20.629334l-.448 2.261333c-1.258667 5.781333-2.261333 11.626667-3.072 17.493333-.234667 1.706667-.469333 3.413333-.661334 5.12a175.829333 175.829333 0 0 0 -1.301333 20.352c0 6.741333.512 13.504 1.258667 20.202667.192 1.749333.426667 3.456.661333 5.184.789333 5.76 1.770667 11.477333 2.986667 17.109333l.533333 2.602667c1.578667 6.933333 3.434667 13.802667 5.525333 20.501333l.042667.192a316.245333 316.245333 0 0 0 7.082667 20.117334c43.306667-26.645333 116.693333-67.2 184.405333-83.370667v-.128c.064-1.002667.149333-2.005333.128-3.029333z" fill="#1a237e"/><path d="m750.208 295.125333s-152.874667-103.125333-344.874667-103.125333c-170.666667 0-176 78.677333-170.666666 106.666667 3.989333 20.949333 64 149.333333 0 192z" fill="#f9a825"/><g fill="#ffc107"><path d="m234.666667 533.333333c64 42.666667 2.88 170.858667 0 192-4.010667 29.333333 0 106.666667 170.666666 106.666667 192 0 344.874667-103.082667 344.874667-103.082667z"/><path d="m953.749333 531.84s-82.346667-35.242667-122.218666-124.245333c-31.082667-90.453334-97.578667-151.594667-212.864-151.594667-213.333333 0-320 192-384 234.666667 0 0-21.333333 20.821333-21.333334 42.666666 0 16.448 21.333333 42.666667 21.333334 42.666667 64 42.666667 149.333333 213.333333 320 213.333333 257.792 0 399.082667-227.328 399.082666-227.328a21.312 21.312 0 0 0 0-30.165333z"/><path d="m953.749333 531.84s-82.346667-35.242667-122.218666-124.245333c-31.082667-90.453334-97.578667-151.594667-212.864-151.594667-213.333333 0-320 192-384 234.666667 0 0-21.333333 20.821333-21.333334 42.666666 0 16.448 21.333333 42.666667 21.333334 42.666667 64 42.666667 149.333333 213.333333 320 213.333333 257.792 0 399.082667-227.328 399.082666-227.328a21.312 21.312 0 0 0 0-30.165333z"/></g><path d="m283.050667 709.248c.768-16.64 5.312-49.749333 1.28-85.610667a740.842667 740.842667 0 0 0 -21.546667-23.104c-.874667 51.477334-27.562667 110.890667-28.117333 124.8-1.344 33.344 0 106.666667 170.666666 106.666667 3.136 0 6.165333-.256 9.28-.298667-115.52-3.2-133.269333-85.034667-131.562666-122.453333zm-48.384-218.581333c14.784-9.856 32-27.882667 52.138666-49.472 21.738667-42.325333 10.154667-91.242667 3.861334-111.872-14.677333-48 12.970667-133.290667 125.482666-136.981334-3.626666-.042666-7.168-.341333-10.816-.341333-170.666667 0-178.666667 77.333333-170.666666 106.666667 5.610667 20.586667 64 149.333333 0 192zm684.010666 20.330666c-18.325333-11.669333-75.008-83.690667-124.906666-83.690666-68.437334 0-89.770667 127.36-89.770667 127.36s60.010667 102.997333 75.669333 171.669333c36.650667-23.573333 44.330667-27.328 60.010667-41.344 5.162667-23.210667 9.984-126.314667 78.997333-173.994667z" fill="#3f51b5"/><path d="m810.666667 512a21.333333 21.333333 0 1 0 42.666666 0 21.333333 21.333333 0 1 0 -42.666666 0z"/><path d="m359.808 703.296-18.474667-233.962667-15.765333 199.808a680.768 680.768 0 0 0 34.24 34.154667zm71.530667 52.864-26.005334-329.493333-23.36 295.786666a346.453333 346.453333 0 0 0 49.365334 33.706667zm37.994666-357.909333-28.672 363.157333c18.261333 9.344 37.952 16.618667 59.050667 21.461333zm96.021334 390.784a424.298667 424.298667 0 0 0 63.530666-6.250667l-31.552-441.450667zm-32.021334-426.368-31.552 420.629333c16.725333 3.690667 34.218667 6.037333 52.885334 6.037333 3.605333 0 7.082667-.213333 10.645333-.298666zm128-42.666667-32 462.250667h2.517334a433.472 433.472 0 0 0 60.394666-15.658667z" fill="#ff9100"/></svg>