<svg height="200" viewBox="0 0 1024 1024" width="200" xmlns="http://www.w3.org/2000/svg"><path d="m627.712 755.989333c-41.066667-42.837333-54.08-73.322666-54.08-73.322666s-39.36-59.328-4.117333-101.824l-115.157334-.192c35.477333 42.517333-3.989333 102.016-3.989333 102.016s-13.12 30.741333-54.613333 73.877333c-1.514667-6.378667 3.349333 15.146667 9.237333 32.789333 21.333333 64 64 85.333333 106.666667 85.333334s85.333333-21.333333 106.666666-85.333334c5.930667-17.728 10.858667-39.616 9.386667-33.344z" fill="#00695c"/><path d="m618.666667 355.584s193.621333 235.541333 234.666666 358.656c42.666667 128 21.333333 213.333333-42.666666 170.666667-192.341334-95.573334-237.034667-202.24-237.034667-202.24s-42.666667-64 0-106.666667m-168.298667-220.416s-193.621333 235.541333-234.666666 358.656c-42.666667 128-21.333333 213.333333 42.666666 170.666667 192.341334-95.573334 237.034667-202.24 237.034667-202.24s42.666667-64 0-106.666667" fill="#90caf9"/><path d="m618.666667 512c-21.333333 64-64 128-106.666667 128s-85.333333-64-106.666667-128-21.632-127.786667-21.632-127.786667 8.426667-85.546666 106.965334-85.546666h42.666666c98.090667 0 107.008 85.333333 107.008 85.333333s-.341333 64-21.674666 128z" fill="#00796b"/><path d="m389.568 725.568c2.325333 14.144 5.546667 29.632 9.941333 45.568 35.370667 7.893333 72.896 12.544 112.106667 12.544a516.266667 516.266667 0 0 0 112.192-12.544c4.373333-15.936 7.594667-31.445333 9.92-45.589333a481.216 481.216 0 0 1 -122.112 15.466666 482.901333 482.901333 0 0 1 -122.048-15.445333zm12.714667-223.274667c.981333 3.221333 1.962667 6.464 3.050666 9.706667 3.434667 10.282667 7.466667 20.565333 11.925334 30.592a488.064 488.064 0 0 1 189.482666 0 343.402667 343.402667 0 0 0 14.976-40.298667 521.173333 521.173333 0 0 0 -109.717333-11.626666 521.173333 521.173333 0 0 0 -109.717333 11.626666zm-17.92-102.293333c.661333 10.325333 1.962667 25.088 4.586666 42.325333 37.888-10.026666 79.424-15.658666 123.050667-15.658666s85.162667 5.632 123.050667 15.658666a493.44 493.44 0 0 0 4.629333-42.325333 515.712 515.712 0 0 0 -127.68-16c-44.970667 0-87.872 5.824-127.637333 16zm170.666666 219.882667c.256-.234667.469333-.512.704-.746667-13.973333 12.885333-28.842667 20.864-43.733333 20.864s-29.76-7.978667-43.712-20.885333c.234667.234667.448.533333.704.746666.874667 22.741333-8.426667 44.010667-14.186667 54.976 18.773333 5.141333 38.208 7.829333 57.194667 7.829334 20.288 0 39.189333-3.114667 56.533333-9.066667-5.781333-11.306667-14.336-31.808-13.504-53.717333zm63.637334-363.882667c0 21.333333-64 42.666667-106.666667 42.666667s-106.666667-21.333333-106.666667-42.666667v.042667a64 64 0 0 1 64-64h85.333334a64 64 0 0 1 64 64z" fill="#004d40"/><path d="m448 213.333333a64 64 0 1 0 128 0 64 64 0 1 0 -128 0z" fill="#004d40"/><path d="m440.469333 585.578667c-51.541333 22.208-57.109333 75.968-57.109333 75.968s.234667 43.669333 12.394667 94.997333c41.493333-43.114667 54.613333-73.877333 54.613333-73.877333s19.861333-30.122667 18.624-62.784c-10.090667-9.152-19.690667-20.885333-28.522667-34.304zm142.869334.298666c-8.768 13.312-18.304 24.938667-28.309334 34.005334-1.258667 32.682667 18.602667 62.784 18.602667 62.784s13.013333 30.485333 54.08 73.322666c12.032-51.157333 12.288-94.656 12.288-94.656s-5.845333-53.12-56.661333-75.456z" fill="#42a5f5"/><path d="m618.005333 234.005333c-3.669333-23.296-18.453333-42.005333-42.005333-42.005333-.96 0-1.877333.213333-2.816.256a42.453333 42.453333 0 0 0 -39.850667 42.410667c0 22.314667 13.333333 47.509333 41.301334 52.992 24.576-8.149334 44.032-19.904 44.032-31.658667h.234666a91.52 91.52 0 0 0 -.896-21.994667zm-212.010666 0c3.648-23.296 18.432-42.24 42.005333-42.24.96 0 1.856.213333 2.816.256a42.666667 42.666667 0 0 1 39.850667 42.645334c0 22.314667-13.333333 47.509333-41.28 52.992-24.576-8.149334-44.053334-19.904-44.053334-31.658667h-.234666a91.52 91.52 0 0 1 .896-21.994667z" fill="#f44336"/></svg>