<svg height="200" viewBox="0 0 1024 1024" width="200" xmlns="http://www.w3.org/2000/svg"><path d="m917.333333 341.333333h-149.333333a21.333333 21.333333 0 0 0 -21.333333 21.333334s0 320-341.333334 320h-21.333333v64h64s362.666667 0 362.666667-341.333334c0 0 64-21.333333 106.666666-21.333333a21.333333 21.333333 0 1 0 0-42.666667z" fill="#dce775"/><path d="m725.333333 192c-85.333333 0-213.333333 106.666667-213.333333 106.666667s-192 0-277.333333 64-170.666667 234.666667-170.666667 256 0 85.333333 106.666667 85.333333l213.333333-21.333333h21.333333c341.333333 0 341.333333-320 341.333334-320a21.333333 21.333333 0 0 1 21.333333-21.333334h170.666667a21.333333 21.333333 0 0 0 21.333333-21.333333s0-128-234.666667-128z" fill="#7cb342"/><path d="m687.914667 803.242667s-81.045334-101.504-90.581334-120.576c-21.333333-42.666667-21.333333-106.666667-21.333333-106.666667l128-85.333333-21.333333 149.333333 64 128s-37.418667 13.909333-58.752 35.242667zm-110.741334-31.658667c-17.664-11.776-45.866667-17.984-78.421333-20.714667-77.354667-17.045333-192.810667-25.536-249.856-25.536-90.346667 0-163.562667 19.114667-163.562667 42.666667s73.216 42.666667 163.562667 42.666667c2.154667 0 4.010667-.149333 6.122667-.170667.341333 0 .64.170667.981333.170667a18.858667 18.858667 0 0 0 3.584-.341334c59.072-1.130667 101.056-11.029333 144.149333-16.874666 65.322667-4.010667 126.442667-1.92 149.781334 13.632a21.333333 21.333333 0 1 0 23.658666-35.498667z" fill="#7cb342"/><path d="m661.333333 245.333333a74.666667 74.666667 0 1 0 149.333334 0 74.666667 74.666667 0 1 0 -149.333334 0z" fill="#cfd8dc"/><path d="m746.666667 245.333333a32 32 0 1 0 64 0 32 32 0 1 0 -64 0z" fill="#37474f"/><g fill="#558b2f"><path d="m704 245.333333c0-33.792 22.592-61.973333 53.333333-71.210666a73.450667 73.450667 0 0 0 -21.333333-3.456c-41.258667 0-74.666667 33.408-74.666667 74.666666s33.408 74.666667 74.666667 74.666667c7.466667 0 14.549333-1.408 21.333333-3.456-30.741333-9.237333-53.333333-37.418667-53.333333-71.210667z"/><path d="m832 778.666667a32 32 0 1 0 64 0 32 32 0 1 0 -64 0z"/><path d="m911.082667 262.250667c8.341333 8.341333 6.250666 36.416 6.250666 36.416s-28.074667 2.090667-36.416-6.250667a21.312 21.312 0 1 1 30.165334-30.165333z"/><path d="m533.333333 778.666667a32 32 0 1 0 64 0 32 32 0 1 0 -64 0z"/><path d="m469.333333 778.666667a32 32 0 1 0 64 0 32 32 0 1 0 -64 0z"/><path d="m248.896 725.333333c35.157333 0 92.458667 3.242667 149.376 9.706667 80.64-42.005333 135.061333-98.048 135.061333-137.706667 0-64-70.72-85.333333-188.586666-64-138.688 25.109333-259.306667 170.666667-259.306667 213.333334 0 0-2.794667 8 .661333 17.365333 7.658667-21.696 77.568-38.698667 162.794667-38.698667z"/></g></svg>