<svg height="200" viewBox="0 0 1024 1024" width="200" xmlns="http://www.w3.org/2000/svg"><path d="m384 149.333333a42.666667 42.666667 0 1 0 85.333333 0 42.666667 42.666667 0 1 0 -85.333333 0z" fill="#795548"/><path d="m554.666667 149.333333a42.666667 42.666667 0 1 0 85.333333 0 42.666667 42.666667 0 1 0 -85.333333 0z" fill="#795548"/><path d="m682.666667 384s-64-42.666667-64-106.666667c0-23.253333 5.333333-82.005333 20.010666-117.333333l-84.010666-13.333333c-3.328 45.994667-15.872 103.509333-42.666667 103.509333s-39.338667-57.493333-42.666667-103.509333l-83.989333 13.333333c14.656 35.328 19.989333 94.08 19.989333 117.333333 0 64-64 106.666667-64 106.666667-42.666667 21.333333-42.666667 42.666667-42.666666 64 64 64 64 234.666667 64 234.666667 0 85.333333 61.781333 106.666667 85.333333 106.666666h128c23.552 0 85.333333-21.333333 85.333333-106.666666 0 0 0-170.666667 64-234.666667 0-21.333333 0-42.666667-42.666666-64z" fill="#ffc67b"/><path d="m512 704c-58.901333 0-85.333333 26.410667-85.333333 85.333333 0 58.944 21.333333 128 85.333333 128s85.333333-69.056 85.333333-128c0-58.922667-26.410667-85.333333-85.333333-85.333333z" fill="#b76113"/><g fill="#ff8f00"><path d="m362.218667 380.885333c-170.666667 0-234.666667-128-234.666667-192 64-21.333333 192 0 213.333333 42.666667s21.333333 64 21.333334 64l42.666666 21.333333zm299.114666 3.114667c170.666667 0 234.666667-128 234.666667-192-64-21.333333-192 0-213.333333 42.666667s-21.333333 64-21.333334 64l-42.666666 21.333333z"/><path d="m618.666667 277.333333c0-23.253333 5.333333-82.005333 20.010666-117.333333l-84.010666-13.333333c-3.328 45.994667-15.872 103.509333-42.666667 103.509333s-39.338667-57.493333-42.666667-103.509333l-83.989333 13.333333c14.656 35.328 19.989333 94.08 19.989333 117.333333 0 64-64 106.666667-64 106.666667 85.333333 21.333333 106.666667 128 106.666667 213.333333s-42.666667 85.333333-42.666667 170.666667l106.666667 21.333333 106.666667-21.333333c0-85.333333-42.666667-85.333333-42.666667-170.666667s21.333333-192 106.666667-213.333333c0 0-64-42.666667-64-106.666667z"/><path d="m512 661.333333a106.666667 106.666667 0 0 0 -106.666667 106.666667c0 58.944 42.666667 106.666667 106.666667 106.666667s106.666667-47.722667 106.666667-106.666667a106.666667 106.666667 0 0 0 -106.666667-106.666667z"/></g><path d="m490.666667 757.333333v53.333334s-64-35.669333-64-53.333334a32 32 0 1 1 64 0zm42.666666 0v53.333334s64-35.669333 64-53.333334a32 32 0 0 0 -64 0z" fill="#844807"/><path d="m378.730667 347.989333-61.546667-23.68s5.909333-47.424-14.144-73.024c-7.786667-9.386667-51.818667-26.816-108.224-27.904 6.570667 23.914667 23.552 75.008 55.381333 106.837334 34.858667 34.858667 78.592 48.362667 93.44 52.117333a180.522667 180.522667 0 0 0 35.093334-34.346667zm341.76-93.589333c-20.032 25.6-14.144 73.024-14.144 73.024l-59.285334 22.805333c17.109334 21.354667 35.605334 33.770667 35.605334 33.770667-2.837333.704-5.418667 1.749333-8.106667 2.645333l.106667.021334s56-10.666667 98.666666-53.333334c31.829333-31.829333 48.810667-82.922667 55.381334-106.837333-56.405333 1.088-100.416 18.496-108.224 27.904zm-165.824-73.066667c0-7.658667-.490667-15.04-1.258667-22.208-4.629333 39.850667-17.130667 91.050667-41.408 91.050667s-36.8-51.178667-41.408-91.050667a207.68 207.68 0 0 0 -1.258667 22.208c0 53.013333 19.114667 117.333333 42.666667 117.333334s42.666667-64.32 42.666667-117.333334z" fill="#b76113"/><path d="m705.728 454.848c-18.709333 7.872-45.845333 23.082667-58.56 48.469333 16.256 25.898667 31.04 29.418667 34.645333 29.909334.298667.021333.554667.106667.853334.106666a42.602667 42.602667 0 1 0 23.061333-78.485333zm-387.413333 0c18.709333 7.872 45.845333 23.082667 58.56 48.469333-16.256 25.92-31.04 29.418667-34.645334 29.909334-.298667 0-.554667.085333-.853333.085333a42.666667 42.666667 0 0 1 -42.666667-42.666667c0-15.018667 7.850667-28.181333 19.605334-35.797333z" fill="#795548"/><path d="m725.568 458.645333a93.568 93.568 0 0 1 -14.549333-5.909333c-11.626667 4.458667-28.394667 12.309333-42.709334 24.490667l4.928 1.749333c10.197333 2.752 18.048 3.136 26.858667 3.370667 8.533333.064 16.981333-.725333 25.130667-2.368a95.338667 95.338667 0 0 0 42.773333-20.117334 84.544 84.544 0 0 1 -42.432-1.216zm-427.072 0c5.141333-1.472 9.856-3.669333 14.549333-5.909333 11.626667 4.458667 28.394667 12.309333 42.709334 24.490667l-4.928 1.749333c-10.197333 2.752-18.048 3.136-26.858667 3.370667-8.533333.064-16.981333-.725333-25.130667-2.368a95.338667 95.338667 0 0 1 -42.773333-20.117334 84.565333 84.565333 0 0 0 42.432-1.216z" fill="#5d4037"/></svg>