<svg height="200" viewBox="0 0 1024 1024" width="200" xmlns="http://www.w3.org/2000/svg"><path d="m867.242667 792.512c-8.938667-60.629333-19.904-75.541333-38.805334-110.357333 15.552-71.317333-9.941333-143.125333-37.802666-169.984 23.509333-75.797333-21.12-115.818667-83.114667-138.453334-1.386667-.512-19.413333-6.592-20.842667-7.061333-12.010667 33.024-54.933333 145.301333-45.674666 187.669333 0 16.917333.085333 73.962667 18.837333 114.88 4.885333 10.709333 11.029333 20.373333 18.837333 27.861334 3.562667 51.712 24.32 97.28 70.08 127.082666 6.464 14.314667.917333 28.138667-5.077333 30.890667 24.32-1.706667 45.653333-44.373333 2.986667-44.373333s-43.946667 21.418667-42.389334 42.752c1.514667 21.248 15.189333 42.410667 51.861334 42.24h99.776c28.181333 0 41.109333-13.354667 41.109333-34.24-.085333-27.157333-9.898667-54.976-29.781333-68.906667zm-597.205334 23.978667c29.482667-11.029333 42.581333-57.088 40.277334-71.402667 10.005333 5.632 54.72 10.474667 70.4 6.506667.789333-.533334 67.285333-4.928 67.285333-4.928l-128-213.333334-36.693333-7.36c-1.706667-.192-3.306667-.512-4.949334-.768-2.197333.042667-5.781333.362667-15.104.64-46.08 3.242667-92.096 48.746667-78.890666 108.437334-30.378667 36.928-49.301333 85.717333-31.594667 164.522666-12.501333 7.381333-24.661333 28.330667-24.661333 41.92 0 36.416 14.890667 53.589333 37.973333 54.250667 36.949333 1.109333 99.477333 1.024 123.136 1.024 23.616 0 22.101333-18.154667 22.101333-26.389333 0-19.392-16.938667-37.674667-41.28-53.12z" fill="#8d6e63"/><path d="m732.010667 811.328s22.997333 15.658667 22.997333 37.674667-21.098667 45.248-32.64 37.866666c-9.258667-5.909333-17.706667-16.064-18.090667-33.450666-.938667-42.410667 19.733333-41.088 27.733334-42.090667zm-442.794667 84.672c23.616 0 22.101333-18.154667 22.101333-26.389333 0-19.029333-16.384-36.992-40.021333-52.266667-69.824 49.685333-118.549333-18.517333-118.549333-18.517333-12.501333 7.381333-24.661333 28.330667-24.661334 41.92 0 36.416 14.890667 53.589333 37.973334 54.250666 36.970667 1.088 99.498667 1.002667 123.157333 1.002667zm397.973333-528.384c18.474667-14.762667 8.874667-50.496-4.074666-68.522667 3.178667-10.368 8.149333-23.872 5.781333-32.448 9.706667-6.912 9.429333-16.853333 5.269333-30.570666-17.152-55.808-63.786666-108.074667-93.824-108.074667-153.941333 0-179.648 135.296-183.722666 178.346667-160.256 16.448-164.885333 116.608-129.770667 182.357333-24.597333 117.546667 71.914667 169.962667 75.84 172.672-6.208 53.290667 44.608 145.792 65.408 164.544 5.034667 2.837333 27.84 16.853333 27.242667 39.296-.426667 15.829333-2.005333 30.592-7.253334 30.741333l.490667.042667h99.776c28.181333 0 41.109333-13.333333 41.109333-34.24 0-26.901333-9.749333-54.485333-29.312-68.501333 2.410667-18.368 3.797333-41.344 1.322667-65.941334a505.429333 505.429333 0 0 0 43.818667-18.218666l.021333.277333c119.189333-65.365333 132.202667-114.218667 139.157333-158.250667 22.656-143.573333-57.28-183.509333-57.28-183.509333zm-47.104 12.437333c-28.629333 0-31.296-40.725333-23.104-49.834666-53.589333-41.984-28.181333-65.514667-3.434666-60.992 11.562667 2.112 48.704 9.322667 65.386666 7.872 3.648 6.037333 2.218667 17.152.490667 26.176 4.032 3.861333 10.965333 12.650667 9.578667 29.248-.789333 9.962667-13.354667 47.530667-48.917334 47.530666z" fill="#6d4c41"/><path d="m427.008 825.344s31.338667 7.658667 31.338667 37.674667c-.021334 24.32-5.013334 32.981333-10.346667 32.981333-28.010667 0-42.282667-21.781333-42.666667-34.325333-.938667-30.677333 13.674667-35.626667 21.674667-36.330667zm184.96-493.674667c-66.837333-52.330667-35.157333-81.706667-4.288-76.074666 14.421333 2.624 60.778667 11.626667 81.557333 9.834666 4.565333 7.552 2.794667 21.376.64 32.64 5.034667 4.821333 13.674667 15.765333 11.946667 36.48-1.024 12.416-16.661333 59.285333-61.013333 59.285334-35.733333 0-39.061333-50.794667-28.842667-62.165334zm-27.904-202.752c-139.178667 9.365333-163.52 136-167.466667 177.429334 0 0 66.965333 45.653333 77.632 50.112 0 0-37.312-209.941333 89.834667-227.541334zm-23.168 479.082667c16.917333-43.776-16.725333-127.786667-81.621333-164.096 44.138667 49.856 56.874667 104.064 40.128 179.818667 27.690667 32.96 38.656 69.824 42.069333 103.594666a505.429333 505.429333 0 0 0 43.818667-18.218666c-3.221333-37.333333-12.565333-62.933333-44.394667-101.098667z" fill="#3e2723"/><path d="m675.712 283.989333c2.112.533333 3.84 2.176 3.84 4.458667a4.864 4.864 0 0 1 -4.885333 4.864 4.842667 4.842667 0 0 1 -4.885334-4.864c0-1.002667.533333-1.792 1.088-2.56-2.965333 1.130667-5.738667 2.090667-7.765333 2.090667-2.154667 0-4.629333-.533333-7.168-1.216.341333.661333.896 1.301333.896 2.133333a4.885333 4.885333 0 1 1 -9.770667 0c0-1.877333 1.258667-3.2 2.794667-4.010667-11.690667-4.032-24.106667-9.6-25.770667.298667-1.173333 6.848 7.722667 16.725333 21.013334 21.781333 0 0 4.970667-8.362667 19.392-7.424 11.114667-1.386667 17.002667 3.584 17.002666 3.584 6.058667-6.314667 6.954667-15.018667 6.677334-17.962666-.597333-5.290667-6.314667-3.605333-12.458667-1.173334zm-16 44.458667s-10.602667-4.032-10.602667-9.322667c0-4.202667 1.898667-7.701333 8.042667-8.149333s8.597333 2.496 15.146667 2.645333c4.501333.149333 8.064-6.528 12.501333-3.242666 3.84 2.837333.064 10.88-2.218667 14.08-5.546667.426667 2.197333-9.898667-2.005333-8.576-1.877333.554667-3.306667 3.392-7.808 3.733333-9.898667.682667-16.938667-5.632-17.216-.341333-.32 5.418667 10.133333 4.309333 4.16 9.173333zm34.005333 7.765333s-39.488-6.037333-61.781333 21.781334c0 10.218667 8.384 14.848 8.384 14.848s8.789333-32.448 53.397333-36.629334z" fill="#a1887f"/></svg>