<svg height="200" viewBox="0 0 1024 1024" width="200" xmlns="http://www.w3.org/2000/svg"><path d="m789.333333 298.666667-105.685333 66.944c7.893333 23.36 64.512 189.056 84.352 189.056 21.333333 0 42.666667-21.333333 42.666667-21.333334 42.666667-42.666667 42.666667-192 42.666666-192 0-85.333333-64-42.666667-64-42.666666z" fill="#c0ca33"/><path d="m170.666667 789.333333s298.666667 21.333333 512-213.333333c0 0 61.333333-96.064 28.8-228.010667l-562.133334 356.010667z" fill="#cddc39"/><path d="m304.725333 605.589333-37.952 24.042667 37.589334 149.717333a723.392 723.392 0 0 0 41.834666-8.533333zm-86.656 183.509334a656.149333 656.149333 0 0 0 43.093334-3.498667l-33.024-131.52-37.952 24.021333zm315.562667-328.490667-37.930667 24.042667 51.178667 203.904a612.373333 612.373333 0 0 0 37.717333-25.130667zm-76.288 48.298667-37.952 24.042666 49.408 196.757334c12.970667-5.76 26.069333-12.117333 39.210667-19.008zm-76.394667 48.426666-37.952 24 44.778667 178.24a675.072 675.072 0 0 0 40.576-13.546666z" fill="#afb42b"/><path d="m768 384a21.333333 21.333333 0 1 0 42.666667 0 21.333333 21.333333 0 1 0 -42.666667 0z" fill="#6d4c41"/><path d="m945.408 214.421333a21.290667 21.290667 0 0 0 -27.008 13.482667c-11.456 34.432-46.208 62.698667-70.592 79.061333 3.392 8.064 5.525333 19.093333 5.525333 34.368 0 0-.021333 4.842667-.256 12.736 25.706667-14.954667 86.741333-55.445333 105.813334-112.64a21.333333 21.333333 0 0 0 -13.482667-27.008zm-233.941333 133.589334-139.456 88.32 49.706666 197.952a618.88 618.88 0 0 0 60.949334-58.282667s61.333333-96.064 28.8-227.989333z" fill="#9e9d24"/><path d="m469.333333 729.450667a637.312 637.312 0 0 0 170.666667-110.848v-106.602667l-170.666667 128z" fill="#9e9d24"/><path d="m85.333333 768s21.333333 21.333333 85.333334 21.333333l-16.768-67.050666zm656.490667-251.264c10.56 22.314667 20.096 37.930667 26.176 37.930667 21.333333 0 42.666667-21.333333 42.666667-21.333334 16.490667-16.512 32.789333-82.666667 32.789333-82.666666-59.456 63.125333-101.632 66.069333-101.632 66.069333zm-242.048 123.264-271.808-292.885333a21.354667 21.354667 0 0 0 -29.269333 31.082666l227.968 339.477334a53.632 53.632 0 1 0 73.109333-77.674667z" fill="#827717"/></svg>