<svg height="200" viewBox="0 0 1024 1024" width="200" xmlns="http://www.w3.org/2000/svg"><path d="m597.333333 576c0 53.013333-26.666667 298.666667-85.333333 298.666667s-85.333333-245.653333-85.333333-298.666667 22.229333-106.666667 85.333333-106.666667 85.333333 53.653333 85.333333 106.666667z" fill="#5d4037"/><path d="m573.525333 759.744c3.541333-15.68 6.656-31.893333 9.386667-48.021333-18.709333 7.36-42.56 13.610667-70.912 13.610666s-52.202667-6.250667-70.890667-13.610666c2.730667 16.128 5.845333 32.362667 9.386667 48.021333 18.005333 4.864 38.506667 8.256 61.504 8.256s43.498667-3.392 61.525333-8.256zm19.328-222.848c-19.690667 9.024-47.232 17.770667-80.853333 17.770667s-61.162667-8.746667-80.853333-17.770667a163.968 163.968 0 0 0 -4.394667 44.458667c22.698667 8.789333 51.349333 15.978667 85.248 15.978666s62.549333-7.189333 85.248-15.978666a163.968 163.968 0 0 0 -4.394667-44.458667zm-80.853333 103.104a194.346667 194.346667 0 0 1 -82.645333-18.517333c1.301333 14.378667 3.093333 30.72 5.397333 48.042666 21.354667 7.402667 47.189333 13.141334 77.248 13.141334s55.893333-5.738667 77.248-13.141334c2.282667-17.322667 4.074667-33.664 5.397333-48.042666a194.346667 194.346667 0 0 1 -82.645333 18.517333z" fill="#ffc107"/><path d="m746.666667 469.333333c-98.922667 0-189.269333-20.714667-192-21.333333-11.008-2.496-.469333-67.968 4.458666-71.253333 6.848-4.522667 187.114667-120.746667 382.741334-120.746667 18.986667 0 39.466667 14.186667 39.466666 37.077333 0 67.84-86.058666 176.256-234.666666 176.256zm-704-176.256c0-22.890666 20.48-37.077333 39.466666-37.077333 195.626667 0 359.189333 106.837333 366.037334 111.381333 4.928 3.264 32.170667 78.122667 21.162666 80.618667-2.730667.618667-93.077333 21.333333-192 21.333333-148.608 0-234.666667-108.416-234.666666-176.256z" fill="#90caf9"/><path d="m552.512 444.928c-3.392-14.229333 18.901333-74.624 23.317333-77.568 6.848-4.522667 170.410667-111.36 366.037334-111.36-195.626667 0-359.018667 166.122667-365.866667 170.666667-3.925333 2.602667-21.738667 12.864-23.488 18.261333zm-81.024 0c3.392-14.229333-18.901333-74.624-23.317333-77.568-6.848-4.522667-170.410667-111.36-366.037334-111.36 195.626667 0 359.018667 166.122667 365.866667 170.666667 3.925333 2.602667 21.738667 12.864 23.488 18.261333z" fill="#42a5f5"/><path d="m597.333333 384c0 60.437333-38.208 106.666667-85.333333 106.666667s-85.333333-46.229333-85.333333-106.666667c0-35.349333 38.208-64 85.333333-64s85.333333 28.650667 85.333333 64z" fill="#795548"/><path d="m576 298.666667c0 23.573333-28.650667 42.666667-64 42.666666s-64-19.093333-64-42.666666 28.650667-85.333333 64-85.333334 64 61.76 64 85.333334z" fill="#8d6e63"/></svg>