<svg height="200" viewBox="0 0 1024 1024" width="200" xmlns="http://www.w3.org/2000/svg"><path d="m896 522.666667c0-29.333333-24-53.333333-53.333333-53.333334h-42.666667c29.333333 0 53.333333-24 53.333333-53.333333s-24-53.333333-53.333333-53.333333h-85.333333c29.333333 0 53.333333-24 53.333333-53.333334s-24-53.333333-53.333333-53.333333h-64c29.333333 0 53.333333-24 53.333333-53.333333s-24-53.333334-53.333333-53.333334h-277.333334c-29.333333 0-53.333333 24-53.333333 53.333334s24 53.333333 53.333333 53.333333h-64c-29.333333 0-53.333333 24-53.333333 53.333333s24 53.333333 53.333333 53.333334h-85.333333c-29.333333 0-53.333333 24-53.333333 53.333333s24 53.333333 53.333333 53.333333h-42.666667c-29.333333 0-53.333333 24-53.333333 53.333334s24 53.333333 53.333333 53.333333h42.666667c-29.333333 0-53.333333 24-53.333333 53.333333s24 53.333334 53.333333 53.333334h85.333333c-29.333333 0-53.333333 24-53.333333 53.333333s24 53.333333 53.333333 53.333333h85.333334c-29.333333 0-53.333333 24-53.333334 53.333334s24 53.333333 53.333334 53.333333h234.666666c29.333333 0 53.333333-24 53.333334-53.333333s-24-53.333334-53.333334-53.333334h85.333334c29.333333 0 53.333333-24 53.333333-53.333333s-24-53.333333-53.333333-53.333333h85.333333c29.333333 0 53.333333-24 53.333333-53.333334s-24-53.333333-53.333333-53.333333h42.666667c29.333333 0 53.333333-24 53.333333-53.333333z" fill="#ffc107"/><path d="m448 682.666667a64 64 0 1 0 128 0 64 64 0 1 0 -128 0z" fill="#5d4037"/><path d="m533.333333 256h-160a53.525333 53.525333 0 0 1 -52.245333-42.666667h212.245333a21.333333 21.333333 0 0 1 0 42.666667zm64-42.666667a21.333333 21.333333 0 0 0 0 42.666667h53.333334a53.525333 53.525333 0 0 0 52.245333-42.666667zm-192 128a21.333333 21.333333 0 0 0 -21.333333-21.333333h-126.912a53.525333 53.525333 0 0 0 52.245333 42.666667h74.666667a21.333333 21.333333 0 0 0 21.333333-21.333334zm42.666667-21.333333a21.333333 21.333333 0 0 0 0 42.666667h266.666667a53.525333 53.525333 0 0 0 52.245333-42.666667zm64 128a21.333333 21.333333 0 0 0 -21.333333-21.333333h-318.912a53.525333 53.525333 0 0 0 52.245333 42.666666h266.666667a21.333333 21.333333 0 0 0 21.333333-21.333333zm42.666667-21.333333a21.333333 21.333333 0 0 0 0 42.666666h245.333333a53.525333 53.525333 0 0 0 52.245333-42.666666zm85.333333 128a21.333333 21.333333 0 0 0 -21.333333-21.333334h-489.578667a53.525333 53.525333 0 0 0 52.245333 42.666667h437.333334a21.333333 21.333333 0 0 0 21.333333-21.333333zm42.666667-21.333334a21.333333 21.333333 0 0 0 0 42.666667h160a53.525333 53.525333 0 0 0 52.245333-42.666667zm-170.666667 320a21.333333 21.333333 0 0 0 0 42.666667h117.333333a53.525333 53.525333 0 0 0 52.245334-42.666667zm-42.666667 21.333334a21.333333 21.333333 0 0 0 -21.333333-21.333334h-105.578667a53.525333 53.525333 0 0 0 52.245334 42.666667h53.333333a21.333333 21.333333 0 0 0 21.333333-21.333333zm0-106.666667a21.333333 21.333333 0 0 0 -21.333333-21.333333h-190.912a53.525333 53.525333 0 0 0 52.245333 42.666666h138.666667a21.333333 21.333333 0 0 0 21.333333-21.333333zm106.666667-21.333333a21.333333 21.333333 0 0 0 0 42.666666h138.666667a53.525333 53.525333 0 0 0 52.245333-42.666666zm-149.333333-85.333334a21.333333 21.333333 0 0 0 -21.333334-21.333333h-233.578666a53.525333 53.525333 0 0 0 52.245333 42.666667h181.333333a21.333333 21.333333 0 0 0 21.333334-21.333334zm192-21.333333a21.333333 21.333333 0 0 0 0 42.666667h181.333333a53.525333 53.525333 0 0 0 52.245333-42.666667z" fill="#ff9800"/></svg>