<svg height="200" viewBox="0 0 1024 1024" width="200" xmlns="http://www.w3.org/2000/svg"><path d="m725.333333 426.666667v277.333333l64 149.333333h-42.666666l-64-128-21.333334-106.666666-21.333333-42.666667m-341.333333-128s0 42.666667 64 106.666667c33.728 33.728-21.333333 149.333333-21.333334 149.333333l64 149.333333h42.666667l-42.666667-149.333333s106.666667-106.666667 106.666667-213.333333m338.666667-281.109334c34.517333-32.938666 21.653333-60.224 21.653333-60.224s-7.210667 20.074667-34.496 32.938667-34.517333 32.938667-34.517333 32.938667l-7.210667 20.074666" fill="#546e7a"/><path d="m448 853.333333 21.333333 42.666667h-64v-21.333333l21.333334-21.333334zm341.333333 0 21.333334 42.666667h-64v-21.333333l21.333333-21.333334zm81.664-112.917333-15.082666 45.248-45.248-45.248 21.333333-15.082667h23.914667zm-508.330666 112.917333 21.333333 42.666667h-64v-21.333333l21.333333-21.333334z" fill="#37474f"/><g fill="#90a4ae"><path d="m213.333333 437.333333a117.333333 117.333333 0 1 0 234.666667 0 117.333333 117.333333 0 1 0 -234.666667 0z"/><path d="m213.333333 448s0 42.666667 64 106.666667c33.728 33.728-21.333333 149.333333-21.333333 149.333333l64 149.333333h42.666667l-42.666667-149.333333s106.666667-106.666667 106.666667-213.333333"/><path d="m896 234.666667c-13.504-26.986667-42.666667-42.666667-85.333333-42.666667-128 0-149.333333 128-192 149.333333-95.402667 47.701333-234.666667-21.333333-277.333334-21.333333-192 0 64 213.333333 64 213.333333s64 85.333333 170.666667 85.333334c0 0 85.333333 0 149.333333-42.666667 0 0 85.333333-42.666667 64-192v-64s21.333333 42.666667 42.666667 42.666667 64 42.666667 64 42.666666 0 21.333333 21.333333 21.333334 42.666667-21.333333 42.666667-42.666667-64-128-64-128z"/><path d="m725.333333 512c106.666667 21.333333 170.666667 42.666667 170.666667 42.666667s-21.333333 128-21.333333 170.666666h-42.666667v-128h-149.333333c-42.666667 0-42.666667-42.666667-42.666667-42.666666zm64-277.333333v-21.333334s0-21.333333 21.333334-42.666666 21.333333-42.666667 21.333333-42.666667 21.333333 21.333333 0 64c0 0 0 21.333333 21.333333 42.666667z"/></g><path d="m682.666667 597.333333c-64-21.333333-64-85.333333-64-85.333333 0 1.514667-21.333333 64 12.714666 100.394667a303.061333 303.061333 0 0 0 52.352-15.061334c-.341333 0-.746667.106667-1.066666 0zm-320-170.666666c0 71.658667 30.954667 137.514667 40.896 156.821333 5.397333-11.690667 10.218667-23.808 13.994666-36.245333 5.482667 5.674666-54.890666-65.365334-54.890666-120.576z" fill="#78909c"/><path d="m959.189333 390.677333a10.666667 10.666667 0 0 0 -20.522666 3.989334v25.024c10.24-6.72 18.218667-17.472 20.522666-29.013334z" fill="#37474f"/><path d="m874.666667 288a10.666667 10.666667 0 1 0 21.333333 0 10.666667 10.666667 0 1 0 -21.333333 0z" fill="#263238"/><path d="m85.333333 512c0 128 128 170.666667 42.666667 234.666667 0 0 85.333333 0 85.333333-85.333334 0-74.688-58.624-261.12 12.224-275.904a116.906667 116.906667 0 0 1 14.613334-22.762666h-5.504s-149.333333-21.333333-149.333334 149.333333zm754.069334-340.714667a91.349333 91.349333 0 0 1 -7.402667 20.714667s.021333 5.248 2.602667 13.098667c10.026667 6.122667 31.274667 20.778667 61.397333 50.901333l21.333333-42.645333s-20.010667-38.762667-77.930666-42.069334zm-50.069334 42.048s.106667-20.629333 20.394667-41.6c-151.957333 10.730667-192.042667 129.258667-212.394667 177.6-21.333333 50.666667 0 98.666667 0 98.666667 21.333333-64 149.333333-64 170.666667-170.666667 4.202667-21.077333 12.352-39.189333 21.333333-54.592z" fill="#37474f"/></svg>