<svg height="200" viewBox="0 0 1024 1024" width="200" xmlns="http://www.w3.org/2000/svg"><path d="m704.981333 339.392s-280.405333-230.037333-485.397333-183.957333c-45.994667 12.586666 138.005333 170.901333 313.749333 271.232 96.213333-46.037333 171.648-87.274667 171.648-87.274667z" fill="#9b0d54"/><path d="m738.304 316.074667c.32-4.885333.896-9.728 1.813333-14.528 8.853333-46.293333 51.52-67.008 70.549334-107.413334 0 0-85.333333-42.666667-148.16-14.677333-47.381333 21.12-32.042667 71.146667-46.549334 111.253333-16.341333 45.205333-47.936 53.952-61.290666 127.424-13.930667 76.672-9.664 194.282667-5.013334 266.624 2.453333 38.4 5.013333 64.064 5.013334 64.064s191.914667-213.248 192-330.624c.021333-33.642667-10.56-68.394667-8.362667-102.122666z" fill="#ff4081"/><path d="m602.410667 325.312s-325.077334-173.824-517.077334-88.490667c-42.666667 21.333333 213.333333 192 405.333334 256 85.333333-64 111.744-167.509333 111.744-167.509333z" fill="#ff4081"/><path d="m738.304 316.074667c.234667-3.498667.768-6.954667 1.322667-10.410667-44.053333-22.869333-96.32-25.429333-120.448-26.005333a102.826667 102.826667 0 0 1 -3.2 11.072 138.410667 138.410667 0 0 1 -17.173334 32.448c30.08 15.936 120.384 72.768 125.909334 178.816 13.397333-30.250667 21.930667-59.157333 21.952-83.818667.021333-33.621333-10.56-68.373333-8.362667-102.101333z" fill="#c51162"/><path d="m682.666667 215.488a21.333333 21.333333 0 1 0 42.666666 0 21.333333 21.333333 0 1 0 -42.666666 0z"/><path d="m576 386.154667s-176.704-173.717333-362.645333-173.226667c-45.994667.106667-89.941333 6.976-128.021334 23.893333-42.666667 21.333333 213.333333 192 405.333334 256 64-21.333333 85.333333-106.666667 85.333333-106.666666zm-21.333333 362.666666-42.666667 125.845334s22.869333 42.666667 85.333333 42.666666c64 0 85.333333-42.666667 85.333334-42.666666l-93.546667-166.485334c-20.416 25.002667-34.453333 40.64-34.453333 40.64z" fill="#37474f"/><path d="m444.885333 476.010667c41.664-29.077333 99.562667-68.714667 130.133334-86.357334l.981333-3.498666s-25.472-25.002667-67.136-55.957334c-51.370667 10.773333-139.477333 33.856-212.608 75.498667 15.04 8.192 30.357333 16.234667 45.866667 24 66.026667-32.256 140.714667-50.581333 182.592-59.093333-40.576 25.984-94.336 63.381333-126.272 85.824 15.594667 6.997333 31.104 13.504 46.442666 19.584zm-10.218666-194.538667-8-4.608a567.488 567.488 0 0 0 -96.32-43.2c-60.906667 1.429333-142.762667 10.922667-224.981334 44.736 10.048 9.386667 22.784 19.904 37.781334 31.125333 116.437333-41.578667 229.226667-33.6 268.245333-30.869333 7.125333.490667 20.309333 2.816 23.274667 2.816zm73.664 48.682667-17.664-13.098667a758.186667 758.186667 0 0 0 -54.528-34.965333c-62.08 4.992-164.416 19.84-241.728 63.04 13.312 8.661333 27.392 17.493333 42.133333 26.368 105.472-48.384 251.797333-51.690667 271.786667-41.344z" fill="#546e7a"/><path d="m551.616 757.781333 3.050667-8.96-42.666667 125.845334s8.021333 14.250667 26.602667 26.282666zm103.168 144.469334c-2.133333 1.28-4.458667 2.496-6.869333 3.669333 2.410667-1.216 4.778667-2.368 6.869333-3.669333zm-65.237333-90.197334-9.429334 103.808c5.44.768 10.986667 1.472 17.216 1.472 9.877333 0 18.389333-1.258667 26.304-2.965333zm22.208-63.616 3.797333 6.762667 47.210667 141.632c-.490667.384-1.130667.746667-1.621334 1.130667 15.210667-11.285334 21.525334-23.296 21.525334-23.296z" fill="#607d8b"/><path d="m760.021333 210.154667s11.690667-22.826667 20.842667-27.498667 18.325333-8.448 27.904-12.16a324.202667 324.202667 0 0 1 57.386667-15.317333c38.592-6.741333 77.354667-7.168 115.178666-3.690667-37.824 3.605333-75.072 11.242667-109.632 24.298667-17.28 6.464-33.834667 14.336-49.194666 23.573333a219.733333 219.733333 0 0 0 -26.837334 18.965333c-4.906667 4.138667-35.648-8.170667-35.648-8.170666z" fill="#263238"/></svg>