<svg height="200" viewBox="0 0 1024 1024" width="200" xmlns="http://www.w3.org/2000/svg"><path d="m597.333333 341.333333a42.666667 42.666667 0 0 1 -42.666666 42.666667h-85.333334a42.666667 42.666667 0 0 1 -42.666666-42.666667v-64a42.666667 42.666667 0 0 1 42.666666-42.666666h85.333334a42.666667 42.666667 0 0 1 42.666666 42.666666z" fill="#37474f"/><path d="m338.218667 725.333333s21.738667 170.666667 173.824 170.666667 173.824-170.666667 173.824-170.666667l18.048-169.92s3.690666-43.413333-39.765334-43.413333h-304.213333c-43.456 0-39.872 42.389333-39.872 42.389333z" fill="#8bc34a"/><path d="m533.333333 512h-42.666666v382.464c6.869333.832 13.824 1.536 21.333333 1.536s14.464-.704 21.333333-1.536z" fill="#2e7d32"/><path d="m618.922667 855.488v-343.488h-42.666667v371.136a147.754667 147.754667 0 0 0 42.666667-27.648zm67.157333-130.112 17.706667-169.941333s5.781333-43.434667-42.218667-43.434667v289.344c18.005333-34.986667 24.512-75.968 24.512-75.968zm-237.824 157.76v-371.136h-42.666667v343.488a147.178667 147.178667 0 0 0 42.666667 27.648zm-127.658667-328.725333 17.813334 170.965333s5.824 41.322667 24.490666 75.648v-289.024c-47.658667 0-42.304 42.410667-42.304 42.410667z" fill="#43a047"/><path d="m532.8 298.666667h-41.578667c-126.506666 0-171.221333 80.512-171.221333 171.690666 0 40.768 46.442667 41.642667 46.442667 41.642667h291.114666s46.442667-.874667 46.442667-41.045333c0-91.434667-44.416-172.288-171.2-172.288z" fill="#2e7d32"/><path d="m448.042667 512s21.333333-42.666667 64-42.666667 64 42.666667 64 42.666667c-42.666667 0-64 128-64 128s-21.333333-128-64-128z" fill="#09350b"/></svg>