<svg height="200" viewBox="0 0 1024 1024" width="200" xmlns="http://www.w3.org/2000/svg"><path d="m282.176 784.149333c-30.229333-3.648-63.04-2.624-63.04-2.624l-26.005333-65.706666 32.149333-128.576-105.088-21.952 19.157333 171.477333 37.141334 86.528c42.090667 42.090667 102.741333 37.674667 102.741333 37.674667 0-16.362667-12.629333-28.970667-12.629333-28.970667h63.04c.021333 0-9.216-43.242667-47.466667-47.850667z" fill="#ad1456"/><path d="m772.650667 534.72s83.434667 119.594667 106.453333 160c51.050667 89.621333 68.032 144.533333 76.202667 142.762667 7.488-1.621333 13.034667-21.888-41.578667-144.768-54.165333-121.856-79.189333-186.517333-79.189333-186.517334z" fill="#ff8a80"/><path d="m516.842667 826.816c-30.229333-3.648-86.378667-2.624-86.378667-2.624l-67.413333-74.261333-16.64-103.893334-116.48-41.706666 61.248 160.042666c2.112 5.525333 5.653333 10.368 10.282666 14.058667l109.717334 87.509333c42.090667 42.090667 102.741333 37.674667 102.741333 37.674667 0-16.362667-12.629333-28.970667-12.629333-28.970667h63.04c0 .021333-9.237333-43.221333-47.488-47.829333z" fill="#ec407a"/><path d="m64 462.357333c0-86.826666 67.2-249.024 264.149333-249.024 174.698667 0 274.474667 154.090667 301.290667 154.090667s50.176-21.994667 102.528-21.994667c83.626667 0 134.784 68.842667 134.784 123.114667 0 59.712-43.882667 97.024-70.698667 97.024-54.912 0-74.624-22.016-106.474666-22.016-29.184 0-57.877333 87.893333-139.776 87.893333-104.277333 0-164.992 49.621333-191.253334 109.504-56.725333 0-101.674667-45.397333-101.674666-45.397333s-192.874667-47.850667-192.874667-233.194667z" fill="#8d6e63"/><path d="m445.162667 237.418667c103.018667 43.328 164.16 130.005333 184.277333 130.005333 26.837333 0 50.176-21.994667 102.528-21.994667-59.242667 37.696-61.226667 106.986667-42.389333 198.122667-29.184 0-57.877333 87.893333-139.776 87.893333-104.277333 0-164.992 49.621333-191.253334 109.504-5.696-229.632 296.384-150.4 86.613334-503.530666z" fill="#795548"/><path d="m768.448 477.504a22.016 22.016 0 1 0 44.032 0 22.016 22.016 0 1 0 -44.032 0z" fill="#212121"/></svg>