<svg height="200" viewBox="0 0 1024 1024" width="200" xmlns="http://www.w3.org/2000/svg"><path d="m576 277.333333a64 64 0 0 1 -128 0l-42.666667-42.666666c0-35.328 71.317333-85.333333 106.666667-85.333334s106.666667 50.005333 106.666667 85.333334z" fill="#5d4037"/><path d="m362.666667 320 106.666666 42.666667h85.333334l106.666666-42.666667c0-64-42.666667-85.333333-42.666666-85.333333h-213.333334s-42.666667 21.333333-42.666666 85.333333z" fill="#5d4037"/><path d="m490.666667 426.709333h42.666666v469.333334h-42.666666z" fill="#b71c1c"/><path d="m324.352 362.709333c-51.776 50.837334-89.685333 122.922667-89.685333 213.290667 0 188.501333 163.562667 320.042667 256 320.042667l21.333333-490.666667 21.333333 490.666667c92.437333 0 256-131.541333 256-320.042667 0-90.368-37.909333-162.453333-89.685333-213.290667z" fill="#ff3d00"/><g fill="#3e2723"><path d="m512 469.376a106.666667 106.666667 0 0 0 106.666667-106.666667h-213.333334a106.666667 106.666667 0 0 0 106.666667 106.666667z"/><path d="m576 608a53.333333 53.333333 0 1 0 106.666667 0 53.333333 53.333333 0 1 0 -106.666667 0z"/><path d="m341.333333 608a53.333333 53.333333 0 1 0 106.666667 0 53.333333 53.333333 0 1 0 -106.666667 0z"/><path d="m340.232067 507.949926a32 42.666667 28.237 1 0 -56.383879-30.279666 32 42.666667 28.237 1 0 56.383879 30.279666z"/><path d="m689.133778 507.909554a42.666667 32 61.763 1 0 56.383879-30.279667 42.666667 32 61.763 1 0 -56.383879 30.279667z"/><path d="m686.568448 742.815335a32 42.666667 44.999 1 0 -60.338726 60.340832 32 42.666667 44.999 1 0 60.338726-60.340832z"/><path d="m348.881304 742.778917a42.666667 32 45.001 1 0 60.338725 60.340832 42.666667 32 45.001 1 0 -60.338725-60.340832z"/></g><path d="m618.666667 234.666667h-42.666667v42.666666a21.333333 21.333333 0 0 0 21.333333 21.333334h62.229334c-7.978667-47.466667-40.896-64-40.896-64zm-213.333334 0h42.666667v42.666666a21.333333 21.333333 0 0 1 -21.333333 21.333334h-62.229334c7.978667-47.466667 40.896-64 40.896-64z" fill="#a1887f"/></svg>