<svg height="200" viewBox="0 0 1024 1024" width="200" xmlns="http://www.w3.org/2000/svg"><path d="m688.768 192.042667h64s89.216-108.458667 170.666667-42.666667c96.448 77.888-21.333333 256-85.333334 255.957333-47.701333 0-149.333333-213.290667-149.333333-213.290666zm-354.666667 0h-64s-89.216-108.458667-170.666666-42.666667c-96.448 77.888 21.333333 256 85.333333 255.957333 47.701333 0 149.333333-213.290667 149.333333-213.290666z" fill="#996704"/><path d="m384 853.333333a128 85.333333 0 1 0 256 0 128 85.333333 0 1 0 -256 0z" fill="#ffc107"/><path d="m874.666667 581.333333c0 106.048-170.666667 272-277.333334 272-64 0-85.333333-42.666667-85.333333-42.666666s-21.333333 42.666667-85.333333 42.666666c-106.666667 0-277.333333-165.952-277.333334-272l21.333334-197.333333c0-106.048 106.666667-192 192-234.666667 0 0 42.666667-21.333333 85.333333-21.333333h128c42.666667 0 85.333333 21.333333 85.333333 21.333333 64 21.333333 192 128.618667 192 234.666667z" fill="#ffc107"/><path d="m640 597.333333c-42.666667-42.666667-42.666667-85.333333-42.666667-85.333333s0-149.333333 106.666667-149.333333h149.333333c0-64-128-234.666667-277.333333-234.666667h-64-64c-149.333333 0-277.333333 170.666667-277.333333 234.666667h149.333333c106.666667 0 106.666667 149.333333 106.666667 149.333333s0 42.666667-42.666667 85.333333-106.666667 85.333333-106.666667 128 21.333333 128 149.333334 128c64 0 85.333333-42.666667 85.333333-42.666666s21.333333 42.666667 85.333333 42.666666c128 0 149.333333-85.333333 149.333334-128s-64-85.333333-106.666667-128z" fill="#d69107"/><path d="m256 405.333333s0 106.666667 87.104 106.666667h62.229333s0-106.666667-74.666666-106.666667zm512 0s0 106.666667-87.104 106.666667h-62.229333s0-106.666667 74.666666-106.666667z" fill="#5d4037"/><path d="m298.666667 426.666667a42.666667 42.666667 0 1 0 85.333333 0 42.666667 42.666667 0 1 0 -85.333333 0z" fill="#eeff41"/><path d="m640 426.666667a42.666667 42.666667 0 1 0 85.333333 0 42.666667 42.666667 0 1 0 -85.333333 0z" fill="#eeff41"/><path d="m320 426.666667a21.333333 21.333333 0 1 0 42.666667 0 21.333333 21.333333 0 1 0 -42.666667 0z" fill="#212121"/><path d="m661.333333 426.666667a21.333333 21.333333 0 1 0 42.666667 0 21.333333 21.333333 0 1 0 -42.666667 0z" fill="#212121"/><g fill="#3e2723"><path d="m237.141333 219.114667 8.533334 10.368a400.64 400.64 0 0 1 40.725333-37.461334h-16.298667s-52.522667-63.872-113.749333-63.872c-18.581333 0-37.952 5.866667-56.917333 21.205334-21.525333 17.365333-32.341333 39.744-35.498667 64 .021333 0 .042667 0 .064-.042667 42.666667-42.666667 81.706667-42.496 92.330667-42.496 33.045333.021333 70.421333 35.861333 80.810666 48.298667zm686.293334-69.738667c-18.965333-15.338667-38.336-21.205333-56.917334-21.205333-61.226667 0-113.749333 63.872-113.749333 63.872h-15.189333a395.413333 395.413333 0 0 1 40.149333 36.821333l8-9.749333c10.389333-12.437333 47.765333-48.298667 80.810667-48.298667 10.624 0 49.664-.170667 92.330666 42.496.021333.042667.042667.042667.064.042667-3.157333-24.234667-13.973333-46.613333-35.498666-63.978667zm-326.101334 575.957333c0 47.125333-85.333333 42.666667-85.333333 85.333334 0-42.666667-85.333333-38.208-85.333333-85.333334s38.208 0 85.333333 0 85.333333-47.125333 85.333333 0z"/><path d="m384 778.666667a10.666667 10.666667 0 1 0 21.333333 0 10.666667 10.666667 0 1 0 -21.333333 0z"/><path d="m362.666667 736a10.666667 10.666667 0 1 0 21.333333 0 10.666667 10.666667 0 1 0 -21.333333 0z"/><path d="m384 821.333333a10.666667 10.666667 0 1 0 21.333333 0 10.666667 10.666667 0 1 0 -21.333333 0z"/><path d="m341.333333 800a10.666667 10.666667 0 1 0 21.333334 0 10.666667 10.666667 0 1 0 -21.333334 0z"/><path d="m320 757.333333a10.666667 10.666667 0 1 0 21.333333 0 10.666667 10.666667 0 1 0 -21.333333 0z"/><path d="m426.666667 800a10.666667 10.666667 0 1 0 21.333333 0 10.666667 10.666667 0 1 0 -21.333333 0z"/><path d="m618.666667 778.666667a10.666667 10.666667 0 1 0 21.333333 0 10.666667 10.666667 0 1 0 -21.333333 0z"/><path d="m640 736a10.666667 10.666667 0 1 0 21.333333 0 10.666667 10.666667 0 1 0 -21.333333 0z"/><path d="m618.666667 821.333333a10.666667 10.666667 0 1 0 21.333333 0 10.666667 10.666667 0 1 0 -21.333333 0z"/><path d="m661.333333 800a10.666667 10.666667 0 1 0 21.333334 0 10.666667 10.666667 0 1 0 -21.333334 0z"/><path d="m682.666667 757.333333a10.666667 10.666667 0 1 0 21.333333 0 10.666667 10.666667 0 1 0 -21.333333 0z"/><path d="m576 800a10.666667 10.666667 0 1 0 21.333333 0 10.666667 10.666667 0 1 0 -21.333333 0z"/><path d="m469.333333 298.666667a42.666667 42.666667 0 1 0 85.333334 0 42.666667 42.666667 0 1 0 -85.333334 0z"/><path d="m490.666667 405.333333a21.333333 21.333333 0 1 0 42.666666 0 21.333333 21.333333 0 1 0 -42.666666 0z"/><path d="m451.925333 128a63.189333 63.189333 0 0 0 -3.925333 21.333333 64 64 0 0 0 128 0c0-7.530667-1.536-14.634667-3.925333-21.333333z"/><path d="m618.666667 213.333333a42.666667 42.666667 0 1 0 85.333333 0 42.666667 42.666667 0 1 0 -85.333333 0z"/><path d="m320 213.333333a42.666667 42.666667 0 1 0 85.333333 0 42.666667 42.666667 0 1 0 -85.333333 0z"/></g><path d="m832 522.666667a32 32 0 0 0 32 32c2.666667 0 5.205333-.426667 7.658667-1.045334l-6.784-62.869333c-.298667 0-.576-.085333-.874667-.085333a32 32 0 0 0 -32 32zm0 53.333333c-35.328 0-64 28.672-64 64a63.872 63.872 0 0 0 55.125333 63.125333c28.117333-37.76 47.210667-76.992 50.538667-111.338666a63.402667 63.402667 0 0 0 -41.664-15.786667zm-672-21.333333a32 32 0 0 0 0-64c-.298667 0-.576.085333-.874667.085333l-6.784 62.869333c2.453333.618667 4.992 1.045333 7.658667 1.045334zm32 21.333333c-16 0-30.464 6.08-41.664 15.786667 3.328 34.325333 22.421333 73.578667 50.538667 111.338666a63.872 63.872 0 0 0 55.125333-63.125333c0-35.328-28.672-64-64-64z" fill="#a36b07"/><path d="m597.333333 853.333333c-64 0-85.333333-42.666667-85.333333-42.666666s-21.333333 42.666667-85.333333 42.666666c-43.008 0-73.770667-9.749333-95.936-24.170666 25.856 29.973333 59.264 65.6 67.968 63.808 9.514667 1.813333 18.88 3.029333 27.968 3.029333 36.522667 0 64.789333-10.922667 85.333333-24.874667 20.544 13.952 48.810667 24.874667 85.333333 24.874667 9.088 0 18.453333-1.216 27.968-3.029333 8.682667 1.792 42.112-33.834667 67.968-63.808-22.165333 14.421333-52.928 24.170666-95.936 24.170666z" fill="#996704"/></svg>