<svg height="200" viewBox="0 0 1024 1024" width="200" xmlns="http://www.w3.org/2000/svg"><path d="m640 106.666667c-64.704 0-128 21.333333-128 21.333333s-63.296-21.333333-128-21.333333-256 17.792-256 234.666666 128 298.666667 128 298.666667h512s128-81.792 128-298.666667-191.296-234.666666-256-234.666666z" fill="#bf360c"/><path d="m384 405.333333v512s-234.666667-134.634666-234.666667-298.666666 106.666667-213.333333 106.666667-213.333334zm256 0v512s234.666667-134.634667 234.666667-298.666666-106.666667-213.333333-106.666667-213.333334z" fill="#e65100"/><path d="m512 469.333333-213.333333-42.666666c0 163.562667-9.344 276.010667 42.666666 384 45.994667 95.530667 170.666667 149.333333 170.666667 149.333333s124.672-53.802667 170.666667-149.333333c52.010667-108.010667 42.666667-220.437333 42.666666-384z" fill="#bf360c"/><path d="m426.666667 725.333333a85.333333 64 0 1 0 170.666666 0 85.333333 64 0 1 0 -170.666666 0z" fill="#ffcc80"/><path d="m661.333333 320c23.509333 0 38.506667-21.333333 64-21.333333 41.301333 0 64 26.709333 64 64 0 56.362667-85.333333 106.666667-85.333333 106.666666zm-298.666666 0c-23.509333 0-38.506667-21.333333-64-21.333333-41.301333 0-64 26.709333-64 64 0 56.362667 85.333333 106.666667 85.333333 106.666666z" fill="#f57f17"/><path d="m618.666667 298.666667c-74.368 0-106.666667 42.666667-106.666667 42.666666s-32.298667-42.666667-106.666667-42.666666c-74.368 0-106.666667 114.24-106.666666 149.333333 0 35.093333 85.333333 170.666667 85.333333 170.666667h256s85.333333-135.573333 85.333333-170.666667c0-35.093333-32.298667-149.333333-106.666666-149.333333z" fill="#fb8c00"/><path d="m394.666667 362.666667c74.666667 0 74.666667 106.666667 74.666666 106.666666h-62.229333c-87.104 0-87.104-106.666666-87.104-106.666666zm234.666666 0c-74.666666 0-74.666666 106.666666-74.666666 106.666666h62.229333c87.104 0 87.104-106.666666 87.104-106.666666z" fill="#5d4037"/><path d="m405.333333 362.666667a42.666667 42.666667 0 1 1 -.021333 85.354666 42.666667 42.666667 0 0 1 .021333-85.354666zm213.333334 0a42.666667 42.666667 0 1 0 .021333 85.354666 42.666667 42.666667 0 0 0 -.021333-85.354666z" fill="#eeff41"/><path d="m405.333333 384a21.333333 21.333333 0 1 1 0 42.666667 21.333333 21.333333 0 0 1 0-42.666667zm213.333334 0a21.333333 21.333333 0 1 0 0 42.666667 21.333333 21.333333 0 0 0 0-42.666667z" fill="#212121"/><path d="m725.333333 448c0-35.093333-19.562667-149.333333-106.666666-149.333333-74.368 0-106.666667 42.666667-106.666667 42.666666s-32.298667-42.666667-106.666667-42.666666c-81.770667 0-106.666667 114.24-106.666666 149.333333 0-41.344 100.672-108.010667 149.333333-21.333333 0 95.338667-45.994667 120-75.2 173.781333a84.544 84.544 0 0 0 -10.133333 39.552 85.333333 85.333333 0 0 0 85.333333 85.333333 84.736 84.736 0 0 0 64-29.44 84.736 84.736 0 0 0 64 29.44 85.333333 85.333333 0 0 0 85.333333-85.333333c0-14.357333-3.882667-27.669333-10.133333-39.552-29.205333-53.781333-75.2-78.442667-75.2-173.781333 48.661333-86.656 149.333333-19.989333 149.333333 21.333333z" fill="#ffb74d"/><path d="m592.810667 744.96c-5.504.896-11.050667 1.706667-16.810667 1.706667a105.813333 105.813333 0 0 1 -64-21.717334 105.813333 105.813333 0 0 1 -64 21.717334c-5.76 0-11.306667-.810667-16.810667-1.706667a49.28 49.28 0 0 1 -4.522666-19.626667c0-1.002667.32-1.92.384-2.901333 6.741333 1.706667 13.674667 2.901333 20.949333 2.901333a84.736 84.736 0 0 0 64-29.44 84.736 84.736 0 0 0 64 29.44c7.274667 0 14.208-1.194667 20.949333-2.901333.064.981333.384 1.898667.384 2.901333 0 6.890667-1.834667 13.418667-4.522666 19.626667zm-80.810667-126.293333c-47.125333 0-85.333333-47.125333-85.333333 0s85.333333 42.666667 85.333333 85.333333c0-42.666667 85.333333-38.208 85.333333-85.333333s-38.208 0-85.333333 0z" fill="#5d4037"/></svg>