<svg height="200" viewBox="0 0 1024 1024" width="200" xmlns="http://www.w3.org/2000/svg"><path d="m661.333333 576c-.298667 0-.576-.085333-.874666-.085333-3.584-.490667-18.368-4.010667-34.624-29.909334 12.714667-25.386667 86.165333-66.005333 86.165333-66.005333a96 96 0 0 0 -96-96h-125.333333v512h42.666666c69.696.042667 98.325333-26.432 128-85.333333 41.877333-83.114667 62.421333-209.706667 0-234.666667zm-341.333333 0c.298667 0 .576-.085333.874667-.085333 3.605333-.490667 18.389333-4.010667 34.645333-29.909334-12.714667-25.386667-86.186667-66.005333-86.186667-66.005333a96 96 0 0 1 96-96h125.333334v512h-42.666667c-69.696.042667-98.325333-26.432-128-85.333333-41.856-83.114667-62.421333-209.706667 0-234.666667z" fill="#bcaaa4"/><path d="m661.333333 405.333333-42.666666-42.666666c-42.666667-64-71.338667-63.957333-106.666667-63.957334h-42.666667c-35.349333 0-64-.042667-106.666666 63.957334l-35.498667 42.666666z" fill="#bcaaa4"/><path d="m684.394667 497.514667c-18.688 7.872-45.845333 23.082667-58.56 48.469333 16.256 25.92 31.04 29.418667 34.624 29.909333.298667.021333.576.106667.874666.106667a42.602667 42.602667 0 1 0 23.061334-78.485333zm-387.456 0c18.688 7.872 45.845333 23.082667 58.581333 48.469333-16.256 25.92-31.04 29.418667-34.645333 29.909333-.298667.021333-.576.106667-.874667.106667a42.602667 42.602667 0 1 1 -23.061333-78.485333z" fill="#4e342e"/><path d="m715.925333 496.810667a77.034667 77.034667 0 0 1 -11.584-10.581334l-1.024-1.237333c-8.213333 4.8-21.12 12.629333-34.282666 21.653333 7.616 4.522667 13.632 6.101333 20.330666 7.850667 6.826667 1.6 13.589333 2.410667 20.16 2.666667a116.16 116.16 0 0 0 37.141334-5.162667 105.045333 105.045333 0 0 1 -30.741334-15.189333zm-403.605333 9.856a591.573333 591.573333 0 0 0 -34.282667-21.674667l-1.024 1.237333a78.08 78.08 0 0 1 -11.584 10.581334 105.173333 105.173333 0 0 1 -30.762666 15.189333 116.202667 116.202667 0 0 0 37.162666 5.162667c6.592-.234667 13.333333-1.045333 20.16-2.666667 6.677333-1.749333 12.672-3.328 20.330667-7.829333z" fill="#5d4037"/><path d="m576 832c0-47.125333-38.208-42.666667-85.333333-42.666667s-85.333333-4.458667-85.333334 42.666667a85.333333 85.333333 0 0 0 170.666667 0z" fill="#795548"/><path d="m554.666667 810.666667c-21.333333 21.333333-28.650667 64-64 64s-42.666667-42.666667-64-64c-24.981333-24.981333 28.650667-64 64-64s89.002667 39.018667 64 64z" fill="#3e2723"/><path d="m448 746.666667h85.333333v85.333333h-85.333333z" fill="#efebe9"/><path d="m618.666667 789.333333c0 21.333333-30.869333 42.666667-42.666667 42.666667 0 0-85.333333 0-85.333333-42.666667 0 42.666667-85.333333 42.666667-85.333334 42.666667-11.776 0-42.666667-21.333333-42.666666-42.666667 0-106.666667 64-106.666667 64-234.666666 0-42.666667 9.557333-42.666667 21.333333-42.666667h85.333333c11.797333 0 21.333333 0 21.333334 42.666667 0 128 64 128 64 234.666666z" fill="#8d6e63"/><path d="m426.666667 533.333333a64 64 0 1 0 128 0 64 64 0 1 0 -128 0z" fill="#8d6e63"/><path d="m277.333333 442.474667a96.149333 96.149333 0 0 1 65.024-55.402667l20.309334-24.405333c10.176-15.232 19.52-26.752 28.373333-35.605334-26.282667-28.992-75.562667-98.922666-28.373333-177.728 39.104-65.322667-64.896-37.290667-64.896-37.290666s-105.770667 37.290666-84.437334 143.957333 64 128 64 149.333333zm426.837334.597333a96.149333 96.149333 0 0 0 -65.024-55.402667l-20.309334-24.405333c-10.176-15.232-19.52-26.752-28.352-35.605333 26.261334-28.992 75.541334-98.922667 28.352-177.728-39.104-65.301334 64.896-37.290667 64.896-37.290667s105.770667 37.290667 84.437334 143.957333-64 128-64 149.333334zm-213.504 228.928c-10.666667-10.666667-21.333333-10.666667-21.333334 32 0 106.666667-9.344 108.458667-28.437333 124.458667 12.437333-2.24 28.437333-9.578667 28.437333-9.578667 12.224-6.336 21.333333-15.616 21.333334-29.546667zm0 0c10.666667-10.666667 21.333333-10.666667 21.333333 32 0 106.666667 9.344 108.458667 28.437333 124.458667-12.437333-2.24-28.437333-9.578667-28.437333-9.578667-12.224-6.336-21.333333-15.616-21.333333-29.546667z" fill="#6d4c41"/><path d="m469.354667 704.042667-.021334-.042667h-64v-32.448c0-21.333333 15.274667-27.904 34.133334-27.904h51.2v60.373333h-21.312zm42.624 0 .021333-.042667h64v-32.448c0-21.333333-15.296-27.904-34.133333-27.904h-51.2v60.373333h21.312z" fill="#6d4c41"/><path d="m342.357333 387.072 20.309334-24.405333c10.176-15.232 19.52-26.752 28.373333-35.605334-26.282667-28.992-75.562667-98.922666-28.373333-177.728-100.778667 80.661333-64.896 169.856-42.389334 246.378667a95.594667 95.594667 0 0 1 22.08-8.64zm296.789334.597333-20.309334-24.405333c-10.176-15.232-19.52-26.752-28.352-35.605333 26.261334-28.992 75.541334-98.922667 28.352-177.728 100.778667 80.661333 64.896 169.856 42.389334 246.378666a95.594667 95.594667 0 0 0 -22.08-8.64z" fill="#a1887f"/><path d="m320.298667 395.882667c-13.248-45.12-31.018667-94.634667-22.890667-144.234667-43.584 48.981333-23.658667 120.682667-3.541333 164.906667 7.509333-8.362667 16.426667-15.338667 26.432-20.672zm340.885333.597333c13.248-45.12 31.018667-94.634667 22.890667-144.234667 43.584 48.981333 23.658667 120.682667 3.541333 164.906667a95.765333 95.765333 0 0 0 -26.432-20.672z" fill="#3e2723"/><path d="m576 704s-30.869333 21.333333-42.666667 21.333333a21.333333 21.333333 0 0 1 0-42.666666c11.797333 0 42.666667 21.333333 42.666667 21.333333zm-170.666667 0s30.890667 21.333333 42.666667 21.333333a21.333333 21.333333 0 0 0 0-42.666666c-11.776 0-42.666667 21.333333-42.666667 21.333333z"/></svg>