<svg height="200" viewBox="0 0 1024 1024" width="200" xmlns="http://www.w3.org/2000/svg"><path d="m533.333333 91.861333v93.632a21.333333 21.333333 0 0 1 -42.666666 0v-93.632c-24.810667 14.698667-42.666667 53.781333-42.666667 100.138667v78.805333h128v-78.805333c0-46.357333-17.877333-85.44-42.666667-100.138667z" fill="#6d4c41"/><path d="m577.344 256h-130.666667c-99.114666 70.208-126.677333 295.018667-126.677333 384 0 106.069333 85.952 192 192 192s192-85.930667 192-192c0-88.981333-27.541333-313.792-126.656-384z" fill="#ff3d00"/><path d="m449.28 256c-38.933333 53.546667-65.28 144.106667-65.28 192 0 70.656 57.322667 128 128 128s128-57.344 128-128c0-47.893333-26.325333-138.453333-65.301333-192z" fill="#4e342e"/></svg>