<svg height="200" viewBox="0 0 1024 1024" width="200" xmlns="http://www.w3.org/2000/svg"><path d="m740.16 426.666667s226.496-48 91.84-320c-38.869333 48.576-115.029333 85.674667-149.333333 149.077333-18.261333 33.792-28.181333 81.088-6.464 128.256 0 0-18.645333 63.829333 63.957333 42.666667zm-456.234667 0s-226.496-48-91.84-320c38.869333 48.576 115.029333 85.674667 149.333334 149.077333 18.261333 33.792 28.181333 81.088 6.464 128.256 0 0 18.645333 63.829333-63.957334 42.666667z" fill="#ff80ab"/><path d="m704 362.666667c0 11.754667 45.333333-21.333333 64-21.333334a21.333333 21.333333 0 1 0 0-42.666666c-19.989333 0-64 52.245333-64 64zm-384 0c0 11.754667-41.344-21.333333-64-21.333334a21.333333 21.333333 0 1 1 0-42.666666c21.333333 0 64 52.245333 64 64z" fill="#880e4f"/><g fill="#f8bbd0"><path d="m277.333333 480a288 234.666667 90 1 0 469.333334 0 288 234.666667 90 1 0 -469.333334 0z"/><path d="m170.666667 640a341.333333 256 0 1 0 682.666666 0 341.333333 256 0 1 0 -682.666666 0z"/><path d="m405.333333 853.333333a106.666667 64 0 1 0 213.333334 0 106.666667 64 0 1 0 -213.333334 0z"/></g><path d="m661.333333 554.666667c0 58.901333-66.858667 85.333333-149.333333 85.333333s-149.333333-26.432-149.333333-85.333333 66.858667-128 149.333333-128 149.333333 69.098667 149.333333 128z" fill="#fce4ec"/><path d="m576 426.666667a21.333333 21.333333 0 1 0 42.666667 0 21.333333 21.333333 0 1 0 -42.666667 0z" fill="#263238"/><path d="m337.450667 704s67.712 104.725333 174.549333 104.725333 170.666667-104.725333 170.666667-104.725333z" fill="#b71c1c"/><path d="m554.666667 661.333333c-26.730667 0-42.666667 21.333333-42.666667 21.333334s-15.936-21.333333-42.666667-21.333334c-46.784 0-71.274667 42.666667-131.882666 42.666667 0 0 75.733333 21.333333 174.549333 21.333333s174.549333-21.333333 174.549333-21.333333c-60.608 0-85.098667-42.666667-131.882666-42.666667z" fill="#d50000"/><path d="m576 426.666667a21.333333 21.333333 0 1 0 42.666667 0 21.333333 21.333333 0 1 0 -42.666667 0z" fill="#212121"/><path d="m405.333333 425.856a21.333333 21.333333 0 1 0 42.666667 0 21.333333 21.333333 0 1 0 -42.666667 0z" fill="#212121"/><path d="m426.666667 544a32 21.333333 90 1 0 42.666666 0 32 21.333333 90 1 0 -42.666666 0z" fill="#880e4f"/><path d="m554.666667 544a32 21.333333 90 1 0 42.666666 0 32 21.333333 90 1 0 -42.666666 0z" fill="#880e4f"/></svg>