<svg height="200" viewBox="0 0 1024 1024" width="200" xmlns="http://www.w3.org/2000/svg"><path d="m777.834667 709.205333c-5.909333 2.965333-88.96 50.389333-118.613334 68.181334-38.570667 20.778667-77.098667 35.584-97.856 35.584-1.514667 0-2.965333-.256-4.458666-.298667h.021333l-.213333.917333a212.992 212.992 0 0 1 -32.874667 75.157334c23.488 4.8 46.208 7.253333 67.178667 7.253333 68.202667 0 124.544-5.909333 166.058666-17.792 23.296-2.88 65.237333-23.701333 65.237334-23.701333 21.781333-10.901333 30.058667-59.84-25.941334-43.84 72.661333-69.994667 44.906667-140.032-18.538666-101.461334z" fill="#dd2c00"/><path d="m515.050667 804.501333a.298667.298667 0 0 0 -.128-.042666l.213333.064c-69.952-25.898667-111.061333-106.88-110.912-163.52.128-46.997333 39.872-109.824 77.312-145.258667 14.336-13.568 33.578667-58.410667-5.162667-69.077333-37.781333-75.114667-74.048-65.258667-112.597333-172.010667-55.402667-19.989333-116.714667 110.570667-116.714667 110.570667-108.970667 291.370667 67.072 458.688 232.512 511.936l-.042666-.021334a170.133333 170.133333 0 0 0 35.52-72.64zm277.994666 8.170667s-105.536 58.154667-250.325333 42.602667a217.856 217.856 0 0 1 -18.858667 33.493333c23.466667 4.778667 46.186667 7.232 67.157334 7.232 68.202667 0 124.544-5.909333 166.058666-17.792 23.296-2.88 65.237333-23.701333 65.237334-23.701333 21.781333-10.901333 30.058667-59.84-25.941334-43.84l.426667-.448z" fill="#ff5722"/><path d="m733.269333 255.125333 162.730667-106.666666s-85.589333 15.424-142.293333 22.208c17.792-8.874667 88.170667-42.666667 85.184-42.666667-385.472 41.514667-428.757333 62.272-464.341334 97.877333-50.410666 44.458667 63.850667 228.032 123.157334 222.122667 118.848-61.333333 277.013333-135.594667 320-192z" fill="#ff5722"/><path d="m556.928 812.693333c-.021333 0-.021333 0 0 0a133.333333 133.333333 0 0 1 -20.949333-2.389333l-1.6-.341333a130.218667 130.218667 0 0 1 -19.242667-5.44l-.213333-.064.128.042666a169.728 169.728 0 0 1 -35.498667 72.64l.042667.021334c6.677333 2.176 13.376 4.138667 20.010666 5.909333a1079.274667 1079.274667 0 0 0 24.277334 5.696 213.333333 213.333333 0 0 0 32.874666-75.157333zm-103.04-50.986666a198.4 198.4 0 0 1 -25.322667-35.456l.021334.042666a262.762667 262.762667 0 0 1 -92.949334 71.701334c12.074667 10.218667 24.725333 19.584 37.738667 28.16a306.026667 306.026667 0 0 0 80.512-64.448zm-49.685333-120.704c.021333-6.528.981333-13.397333 2.410666-20.416-31.552 6.549333-64.192 10.026667-97.642666 10.026666-29.034667 0-57.408-2.730667-85.013334-7.68 4.010667 15.701333 9.045333 30.698667 15.018667 45.034667 23.424 3.178667 46.869333 5.312 69.994667 5.312 32.597333 0 65.28-3.221333 97.344-9.28a139.264 139.264 0 0 1 -2.112-22.997333zm24.362666-76.032a304.426667 304.426667 0 0 1 25.237334-38.229334 418.496 418.496 0 0 1 -222.122667-113.749333 506.154667 506.154667 0 0 0 -11.008 47.637333 458.24 458.24 0 0 0 207.893333 104.341334zm66.282667-116.821334c-50.88 0-137.194667-127.957333-132.245333-193.706666-14.357333-4.650667-29.034667.682667-42.965334 11.072.682667 16.704 4.608 36.544 13.504 60.032 24.149333 63.872 88.384 156.885333 153.28 164.522666 7.893333-10.624 15.061333-28.096 11.946667-42.389333l-.64.341333c-.96.064-1.92.128-2.88.128z" fill="#ffccbc"/><path d="m668.373333 170.666667a42.666667 42.666667 0 1 0 85.333334 0 42.666667 42.666667 0 1 0 -85.333334 0z" fill="#3e2723"/></svg>