<svg height="200" viewBox="0 0 1024 1024" width="200" xmlns="http://www.w3.org/2000/svg"><path d="m490.666667 640 21.333333 169.344" fill="#dd2c00"/><path d="m661.333333 830.677333c-21.333333 0-42.666667 21.333333-42.666666 42.666667l-96-21.333333c-10.666667 0-32-14.336-32-32a32 32 0 0 1 32-32h117.333333c-21.333333 21.333333 21.333333 42.666667 21.333333 42.666666z" fill="#dd2c00"/><path d="m618.666667 874.666667c-21.333333 0-42.666667 21.333333-42.666667 42.666666l-96-21.333333c-10.666667 0-32-14.336-32-32a32 32 0 0 1 32-32h117.333333c-21.333333 21.333333 21.333333 42.666667 21.333334 42.666667z" fill="#ff3d00"/><path d="m132.096 683.285333a725.461333 725.461333 0 0 0 -25.429333 84.714667c469.333333 0 470.677333-249.813333 470.165333-323.008-1.109333 60.266667-37.546667 247.594667-444.736 238.293333z" fill="#78909c"/><path d="m704 151.082667s128-21.333333 170.666667 85.333333c-64 85.333333-170.666667 60.586667-170.666667 60.586667z" fill="#ff5722"/><path d="m746.666667 426.666667-42.666667-129.664-213.333333-83.669334v128c-20.352 20.352-273.706667 60.373333-371.008 379.114667 3.946667-12.8 8.042667-25.237333 12.437333-37.162667 407.189333 9.301333 443.626667-178.048 444.736-238.293333.064 8.128-.298667 18.794667-1.472 31.082667 2.858667-29.738667.64-49.408.64-49.408z" fill="#455a64"/><path d="m490.666667 213.333333a128 128 0 1 0 256 0 128 128 0 1 0 -256 0z" fill="#455a64"/><path d="m746.666667 426.666667h-170.666667s.768 7.104.810667 19.072l.021333-.746667c.512 73.194667-.832 323.008-470.165333 323.008 850.389333 70.869333 640-341.333333 640-341.333333zm0-213.333334c0 47.146667-38.186667 85.333333-85.333334 85.333334s-149.333333-85.333333-149.333333-85.333334 102.186667-85.333333 149.333333-85.333333 85.333333 38.208 85.333334 85.333333z" fill="#cfd8dc"/><path d="m661.333333 192a21.333333 21.333333 0 1 1 -42.666666 0c0-11.797333 21.333333-42.666667 21.333333-42.666667s21.333333 30.869333 21.333333 42.666667z" fill="#263238"/></svg>