<svg height="200" viewBox="0 0 1024 1024" width="200" xmlns="http://www.w3.org/2000/svg"><path d="m277.333333 700.309333a4258.837333 4258.837333 0 0 0 -64-5.248c-18.56 0-36.138667-3.712-52.053333-10.218666a129.664 129.664 0 0 1 -36.714667-22.698667 73.770667 73.770667 0 0 0 -5.077333 48.917333c21.525333 87.893334 93.482667 115.392 157.845333 120.064z" fill="#546e7a"/><path d="m746.666667 661.376c-68.693334 109.866667-190.4 213.290667-320 213.290667s-234.666667-105.066667-234.666667-234.666667 105.066667-234.666667 234.666667-234.666667l128 .042667c19.584 0 42.666667-21.333333 42.666666-42.709333 312.896-5.290667 234.666667 149.376 149.333334 298.709333z" fill="#cfd8dc"/><path d="m661.333333 277.333333c-117.845333-58.944-333.952-42.752-335.978666-42.965333a53.333333 53.333333 0 1 1 10.602666-106.112c9.109333.896 224.234667-8.298667 359.872 90.688 50.837333 37.098667 37.034667 45.205333 23.850667 71.552-9.344 18.688-50.688-9.322667-58.346667-13.162667z" fill="#78909c"/><path d="m938.666667 426.666667c0 70.677333-142.656 64-213.333334 64a128 128 0 0 1 0-256c70.677333 0 213.333333 64 213.333334 192z" fill="#78909c"/><path d="m651.797333 258.005333c-150.784-71.466666-355.797333-45.738666-364.885333-45.525333a53.333333 53.333333 0 1 0 2.176 106.645333c1.92-.042667 191.914667-37.461333 317.482667-4.074666a128.32 128.32 0 0 1 45.226666-57.045334z" fill="#b0bec5"/><path d="m789.333333 832v-249.898667c-12.565333 25.984-27.477333 52.714667-42.666666 79.274667a547.2 547.2 0 0 1 -62.72 81.728l20.053333 110.336s0 42.56 42.666667 42.56h85.333333v-21.333333s0-42.666667-42.666667-42.666667zm-256-138.666667c0 181.333334-213.333333 138.666667-277.333333 138.666667v-138.666667a138.666667 138.666667 0 1 1 277.333333 0z" fill="#90a4ae"/><path d="m576 832h-320v64h362.666667v-21.333333a42.666667 42.666667 0 0 0 -42.666667-42.666667z" fill="#90a4ae"/><path d="m853.333333 362.666667h-51.669333c-42.666667 0-54.997333-64-54.997333-64h52.330666c42.666667 0 54.336 64 54.336 64z" fill="#455a64"/><path d="m768 330.666667a32 32 0 1 0 64 0 32 32 0 1 0 -64 0z"/></svg>