<svg height="200" viewBox="0 0 1024 1024" width="200" xmlns="http://www.w3.org/2000/svg"><g fill="#ffc107"><path d="m469.333333 832c-1.813333 22.549333 2.304 39.04 16.341334 56.298667a85.653333 85.653333 0 0 0 57.92 30.378666c21.290667 2.496 43.712-6.144 58.538666-23.701333 7.381333-8.64 12.693333-19.242667 15.210667-30.741333 1.258667-6.208 1.834667-11.008 1.450667-18.069334.106667-3.861333-1.429333-10.56-3.242667-15.530666-7.722667-21.504-29.781333-38.165333-55.637333-37.76a46.997333 46.997333 0 0 0 -31.616 13.546666c-8.853333 8.533333-14.336 21.034667-14.762667 33.706667a40.106667 40.106667 0 0 0 16.042667 33.109333c10.218667 7.850667 25.728 11.157333 37.888 5.845334a35.477333 35.477333 0 0 0 21.632-33.408c-.021333-14.336-12.906667-28.373333-28.885334-28.949334 15.786667-1.237333 32.042667 11.285333 34.218667 28.672 2.389333 16.512-6.506667 34.752-22.208 43.285334-16.128 8.938667-35.690667 6.976-51.434667-2.069334a58.816 58.816 0 0 1 -28.565333-45.397333c-3.882667-37.376 24.853333-75.52 66.069333-80.298667 36.949333-5.12 78.186667 15.872 96.042667 51.882667 4.48 9.301333 7.893333 17.642667 9.6 29.376 1.472 8.448 1.898667 19.392.917333 28.714667a121.258667 121.258667 0 0 1 -19.52 55.338666c-21.525333 33.557333-61.546667 56.042667-102.954666 56.448-39.530667 1.301333-80.277333-13.973333-110.016-42.069333a160 160 0 0 1 -49.194667-95.168l-1.408-14.549333z"/><path d="m512 256c0-21.781333 20.885333-166.912 20.672-164.992a94.869333 94.869333 0 0 0 -31.338667-5.674667c-37.376 0-69.397333 21.589333-85.269333 52.757334 1.642667-5.077334-10.730667 37.568-10.730667 75.242666 0 85.333333 64 170.666667 64 277.333334s-32.661333 118.677333-85.333333 234.666666c0 0-29.994667 82.005333 16 171.328l69.333333-64.661333s0-85.333333 64-128c43.242667-28.842667 170.666667-79.936 170.666667-213.333333 0-149.333333-192-192-192-234.666667z"/><path d="m512 256c0-21.781333 20.885333-166.912 20.672-164.992a94.869333 94.869333 0 0 0 -31.338667-5.674667c-37.376 0-69.397333 21.589333-85.269333 52.757334 1.642667-5.077334-10.730667 37.568-10.730667 75.242666 0 85.333333 64 170.666667 64 277.333334s-32.661333 118.677333-85.333333 234.666666c0 0-29.994667 82.005333 16 171.328l69.333333-64.661333s0-85.333333 64-128c43.242667-28.842667 170.666667-79.936 170.666667-213.333333 0-149.333333-192-192-192-234.666667z"/><path d="m426.666667 170.666667a85.333333 85.333333 0 1 0 170.666666 0 85.333333 85.333333 0 1 0 -170.666666 0z"/><path d="m737.130667 317.76s-139.797334-83.093333-225.130667-61.76l85.333333-106.666667c0 42.666667 158.869333 130.24 158.869334 130.24z"/><path d="m610.922667 131.477333c6.549333 16.426667 14.421333 74.666667-2.005334 81.237334s-50.88-41.045333-57.429333-57.429334a31.978667 31.978667 0 0 1 17.834667-41.6 32.042667 32.042667 0 0 1 41.6 17.792zm147.712 179.157334c-12.501333 12.501333-27.968 20.032-52.842667-15.530667-10.154667-14.485333-9.536-45.077333 7.082667-39.104 33.322667 11.968 33.258667-3.114667 45.76 9.365333s12.48 32.768 0 45.269334zm-391.125334 64.469333a176.512 176.512 0 0 1 -26.176-33.770667s-106.666667 128 0 277.333334a177.557333 177.557333 0 0 1 26.496-34.154667c-46.336-89.066667-22.016-167.061333-.32-209.408z"/></g><path d="m430.741333 634.410667c-6.229333 11.285333-13.077333 23.552-20.586666 37.76 31.722667 12.181333 73.472 30.122667 103.168 48.533333 5.866667-6.016 12.458667-11.669333 20.010666-16.704 4.608-3.093333 10.325333-6.464 16.576-10.133333-33.770667-24-84.096-45.781333-119.168-59.456zm38.144-155.989334c.192 4.074667.448 8.128.448 12.245334 0 11.413333-.448 21.546667-1.173333 31.04 56.896 9.984 141.205333 28.330667 213.226667 57.962666 6.677333-12.053333 12.16-25.194667 16.064-39.552-79.125333-32.533333-169.877333-51.733333-228.565334-61.696zm4.010667 323.541334a184.64 184.64 0 0 1 14.4-43.498667c-31.594667-23.466667-71.914667-38.997333-96.746667-47.104-2.154667 4.565333-4.309333 9.066667-6.549333 13.973333 0 0-3.584 10.048-6.4 26.709334 25.408 8.32 68.885333 25.237333 95.296 49.92zm-8.896-365.845334c70.613333 9.792 171.712 27.797333 239.872 56.874667 0-.789333.128-1.514667.128-2.325333 0-16.704-2.709333-31.893333-6.954667-46.08-77.482667-28.096-178.325333-44.586667-244.010666-53.077334 4.309333 14.485333 8.106667 29.376 10.965333 44.608zm-2.816 128.768a222.037333 222.037333 0 0 1 -15.189333 40.469334c40.874667 8.768 104.042667 25.237333 162.304 52.202666a305.536 305.536 0 0 0 35.925333-29.888c-64.149333-32.704-135.658667-52.309333-183.04-62.784zm-49.792-302.826666c32.298667 6.72 84.48 17.92 133.802667 29.717333-19.669334-13.205333-33.194667-35.776-33.194667-35.776s-85.333333-42.666667-106.496-38.698667c.341333 14.869333 2.453333 29.738667 5.888 44.757334zm194.24 69.653333c-70.912-14.208-141.162667-23.765333-182.506667-28.778667 4.864 14.762667 10.218667 29.738667 15.594667 45.013334 58.325333 7.573333 151.296 21.504 229.376 41.578666-17.856-22.954667-40.106667-41.898667-62.464-57.813333z" fill="#ff9800"/><path d="m501.333333 85.333333c11.050667 0 21.461333 2.24 31.338667 5.674667l.661333-5.674667v-42.666666s-86.570667.234667-117.269333 95.424c15.872-31.168 47.893333-52.757334 85.269333-52.757334z" fill="#ffc107"/><path d="m501.333333 85.333333c11.050667 0 21.461333 2.24 31.338667 5.674667l.661333-5.674667v-42.666666s-86.570667.234667-117.269333 95.424c15.872-31.168 47.893333-52.757334 85.269333-52.757334zm-39.850666 338.688c-30.378667-6.058667-65.365333-19.882667-94.506667-49.514666.192.192.341333.426667.533333.597333-21.674667 42.346667-45.994667 120.341333.341334 209.408-2.752 2.773333-5.333333 5.973333-7.978667 9.024 32.085333-36.970667 72.874667-52.544 106.944-58.432 1.6-13.013333 2.517333-27.434667 2.517333-44.437333 0-23.168-3.114667-45.269333-7.850666-66.645334z" fill="#ff9800"/><path d="m554.666667 149.333333a21.333333 21.333333 0 1 0 42.666666 0 21.333333 21.333333 0 1 0 -42.666666 0z" fill="#795548"/></svg>