<svg height="200" viewBox="0 0 1024 1024" width="200" xmlns="http://www.w3.org/2000/svg"><path d="m789.333333 746.666667c-21.333333-512-554.666666-618.666667-554.666666-618.666667s29.312 75.456 48.96 179.882667l100.373333 33.450666h-94.613333c2.944 18.730667 5.504 38.08 7.445333 57.984l129.834667 48.682667h-126.378667c4.352 101.802667-9.664 210.730667-65.621333 298.666667z" fill="#3949ab"/><path d="m704 725.333333-469.333333 21.333334h554.666666c-21.333333-512-554.666666-618.666667-554.666666-618.666667s7.146667 18.453333 16.768 49.664c12.522667 3.114667 28.224 7.445333 48.64 13.994667 134.101333 47.637333 367.936 205.333333 403.925333 533.674666z" fill="#1a237e"/><path d="m938.666667 725.333333c-64 0-85.333333-42.666667-85.333334-42.666666s-21.333333 42.666667-85.333333 42.666666-85.333333-42.666667-85.333333-42.666666-21.333333 42.666667-85.333334 42.666666-85.333333-42.666667-85.333333-42.666666-21.333333 42.666667-85.333333 42.666666-85.333333-42.666667-85.333334-42.666666-21.333333 42.666667-85.333333 42.666666-85.333333-42.666667-85.333333-42.666666-21.333333 42.666667-85.333334 42.666666v170.666667h853.333334z" fill="#90caf9"/><path d="m938.666667 810.666667c-64 0-85.333333-42.666667-85.333334-42.666667s-21.333333 42.666667-85.333333 42.666667-85.333333-42.666667-85.333333-42.666667-21.333333 42.666667-85.333334 42.666667-85.333333-42.666667-85.333333-42.666667-21.333333 42.666667-85.333333 42.666667-85.333333-42.666667-85.333334-42.666667-21.333333 42.666667-85.333333 42.666667-85.333333-42.666667-85.333333-42.666667-21.333333 42.666667-85.333334 42.666667v85.333333h853.333334z" fill="#2196f3"/></svg>