<svg height="200" viewBox="0 0 1024 1024" width="200" xmlns="http://www.w3.org/2000/svg"><path d="m809.664 296.234667-.277333.042666a74.538667 74.538667 0 0 0 -148.053334 12.629334c0 4.565333.554667 9.002667 1.344 13.333333l.021334.128c.170667.896.298667 1.770667.490666 2.645333 62.528 317.141334-87.68 335.957334-257.856 357.248-236.672 29.568-277.333333 149.333333-277.333333 149.333334s0 42.666667 42.666667 42.666666l426.666666-.042666s256 .042667 256-255.957334c0-149.333333-22.336-172.672-43.669333-322.026666z" fill="#795548"/><path d="m810.666667 148.928a42.666667 42.666667 0 1 0 85.333333 0 42.666667 42.666667 0 1 0 -85.333333 0z" fill="#5d4037"/><path d="m576 148.928a42.666667 42.666667 0 1 0 85.333333 0 42.666667 42.666667 0 1 0 -85.333333 0z" fill="#5d4037"/><path d="m810.794667 303.637333c-6.442667-15.594667-22.122667-26.752-42.794667-26.752a42.666667 42.666667 0 0 0 -42.666667 42.666667c0 6.890667 53.034667 277.930667 0 384-64 128-149.333333 128-192 128h-405.333333v.042667s0 42.666667 42.666667 42.666666l426.666666-.042666s277.333333 21.333333 277.333334-234.666667c0-146.709333-42.666667-170.666667-63.872-335.914667z" fill="#bcaaa4"/><path d="m677.333333 425.344c-.362667-.448-.469333-.917333-.768-1.408 13.802667 222.485333-120.874666 239.530667-271.232 258.325333-54.336 6.762667-97.92 18.432-133.461333 32.192-9.322667 6.506667-15.893333 9.493333-18.645333 7.701334a305.493333 305.493333 0 0 0 -42.133334 22.016l-.085333.042666c38.933333 29.866667 84.757333 51.2 134.784 60.693334 6.186667 1.152 13.461333 2.218667 21.482667 3.285333 2.304.277333 4.586667.682667 6.912.896 13.696 1.578667 29.226667 2.709333 45.952 2.709333 14.037333 0 27.818667-.789333 40.917333-2.368l9.066667-1.088 7.829333-4.693333a344.064 344.064 0 0 0 66.154667-51.285333c17.066667-17.066667 31.424-36.096 43.456-56.32 63.893333-15.168 135.104-53.12 137.6-130.901334.149333-4.181333 6.848-65.130667-47.829334-139.797333z" fill="#4e342e"/><path d="m128 490.666667a276.266667 276.266667 0 0 1 70.826667-185.088 276.608 276.608 0 0 1 206.506666-92.245334c153.173333 0 277.333333 124.16 277.333334 277.333334 0 3.050667 4.010667 40-4.010667 73.344-23.978667 107.989333-145.322667 97.322666-145.322667 97.322666s-66.709333 106.666667-128 106.666667c-153.173333 0-277.333333-124.16-277.333333-277.333333z" fill="#ff9800"/><path d="m370.773333 341.994667c4.373333-.32 8.768-.661333 13.226667-.661334 11.114667 0 21.994667 1.152 32.533333 3.178667 12.032-28.650667 26.901333-75.562667 24.384-128.64a279.68 279.68 0 0 0 -35.584-2.538667c-2.474667 0-4.864.341333-7.317333.405334 3.754667 57.194667-17.258667 107.797333-27.242667 128.256zm-62.144 17.045333a168.704 168.704 0 0 1 44.928-14.826667c3.456-35.669333 2.346667-80.512-14.442666-122.624-13.930667 3.413333-27.413333 7.914667-40.448 13.354667 17.792 42.666667 15.210667 91.050667 9.962666 124.096zm173.397334 13.376c17.28-27.157333 42.368-73.877333 51.306666-127.616a274.666667 274.666667 0 0 0 -40.554666-17.173333c-6.101333 52.288-32.512 99.882667-48.661334 124.8 13.525333 5.12 26.261333 11.797333 37.909334 19.989333zm-280.448 136.085333 11.989333 7.957334c-.042667-1.493334-.234667-2.965334-.234667-4.458667 0-14.762667 2.090667-28.992 5.610667-42.666667-12.736-6.869333-44.48-20.928-87.765333-18.624a277.12 277.12 0 0 0 -3.178667 39.957334c0 1.024.149333 2.005333.149333 3.029333 42.944-4.074667 71.424 13.482667 73.429334 14.805333zm15.381333-91.264 11.797333 17.685334 4.608-3.093334a171.52 171.52 0 0 1 63.424-66.325333c-5.44-31.125333-23.637333-68.885333-53.674666-99.626667a277.333333 277.333333 0 0 0 -32.490667 27.861334c29.909333 29.76 45.376 68.010666 45.376 90.261333v14.869333l-3.584-5.376c-1.429333-2.154667-26.56-38.698667-75.648-59.413333-8.106667 11.797333-15.402667 24.170667-21.632 37.205333 39.978667 14.890667 60.522667 44.053333 61.824 45.952zm-2.389333 114.538667-7.978667 2.666667c-2.048.682667-35.669333 12.288-64.661333 42.624 5.034667 15.445333 11.306667 30.272 18.88 44.394666 22.549333-33.322667 58.304-46.208 59.349333-46.592l4.736-1.578666a168.405333 168.405333 0 0 1 -10.325333-41.514667zm332.992-61.226667 14.144 40.277334c31.04-10.858667 81.856-44.864 107.072-106.517334a275.648 275.648 0 0 0 -28.437334-60.416c-9.664 95.36-88.874667 125.248-92.778666 126.656zm-26.026667-46.122666c3.2-1.6 65.258667-33.685333 88.448-120.426667a276.458667 276.458667 0 0 0 -36.672-33.621333c-12.714667 84.202667-67.818667 114.261333-70.954667 115.925333l-19.008 9.493333zm36.629333 193.941333c32.277333-5.376 85.333333-26.773333 123.626667-72.298667 3.477333-27.434667.874667-52.906667.874667-55.402666 0-11.690667-.96-23.125333-2.368-34.453334-23.957333 100.373333-124.672 119.296-129.194667 120.085334l-13.973333 45.589333z" fill="#ffb74d"/><path d="m513.962667 378.24c-37.546667-37.568-87.488-58.24-140.586667-58.24s-103.04 20.693333-140.608 58.24c-63.658667 63.658667-63.658667 167.296 0 230.976a135.061333 135.061333 0 0 0 190.805333-.021333c21.205333-21.184 32.874667-49.365333 32.874667-79.36s-11.690667-58.154667-32.874667-79.317334c-17.749333-17.770667-41.365333-27.562667-66.496-27.562666s-48.746667 9.792-66.496 27.562666a79.573333 79.573333 0 0 0 0 112.426667 68.032 68.032 0 0 0 96 0 21.312 21.312 0 1 0 -30.165333-30.165333 25.258667 25.258667 0 0 1 -35.669333 0 36.864 36.864 0 0 1 0-52.074667c19.413333-19.413333 53.248-19.434667 72.661333.021333 13.141333 13.098667 20.373333 30.570667 20.373333 49.130667a69.12 69.12 0 0 1 -20.373333 49.194667 92.330667 92.330667 0 0 1 -130.474667.021333 120.810667 120.810667 0 0 1 0-170.645333c29.504-29.504 68.736-45.76 110.442667-45.76s80.917333 16.256 110.421333 45.76c78.186667 78.186667 78.186667 205.397333 0 283.584a254.208 254.208 0 0 1 -133.205333 70.442666c22.997333 4.373333 63.125333 9.685333 105.408 4.629334a300.16 300.16 0 0 0 57.962667-44.885334c94.805333-94.848 94.805333-249.130667 0-343.957333z" fill="#ce630b"/></svg>