<svg height="200" viewBox="0 0 1024 1024" width="200" xmlns="http://www.w3.org/2000/svg"><path d="m405.333333 512a106.666667 106.666667 0 1 0 213.333334 0 106.666667 106.666667 0 1 0 -213.333334 0z" fill="#795548"/><path d="m597.333333 390.08c0 50.496-17.088 57.92-85.333333 57.92s-85.333333-7.424-85.333333-57.92 38.208-91.413333 85.333333-91.413333 85.333333 40.917333 85.333333 91.413333z" fill="#8d6e63"/><path d="m583.850667 590.378667c-18.965334 17.408-44.053334 28.288-71.850667 28.288s-52.885333-10.88-71.872-28.288c-33.877333 35.498666-56.128 90.922666-56.128 134.954666a128 128 0 0 0 256 0c0-44.032-22.272-99.456-56.149333-134.954666zm-133.632-239.594667c-3.306667-11.242667-4.522667-20.437333-5.781334-30.464a286.72 286.72 0 0 1 3.562667-85.653333c3.584 18.24 8.853333 35.84 15.68 52.416 3.413333 8.298667 7.210667 16.32 11.370667 24 4.096 7.424 8.938667 15.509333 13.397333 20.8a21.930667 21.930667 0 1 1 -37.781333 20.458666zm85.333333-18.901333c4.458667-5.290667 9.301333-13.376 13.397333-20.8 4.16-7.68 7.957333-15.701333 11.370667-24 6.826667-16.576 12.096-34.176 15.68-52.416a286.72 286.72 0 0 1 3.562667 85.653333c-1.258667 10.026667-2.453333 19.2-5.781334 30.464l-.426666 1.408a21.930667 21.930667 0 1 1 -37.802667-20.309333z" fill="#4e342e"/></svg>