<svg height="200" viewBox="0 0 1024 1024" width="200" xmlns="http://www.w3.org/2000/svg"><path d="m512 43.370667c40.789333 0 86.101333 316.309333 109.034667 334.549333 23.616 18.752 351.616-7.914667 360.298666 22.741333 10.581333 37.44-280.149333 151.616-292.330666 186.005334-12.181333 34.389333 141.909333 336.106667 112.917333 351.381333-29.034667 15.232-253.376-209.088-289.92-211.306667-36.522667-2.218667-260.288 232.448-289.898667 211.285334-29.610667-21.205333 123.562667-324.757333 111.104-351.381334s-295.168-145.194667-291.157333-187.52c2.624-27.797333 336.618667-2.453333 359.104-21.205333 30.613333-25.514667 70.058667-334.549333 110.848-334.549333z" fill="#ff5722"/><path d="m401.770667 377.344 106.24 37.333333 112-37.333333 2.666666 117.333333 66.325334 91.989334-105.493334 39.018666-71.509333 99.690667-70.037333-97.365333-108.181334-40.896 63.552-96.448z" fill="#dd2c00"/><path d="m469.333333 533.333333a42.666667 42.666667 0 1 0 85.333334 0 42.666667 42.666667 0 1 0 -85.333334 0z" fill="#ffecb3"/><g fill="#fff"><path d="m597.333333 490.666667a21.333333 21.333333 0 1 0 42.666667 0 21.333333 21.333333 0 1 0 -42.666667 0z"/><path d="m682.666667 469.333333a21.333333 21.333333 0 1 0 42.666666 0 21.333333 21.333333 0 1 0 -42.666666 0z"/><path d="m768 448a21.333333 21.333333 0 1 0 42.666667 0 21.333333 21.333333 0 1 0 -42.666667 0z"/><path d="m864 426.666667a10.666667 10.666667 0 1 0 21.333333 0 10.666667 10.666667 0 1 0 -21.333333 0z"/><path d="m490.666667 341.333333a21.333333 21.333333 0 1 0 42.666666 0 21.333333 21.333333 0 1 0 -42.666666 0z"/><path d="m490.666667 256a21.333333 21.333333 0 1 0 42.666666 0 21.333333 21.333333 0 1 0 -42.666666 0z"/><path d="m501.333333 170.666667a10.666667 10.666667 0 1 0 21.333334 0 10.666667 10.666667 0 1 0 -21.333334 0z"/><path d="m490.666667 426.666667a21.333333 21.333333 0 1 0 42.666666 0 21.333333 21.333333 0 1 0 -42.666666 0z"/><path d="m384 490.666667a21.333333 21.333333 0 1 0 42.666667 0 21.333333 21.333333 0 1 0 -42.666667 0z"/><path d="m298.666667 469.333333a21.333333 21.333333 0 1 0 42.666666 0 21.333333 21.333333 0 1 0 -42.666666 0z"/><path d="m213.333333 448a21.333333 21.333333 0 1 0 42.666667 0 21.333333 21.333333 0 1 0 -42.666667 0z"/><path d="m138.666667 426.666667a10.666667 10.666667 0 1 0 21.333333 0 10.666667 10.666667 0 1 0 -21.333333 0z"/><path d="m384 682.666667a21.333333 21.333333 0 1 0 42.666667 0 21.333333 21.333333 0 1 0 -42.666667 0z"/><path d="m341.333333 746.666667a21.333333 21.333333 0 1 0 42.666667 0 21.333333 21.333333 0 1 0 -42.666667 0z"/><path d="m309.333333 810.666667a10.666667 10.666667 0 1 0 21.333334 0 10.666667 10.666667 0 1 0 -21.333334 0z"/><path d="m426.666667 618.666667a21.333333 21.333333 0 1 0 42.666666 0 21.333333 21.333333 0 1 0 -42.666666 0z"/><path d="m597.333333 682.666667a21.333333 21.333333 0 1 0 42.666667 0 21.333333 21.333333 0 1 0 -42.666667 0z"/><path d="m640 746.666667a21.333333 21.333333 0 1 0 42.666667 0 21.333333 21.333333 0 1 0 -42.666667 0z"/><path d="m693.333333 810.666667a10.666667 10.666667 0 1 0 21.333334 0 10.666667 10.666667 0 1 0 -21.333334 0z"/><path d="m554.666667 618.666667a21.333333 21.333333 0 1 0 42.666666 0 21.333333 21.333333 0 1 0 -42.666666 0z"/></g><path d="m597.333333 490.666667a21.333333 21.333333 0 1 0 42.666667 0 21.333333 21.333333 0 1 0 -42.666667 0z" fill="#fff8e1"/><path d="m682.666667 469.333333a21.333333 21.333333 0 1 0 42.666666 0 21.333333 21.333333 0 1 0 -42.666666 0z" fill="#fff8e1"/><path d="m768 448a21.333333 21.333333 0 1 0 42.666667 0 21.333333 21.333333 0 1 0 -42.666667 0z" fill="#fff8e1"/><path d="m864 426.666667a10.666667 10.666667 0 1 0 21.333333 0 10.666667 10.666667 0 1 0 -21.333333 0z" fill="#fff8e1"/><path d="m490.666667 341.333333a21.333333 21.333333 0 1 0 42.666666 0 21.333333 21.333333 0 1 0 -42.666666 0z" fill="#fff8e1"/><path d="m490.666667 256a21.333333 21.333333 0 1 0 42.666666 0 21.333333 21.333333 0 1 0 -42.666666 0z" fill="#fff8e1"/><path d="m501.333333 170.666667a10.666667 10.666667 0 1 0 21.333334 0 10.666667 10.666667 0 1 0 -21.333334 0z" fill="#fff8e1"/><path d="m490.666667 426.666667a21.333333 21.333333 0 1 0 42.666666 0 21.333333 21.333333 0 1 0 -42.666666 0z" fill="#fff8e1"/><path d="m384 490.666667a21.333333 21.333333 0 1 0 42.666667 0 21.333333 21.333333 0 1 0 -42.666667 0z" fill="#fff8e1"/><path d="m298.666667 469.333333a21.333333 21.333333 0 1 0 42.666666 0 21.333333 21.333333 0 1 0 -42.666666 0z" fill="#fff8e1"/><path d="m213.333333 448a21.333333 21.333333 0 1 0 42.666667 0 21.333333 21.333333 0 1 0 -42.666667 0z" fill="#fff8e1"/><path d="m138.666667 426.666667a10.666667 10.666667 0 1 0 21.333333 0 10.666667 10.666667 0 1 0 -21.333333 0z" fill="#fff8e1"/><path d="m384 682.666667a21.333333 21.333333 0 1 0 42.666667 0 21.333333 21.333333 0 1 0 -42.666667 0z" fill="#fff8e1"/><path d="m341.333333 746.666667a21.333333 21.333333 0 1 0 42.666667 0 21.333333 21.333333 0 1 0 -42.666667 0z" fill="#fff8e1"/><path d="m309.333333 810.666667a10.666667 10.666667 0 1 0 21.333334 0 10.666667 10.666667 0 1 0 -21.333334 0z" fill="#fff8e1"/><path d="m426.666667 618.666667a21.333333 21.333333 0 1 0 42.666666 0 21.333333 21.333333 0 1 0 -42.666666 0z" fill="#fff8e1"/><path d="m597.333333 682.666667a21.333333 21.333333 0 1 0 42.666667 0 21.333333 21.333333 0 1 0 -42.666667 0z" fill="#fff8e1"/><path d="m640 746.666667a21.333333 21.333333 0 1 0 42.666667 0 21.333333 21.333333 0 1 0 -42.666667 0z" fill="#fff8e1"/><path d="m693.333333 810.666667a10.666667 10.666667 0 1 0 21.333334 0 10.666667 10.666667 0 1 0 -21.333334 0z" fill="#fff8e1"/><path d="m554.666667 618.666667a21.333333 21.333333 0 1 0 42.666666 0 21.333333 21.333333 0 1 0 -42.666666 0z" fill="#fff8e1"/></svg>