<svg height="200" viewBox="0 0 1024 1024" width="200" xmlns="http://www.w3.org/2000/svg"><path d="m405.333333 757.333333a32 32 0 1 0 64 0 32 32 0 1 0 -64 0z" fill="#ff3d00"/><path d="m640 128s168.490667 20.608 192 64h-256l21.333333-42.666667z" fill="#ff3d00"/><path d="m547.328 226.666667s92.672 178.666666 28.672 178.666666c-42.666667 0-298.005333-24-384 256 0 0 77.034667 21.653333 170.666667 21.333334a449.941333 449.941333 0 0 0 72-5.973334c128-21.333333 234.666667-172.693333 234.666666-279.36s-122.005333-170.666667-122.005333-170.666666zm50.005333-77.333334 41.344-20.672a63.338667 63.338667 0 1 0 -63.338666 63.338667c.256 0 .448-.064.704-.064z" fill="#b0bec5"/><path d="m256 682.666667c213.333333-64 298.666667-192 298.666667-192-21.333333 21.333333-128 64-234.666667 42.666666 14.229333-64 85.333333-106.666667 85.333333-106.666666s-182.677333 18.666667-225.344 210.666666c-9.322666 45.333334-9.322666 109.333334-9.322666 109.333334 21.333333-42.666667 85.333333-64 85.333333-64z" fill="#455a64"/><path d="m554.645333 117.333333a21.333333 10.666667 0 1 0 42.666667 0 21.333333 10.666667 0 1 0 -42.666667 0z" fill="#37474f"/></svg>