<svg height="200" viewBox="0 0 1024 1024" width="200" xmlns="http://www.w3.org/2000/svg"><path d="m694.613333 362.965333c44.266667 0 63.722667-26.496 59.562667-34.645333-4.074667-8.085333-18.304 1.130667-50.282667 1.130667-45.973333-.021334-63.893333-42.368-63.893333-73.450667 0-21.333333 18.368-64 85.333333-64 67.733333 0 106.666667 88.704 106.666667 149.333333 21.333333-85.333333-42.666667-149.333333-42.666667-149.333333s-63.466667-63.274667-149.333333 0c-25.344 18.666667-37.333333 40.661333-42.368 56.618667-.106667 2.474667-.298667 4.885333-.298667 7.381333 0 56.96 38.058667 106.965333 97.28 106.965333z" fill="#311b92"/><path d="m640 192c85.866667-63.274667 149.333333 0 149.333333 0s64 64 42.666667 149.333333c0 76.522667-42.282667 118.634667-105.429333 126.528.192.085333.341333.234667.512.32 71.936-6.741333 154.709333-37.077333 153.813333-217.450666a49.962667 49.962667 0 0 0 -.917333-8.448c4.885333 13.589333 8.768 28.416 11.498666 44.458666-17.92-106.901333-88.085333-158.741333-163.328-158.741333-81.941333 0-127.445333 52.224-130.517333 120.597333 5.034667-15.957333 17.045333-37.930667 42.368-56.597333zm-256 128c-256 0-235.328 384-235.328 384s.661333 64 21.994667 192h85.333333c-21.333333-64-43.328-192-43.328-192s-84.672-384 171.328-384z" fill="#673ab7"/><path d="m879.978667 242.24c.448 2.709333.896 5.44.917333 8.448.896 180.416-81.898667 210.709333-153.856 217.450667-99.477333.021333-199.04-148.138667-343.04-148.138667-256 0-171.328 384-171.328 384s21.994667 128 43.328 192l170.666667.042667c-42.666667-85.333333-138.944-426.666667 0-426.666667 53.056 0 129.536 106.624 256 106.624 170.88 0 213.333333-136.618667 213.333333-234.133333-.021333-38.570667-5.909333-71.616-16.021333-99.626667z" fill="#ff80ab"/><g fill="#c51162"><path d="m549.504 489.002667c-5.866667 8.96-20.138667 9.834667-32.149333 2.069333-11.925333-7.701333-16.810667-21.226667-10.986667-30.122667 5.781333-8.938667 20.096-9.813333 32.021333-2.026666 11.968 7.658667 16.832 21.162667 11.114667 30.08zm-123.114667 405.802666c-18.176 5.653333-38.698667-9.237333-46.378666-33.429333-7.616-24.042667.938667-48.128 18.986666-53.696 17.984-5.76 38.613333 9.237333 46.144 33.365333 7.744 24.021333-.810667 48.021333-18.752 53.76zm139.072-457.386666c5.290667-9.173333 18.432-11.669333 29.418667-5.418667 11.008 6.165333 15.722667 18.794667 10.474667 28.032-5.290667 9.216-18.410667 11.690667-29.397334 5.461333-11.008-6.314667-15.722667-18.837333-10.496-28.074666z"/><path d="m579.701634 519.339673a19.242667 15.637333 16.034 1 0 36.988175 10.629946 19.242667 15.637333 16.034 1 0 -36.988175-10.629946z"/><path d="m640.533333 479.573333c2.325333-8.298667 12.672-12.650667 22.784-9.749333 10.218667 2.986667 16.533333 12.117333 14.08 20.458667-2.389333 8.32-12.586667 12.736-22.741333 9.770666-10.282667-2.965333-16.533333-12.053333-14.122667-20.48zm23.893334 79.658667c-9.429333-.746667-16.426667-7.402667-15.850667-15.061333.554667-7.616 8.554667-13.269333 17.941333-12.586667 9.365333.704 16.341333 7.466667 15.786667 15.125333-.576 7.573333-8.661333 13.162667-17.877333 12.522667zm61.333333-48c-9.429333-.746667-16.426667-7.402667-15.850667-15.061333.554667-7.616 8.554667-13.269333 17.941334-12.586667 9.365333.704 16.341333 7.466667 15.786666 15.125333-.576 7.573333-8.661333 13.162667-17.877333 12.522667zm5.589333 43.541333c-9.045333 2.389333-17.984-1.365333-19.989333-8.768-2.005333-7.445333 3.541333-15.338667 12.586667-17.92 8.938667-2.517333 17.877333 1.429333 19.989333 8.832 2.176 7.296-3.562667 15.296-12.586667 17.856zm40.512-72.362666c-1.770667-6.336 3.114667-13.226667 10.858667-15.402667 7.829333-2.218667 15.658667 1.173333 17.386667 7.552 1.834667 6.314667-3.136 13.312-10.858667 15.509333-7.850667 2.133333-15.552-1.194667-17.386667-7.658666zm19.648 48.106666c-7.701333 2.176-15.552-1.301333-17.322666-7.573333-1.685333-6.357333 3.072-13.269333 10.944-15.552 7.744-2.154667 15.530667 1.322667 17.344 7.637333 1.728 6.314667-3.157333 13.248-10.965334 15.488zm27.413334-70.058666c-2.602667-3.434667-1.152-8.746667 3.050666-11.925334s9.728-2.88 12.330667.533334c2.453333 3.477333 1.194667 8.810667-3.050667 11.882666-4.266667 3.2-9.685333 2.965333-12.330666-.490666zm18.112 31.317333c-4.138667 3.114667-9.664 2.858667-12.202667-.597333-2.581333-3.349333-1.28-8.725333 3.029333-11.861334 4.16-3.114667 9.749333-2.901333 12.16.490667 2.666667 3.541333 1.386667 8.832-2.986666 11.968zm27.904-38.101333c-3.392 3.968-8.832 4.864-12.16 2.069333-3.114667-2.901333-2.986667-8.362667.554666-12.266667 3.349333-4.032 8.896-4.885333 12.138667-2.026666 3.114667 2.794667 2.986667 8.213333-.533333 12.224zm-485.248 327.914666c-16.085333 3.370667-32.512-11.050667-37.184-32.490666-4.608-21.290667 4.693333-41.258667 20.650666-44.586667 15.914667-3.477333 32.448 11.029333 36.970667 32.426667 4.736 21.226667-4.565333 41.152-20.437333 44.650666zm-61.589334 112.277334c-17.237333 3.626667-34.858667-11.861333-39.850666-34.837334-4.949333-22.826667 5.034667-44.245333 22.144-47.808 17.066667-3.733333 34.773333 11.818667 39.637333 34.730667 5.034667 22.805333-4.928 44.181333-21.930667 47.914667zm-36.906666-108.074667c-16.298667 1.344-30.741333-14.954667-32.704-36.693333-1.92-21.610667 9.728-40.192 25.898666-41.472 16.128-1.493333 30.656 14.869333 32.512 36.544 2.026667 21.546667-9.6 40.085333-25.706666 41.621333zm-30.912-115.648c-15.168-.042667-27.242667-16.234667-27.370667-36.501333-.064-20.096 12.16-36.394667 27.221333-36.309334 15.061333-.106667 27.2 16.192 27.2 36.330667.192 20.117333-12.010667 36.330667-27.050666 36.48zm90.24 12.309333c-15.018667 2.133333-29.290667-12.181333-32.277334-32.234666-2.922667-19.904 6.848-37.781333 21.781334-39.808 14.869333-2.24 29.205333 12.16 32.064 32.085333 3.072 19.882667-6.72 37.696-21.568 39.957333zm-93.461334-125.290666c-13.802667-2.154667-22.506667-18.581333-19.754666-37.034667 2.773333-18.282667 16.192-31.402667 29.866666-29.205333 13.717333 2.048 22.464 18.581333 19.605334 36.906666-2.624 18.304-16.021333 31.338667-29.717334 29.333334zm12.970667-96.213334c-10.816-6.464-12.565333-23.168-4.053333-37.696 8.490667-14.4 24.128-20.864 34.858666-14.4 10.773333 6.336 12.522667 23.125333 3.989334 37.525334-8.384 14.464-24 20.821333-34.794667 14.570666zm72.192 8.533334c-8.426667-10.112-4.202667-26.730667 9.386667-37.44 13.525333-10.645333 31.317333-11.114667 39.637333-1.066667 8.405333 10.026667 4.16 26.709333-9.408 37.312-13.418667 10.752-31.146667 11.157333-39.616 1.194667zm-23.210667-81.237334c-4.949333-9.664 1.386667-22.997333 14.186667-30.037333 12.736-6.997333 27.050667-4.885333 31.957333 4.672 4.949333 9.578667-1.408 22.954667-14.186666 29.909333-12.672 7.082667-26.965333 4.949333-31.957334-4.544zm91.925334-27.370666c2.517333-10.538667 16-16.576 30.293333-13.632 14.229333 2.965333 23.744 13.866667 21.269333 24.341333-2.474667 10.496-15.978667 16.490667-30.229333 13.504-14.229333-2.837333-23.701333-13.76-21.333333-24.213333zm93.098666 27.584c4.437333-8.384 17.130667-10.538667 28.586667-4.928 11.392 5.610667 17.045333 16.896 12.714667 25.194666-4.394667 8.341333-17.130667 10.496-28.522667 4.885334-11.413333-5.546667-17.045333-16.853333-12.778667-25.152zm-73.024 36.8c2.24-11.370667 16.042667-17.92 31.082667-14.784 14.912 3.114667 25.216 14.826667 23.018667 26.090666-2.197333 11.328-16.042667 17.877333-30.997334 14.677334-14.933333-3.029333-25.173333-14.741333-23.104-25.984zm-99.861333 149.909333c-13.866667-1.578667-23.232-17.621333-21.248-36.181333 2.005333-18.389333 14.890667-32.042667 28.650667-30.421334 13.781333 1.472 23.189333 17.642667 21.12 36.074667-1.898667 18.410667-14.762667 31.978667-28.522667 30.528z"/></g></svg>