<svg class="icon" width="200" height="200" viewBox="0 0 1024 1024" version="1.1" xmlns="http://www.w3.org/2000/svg"><path d="M640 298.666667l256-192-192 234.666666z" fill="#455A64"/><path d="M917.333333 661.333333s17.109333-49.088-32.533333-78.762666c-98.88-95.466667-129.301333-189.312-129.301333-189.312S740.053333 334.549333 725.333333 320s-75.285333-58.133333-75.285333-58.133333S576 192 426.666667 256C259.114667 327.786667 106.666667 533.333333 106.666667 533.333333s0 341.333333 256 362.666667c82.56-116.202667 123.456-324.245333 168.405333-322.133333S640 661.333333 746.666667 682.666667c42.666667 21.333333 2.410667 43.797333 64 64 52.138667 17.088 88.234667-24.661333 88.234666-24.661334S918.165333 667.882667 917.333333 661.333333z" fill="#B0BEC5"/><path d="M656.490667 362.666667c-27.008-60.629333-10.218667-104.448-10.218667-104.448C699.157333 192 678.805333 128 678.805333 128s-16.789333 43.818667-77.418666 70.826667-77.44 70.805333-77.44 70.805333-14.976 18.837333 2.709333 53.013333C546.666667 361.344 656.490667 362.666667 656.490667 362.666667z" fill="#B0BEC5"/><path d="M576 320s-16.789333-7.68-5.333333-30.229333C672 209.770667 678.805333 128 678.805333 128s19.669333 77.653333-27.754666 152.149333c0.021333 0-24.384 55.850667-75.050667 39.850667z" fill="#78909C"/><path d="M366.058667 529.664a1232.554667 1232.554667 0 0 0-1.578667-18.752c2.368 26.410667 4.437333 53.909333 3.413333 82.154667 30.229333-39.786667 59.946667-96.96 80.106667-187.733334 15.381333-69.248 36.394667-110.165333 55.701333-134.634666-49.813333 59.413333-85.930667 176.234667-137.642666 258.965333zM238.485333 684.565333a1649.557333 1649.557333 0 0 0-2.005333-24.32c2.069333 23.04 3.946667 46.869333 3.733333 71.296 61.12-55.552 83.797333-104.874667 92.266667-220.736 2.154667-29.248 5.568-59.648 13.653333-88.853333A256.917333 256.917333 0 0 1 384 341.333333c-88.896 115.562667-76.437333 279.125333-145.514667 343.232zM152 735.658667a853.973333 853.973333 0 0 0 26.197333 51.157333c0.512-1.28 1.066667-2.474667 1.578667-3.818667 4.949333-12.48 9.066667-25.386667 12.352-38.677333 6.677333-26.624 17.92-143.829333 26.005333-173.034667A256.917333 256.917333 0 0 1 256 490.666667c-71.104 90.688-51.562667 149.354667-104 244.992z" fill="#C51162"/><path d="M607.381333 195.712A161.386667 161.386667 0 0 0 597.333333 192C362.666667 149.333333 128 426.666667 106.666667 533.333333c-12.245333 61.269333 17.621333 143.445333 45.312 202.346667C204.437333 640.021333 184.896 581.354667 256 490.666667a249.493333 249.493333 0 0 0-22.144 83.456c-2.474667 28.458667 0.042667 56.874667 2.624 86.122666 0.704 8.021333 1.386667 16.128 2.005333 24.32C307.562667 620.458667 295.104 456.896 384 341.333333a249.493333 249.493333 0 0 0-22.144 83.456c-2.474667 28.458667 0.042667 56.874667 2.624 86.122667 0.554667 6.186667 1.109333 12.437333 1.578667 18.752 65.152-104.213333 105.578667-262.506667 179.818666-291.776 12.010667-12.949333 29.568-27.498667 55.530667-39.061333 2.176-0.981333 3.882667-2.090667 5.973333-3.114667zM713.472 240.405333a900.330667 900.330667 0 0 0-37.461333-18.090666 199.829333 199.829333 0 0 1-24.96 57.834666l-0.042667 0.085334c11.477333 10.645333 25.045333 19.562667 41.130667 24.149333C746.666667 320 768 362.666667 768 405.333333c21.333333-42.666667 23.808-124.949333-54.528-164.928z" fill="#FF4081"/><path d="M725.333333 405.333333c0 11.797333-9.536 21.333333-21.333333 21.333334s-42.666667-42.666667-42.666667-42.666667h42.666667a21.333333 21.333333 0 0 1 21.333333 21.333333z" fill="#263238"/><path d="M898.901333 722.005333S918.165333 667.882667 917.333333 661.333333c0 0 2.602667-7.616 2.794667-18.624-0.832-0.448-1.642667-0.96-2.581333-1.258666-11.221333-3.498667-24.618667 7.317333-29.888 24.170666-5.162667 16.576 7.786667 57.92 8.277333 59.434667 1.877333-1.856 2.965333-3.050667 2.965333-3.050667z" fill="#455A64"/><path d="M873.493333 741.141333c-0.362667-1.344-0.448-2.730667-1.088-4.010666l-42.666666-85.333334a21.333333 21.333333 0 1 0-38.165334 19.093334l39.829334 79.68a80.597333 80.597333 0 0 0 42.090666-9.429334z" fill="#546E7A"/></svg>