<svg height="200" viewBox="0 0 1024 1024" width="200" xmlns="http://www.w3.org/2000/svg"><path d="m578.282667 533.333333c64.768 0-64 341.333333 317.717333 251.285334-253.717333 218.048-445.717333 68.714666-498.965333-13.034667-56.618667-86.912-74.752-238.250667 29.632-285.632 43.434666-19.712 87.616 47.381333 151.616 47.381333zm196.501333-82.090666c16.448 7.658667 17.301333-48.426667-7.786667-106.624 0 0-18.048-3.285333-39.381333 39.381333 0 0 21.333333 21.333333 47.168 67.242667z" fill="#ffc107"/><path d="m754.368 873.664c-.554667-3.072-.725333-6.208-1.408-9.258667-4.501333-19.882667-12.330667-39.701333-25.344-53.76 3.2 18.730667-.789333 36.245333-6.656 52.501334a190.08 190.08 0 0 1 -10.624 23.530666l-.938667 1.642667a349.546667 349.546667 0 0 0 44.970667-14.656zm-334.464-250.282667c46.826667 3.754667 94.293333.256 137.066667-14.037333-45.077333.128-87.829333-10.965333-127.274667-27.498667a456.106667 456.106667 0 0 1 -56.896-28.864c-2.432-1.472-4.885333-3.029333-7.338667-4.565333-8.661333 19.626667-13.205333 41.578667-13.909333 64.576 22.656 4.970667 45.482667 8.597333 68.352 10.389333zm222.378667 187.285334c-7.36 24.405333-22.634667 43.072-39.36 59.093333-8.448 7.914667-17.386667 15.168-26.688 21.781333a279.466667 279.466667 0 0 0 61.909333 6.314667c.704-2.496 1.536-4.992 2.176-7.552 6.549333-26.517333 9.088-54.976 1.962667-79.637333zm-115.776 35.093333c16-13.696 31.04-28.586667 43.925333-45.098667 12.842667-16.448 23.552-34.730667 29.205333-53.973333-24.576 31.829333-59.754667 49.28-94.976 62.442667a450.346667 450.346667 0 0 1 -54.442666 15.722666c-1.472.341333-3.050667.576-4.544.874667a307.584 307.584 0 0 0 57.066666 38.912c8.085333-6.058667 16.042667-12.330667 23.765334-18.88zm30.442666-163.093333c-35.733333 20.373333-74.816 29.589333-112.981333 30.890666a312.448 312.448 0 0 1 -77.696-7.104c7.850667 23.594667 18.282667 45.952 30.762667 65.130667.170667.277333.405333.533333.554666.832a361.514667 361.514667 0 0 0 55.808-17.258667c40.512-16.32 77.077333-41.152 103.552-72.490666z" fill="#4e342e"/><path d="m578.282667 533.333333c-7.914667 0-15.530667-1.045333-22.869334-2.794666 20.544 22.016 44.181333 58.346667 1.536 78.784 0 0 42.666667 30.677333 0 73.344 0 0 64 0 42.666667 64 0 0 64 0 42.666667 64 0 0 42.666667-21.333333 85.333333 0 0 0 77.333333-19.2 84.608 34.368a577.130667 577.130667 0 0 0 83.776-60.416c-381.717333 90.048-252.928-251.285334-317.717333-251.285334z" fill="#4e342e"/><path d="m587.690667 448.234667.234666-.234667s-143.893333-292.949333-206.741333-317.504c-39.722667-15.530667-74.176 131.349333-17.962667 222.016 47.701333 76.906667 193.749333 123.477333 193.749334 123.477333l.32-.298666c1.408 1.045333 2.709333 2.197333 4.416 2.858666 10.986667 4.266667 23.338667-1.152 27.626666-12.096a21.12 21.12 0 0 0 -1.642666-18.218666z" fill="#42a5f5"/><path d="m663.616 533.333333c-44.373333 44.394667-106.666667 0-128-21.333333-42.666667-42.666667-82.048-78.677333-37.696-123.008 44.373333-44.394667 100.266667-28.330667 144.618667 16.064 44.416 44.394667 65.450667 83.946667 21.077333 128.277333z" fill="#5d4037"/><path d="m727.616 384c21.312-42.645333 39.36-39.381333 39.381333-39.381333-17.173333-39.829333-46.464-80.597333-91.264-102.442667-41.664-20.288-91.370667.192-110.122666 43.946667-18.730667 43.754667.234667 94.912 42.24 114.517333 55.765333 26.026667 141.098666 26.026667 162.432 47.36a15.530667 15.530667 0 0 0 4.501333 3.242667c-25.834667-45.909334-47.168-67.242667-47.168-67.242667z" fill="#8d6e63"/><path d="m652.672 415.338667c-16.405333-4.885333-30.570667-8.042667-44.821333-14.677334a84.437333 84.437333 0 0 1 -38.549334-37.013333c-14.933333-2.218667-47.68.384-62.357333 18.368 11.754667 29.824 17.109333 75.456 48.661333 87.338667 61.994667 23.338667 106.709333 15.253333 131.050667.341333-5.312-21.696-20.778667-38.442667-33.984-54.357333zm72.234667-61.674667c-9.749333 15.893333-30.037333-10.709333-61.290667-33.664s-61.674667-33.578667-51.925333-49.493333c9.728-15.872 43.029333-10.154667 74.261333 12.821333s48.725333 54.421333 38.954667 70.336z" fill="#3e2723"/><path d="m570.154667 431.616.149333-.298667c-.021333.021334-351.210667-303.317333-418.688-303.317333-42.666667 0-21.333333 149.333333 64 213.333333 72.426667 54.314667 336 127.338667 336 127.338667l.192-.384c1.685333.448 3.306667 1.045333 5.141333 1.045333a21.333333 21.333333 0 0 0 21.333334-21.333333 21.056 21.056 0 0 0 -8.128-16.384z" fill="#90caf9"/></svg>