<?xml version="1.0" encoding="UTF-8"?>
<svg width="24px" height="24px" viewBox="0 0 24 24" version="1.1" xmlns="http://www.w3.org/2000/svg" xmlns:xlink="http://www.w3.org/1999/xlink">
    <!-- Generator: Sketch 59.1 (86144) - https://sketch.com -->
    <title>icon-search</title>
    <desc>Created with Sketch.</desc>
    <g id="ooto-Productivity-Dashboard" stroke="none" stroke-width="1" fill="none" fill-rule="evenodd" fill-opacity="0.61">
        <g id="ooto-Meetings" transform="translate(-167.000000, -41.000000)" fill="#989898" stroke="#FFFFFF" stroke-width="0.6">
            <g id="top-nav" transform="translate(106.000000, 21.000000)">
                <g id="Search" transform="translate(61.000000, 16.000000)">
                    <path d="M21.7729415,24.492403 L21.7731905,24.4926631 L17.4001536,19.9295455 L17.5537312,19.7257088 C18.732008,18.1618348 19.3842307,16.2432319 19.3842307,14.2256192 C19.3842307,9.30160045 15.549194,5.3 10.8426818,5.3 C6.13520594,5.3 2.3,9.30142307 2.3,14.2256192 C2.3,19.1488524 6.13536814,23.1501055 10.8426818,23.1501055 C12.6330199,23.1501055 14.3445746,22.5625149 15.7878028,21.487434 L16.0003001,21.3291419 L16.1836268,21.5204606 L20.4195003,25.9409953 C20.6030445,26.132117 20.8445898,26.2339979 21.0970205,26.2339979 C21.348424,26.2339979 21.5899447,26.1320324 21.7731695,25.9412437 C22.1548629,25.5428786 22.1548629,24.891884 21.7729415,24.492403 Z M4.22534757,14.2256192 C4.22534757,10.4295872 7.19115812,7.33637676 10.8426818,7.33637676 C14.493809,7.33637676 17.4577502,10.429169 17.4577502,14.2256192 C17.4577502,18.021869 14.493999,21.1137287 10.8426818,21.1137287 C7.19096797,21.1137287 4.22534757,18.0214509 4.22534757,14.2256192 Z" id="search-icon"></path>
                </g>
            </g>
        </g>
    </g>
</svg>