<svg height="200" viewBox="0 0 1024 1024" width="200" xmlns="http://www.w3.org/2000/svg"><path d="m601.91353169 393.41300549-164.22074161 121.64499378a81.92 81.92 0 0 1 -82.77652195 8.68892813l-224.02953022-102.29764715c-20.54931502-9.39852392-29.94783895-33.48133638-20.99824297-53.8423913a39.38304 39.38304 0 0 1 23.60492141-21.51957866l739.67396992-247.35930223c21.0996138-7.05251333 44.31353345 4.46031644 51.80049319 25.7337088 3.05560639 8.55859421 3.14249567 17.8557473.28963094 26.35641532l-247.35930224 739.70293302a39.77216 39.77216 0 0 1 -51.26467595 24.61862969 41.7792 41.7792 0 0 1 -24.06833091-22.01195126l-102.29764715-224.02953021a81.92 81.92 0 0 1 8.68892812-82.77652196l121.64499379-164.2207416a20.48 20.48 0 0 0 -28.67346282-28.67346282z"/></svg>