<svg xmlns="http://www.w3.org/2000/svg" viewBox="0 0 21 21"><path fill="#007AFF" fill-rule="evenodd" d="M6.052474 16.9465891c.085826 0 .1721086.0241957.2474347.0730435.7906956.5103913 1.6521522.8687609 2.5606304 1.0641522.1803261.0388043.3200218.1830652.3528913.3647609l.2296305 1.2636521c.0397174.2168479.2287174.3748044.4492174.3748044h1.2152608c.2209566 0 .4095-.1579565.4492174-.3752609l.2296305-1.2631956c.0328695-.1816957.1725652-.3259566.3528913-.3647609.9084782-.1953913 1.7699347-.5537609 2.5606304-1.0641522.1552174-.1013478.356087-.0972391.5076522.0082174l1.0591304.7331739c.177587.1228044.4305.0990652.5825217-.0525l.8596305-.8591739c.1561304-.1561304.1780435-.4012826.0520435-.5825217l-.733174-1.059587c-.105-.1520217-.1081956-.3519783-.0082173-.5071956.5108478-.7906957.8687608-1.6526087 1.0641521-2.560174.0388044-.1812391.1826087-.3200217.3647609-.3538043l1.2636522-.2296304c.2173043-.0392609.3748043-.2282609.3748043-.4487609V9.8924152c0-.2209565-.1575-.4099565-.3748043-.4496739l-1.2636522-.2287174c-.1821522-.0337826-.3259565-.1725652-.3647609-.3538043-.1953913-.9075653-.5533043-1.7694783-1.0641521-2.560174-.0999783-.1552173-.0967827-.3556304.0082173-.5076521l.733174-1.0591305c.126-.181239.1040869-.4263913-.0520435-.5825217l-.8596305-.859174c-.1524782-.1515651-.4053913-.1757608-.5825217-.0525l-1.0591304.733174c-.1515652.1054565-.3519783.1091087-.5076522.0082174-.7911522-.5108478-1.6521522-.8687609-2.5606304-1.0641522-.1803261-.0388043-.3200218-.1830652-.3528913-.3647609l-.2296305-1.2636521c-.0397174-.2168478-.2282608-.3748044-.4492174-.3748044H9.8922783c-.2205 0-.4095.1579566-.4492174.3752609l-.2296305 1.2631956c-.0328695.1816957-.1725652.3259566-.3528913.364761-.9080217.1953912-1.7694782.5533043-2.5606304 1.0641521-.1552174.1008913-.3556304.0972391-.5071957-.0082174l-1.059587-.733174c-.1771304-.1228043-.4305-.0990651-.5825217.0525l-.8591739.859174c-.1561304.1561304-.1780434.4012826-.0525.5825217l.733174 1.0591305c.1054565.1520217.1086521.3524348.0082173.5076522-.5103913.7906956-.8683043 1.6526087-1.0641521 2.5601739-.0388044.1812391-.1826087.3200217-.3643044.3538043l-1.2641087.229174c-.2173043.0392608-.3748043.2282608-.3748043.4492173v1.2152609c0 .2205.1575.4095.3748043.4492174l1.2641087.2291739c.1816957.0337826.3255.1725652.3643044.3538043.1958478.9075653.5537608 1.7694783 1.0641521 2.560174.1004348.1552173.0972392.3551739-.0082174.5071956l-.7331739 1.059587c-.1255434.1812391-.1036304.4263913.0525.5825217l.859174.8591739c.1520217.1515652.4049347.1748478.5829782.0525L5.792713 17.02785c.0780653-.0538696.168913-.0812609.259761-.0812609m5.0550651 4.0534566H9.8922783c-.6619566 0-1.2285-.4729566-1.3476522-1.1244131l-.1757609-.9691956c-.8085-.2045218-1.5804782-.5254566-2.3026956-.9577827l-.8130653.5633479c-.5318478.3670435-1.2919565.2981087-1.7480217-.1579565l-.8591739-.859174c-.4683913-.4679347-.534587-1.2033913-.1579565-1.7480217l.5628913-.8126087c-.4318696-.7226739-.7528044-1.4951087-.9568696-2.3031522l-.9691956-.1757608c-.651913-.1186957-1.1248696-.6852392-1.1248696-1.3476522V9.8924152c0-.662413.4729565-1.229413 1.1248696-1.3471956l.9691956-.1762174c.2040652-.8085.525-1.5804783.9568696-2.3031522l-.5628913-.8126087c-.3766305-.545087-.3104348-1.280087.1579565-1.7480217l.859174-.859174c.4560651-.4560652 1.2166303-.5254565 1.7480217-.1579565l.8130652.5633479c.7222174-.4323261 1.4946521-.753261 2.3026956-.9577826l.1757609-.9687392C8.6637783.4730022 9.2303217.0000457 9.8922783.0000457h1.2152608c.6619566 0 1.2289566.4729565 1.3476522 1.124413l.1762174.9691957c.8080435.2045217 1.5800217.5254565 2.3026956.9577826l.8126087-.5633479c.5318479-.3675 1.2924131-.2981087 1.7480218.1579566l.8596304.8591739c.4683913.4679347.534587 1.2029347.1575 1.7480217l-.5628913.8126087c.4318696.722674.7528044 1.4946522.9573261 2.3031522l.9691957.1757608c.6514565.1182392 1.124413.6852392 1.124413 1.3476522v1.2152609c0 .662413-.4729565 1.2289565-1.124413 1.3471956l-.9691957.1762174c-.2045217.8080435-.5254565 1.5804783-.9573261 2.3031522l.5628913.8126087c.377087.5446304.3108913 1.280087-.1575 1.7480217l-.8596304.859174c-.2583913.2583913-.6026087.4012826-.9687391.4012826-.2793914 0-.5487392-.0844566-.7788261-.2433261l-.8130653-.5633479c-.7222173.4323261-1.4946521.7532609-2.3026956.9577827l-.1762174.9687391c-.1186956.651913-.6856956 1.1248696-1.3476522 1.1248696zM10.5 7.3043478c1.7621739 0 3.1956522 1.4339348 3.1956522 3.1956522S12.2621739 13.6956522 10.5 13.6956522c-1.762174 0-3.1956522-1.4339348-3.1956522-3.1956522S8.7378261 7.3043478 10.5 7.3043478zm0 7.3043479c2.2652609 0 4.1086957-1.8429783 4.1086957-4.1086957S12.7652609 6.3913044 10.5 6.3913044c-2.2652609 0-4.1086956 1.8429782-4.1086956 4.1086956 0 2.2657174 1.8434347 4.1086957 4.1086956 4.1086957z"/></svg>