<svg xmlns="http://www.w3.org/2000/svg" viewBox="0 0 21 21"><g fill="#007AFF" fill-rule="evenodd"><path d="M5.6924023 8.191244c.0216321.0136683.045913.0282185.071077.0440914.2048428.1269835.3527358.2186938.4092441.4122554.2207358.76631 1.715117 3.6141787 3.736174 3.6141787 2.0192909 0 3.5149966-2.8483097 3.7357324-3.612856.0551839-.1935616.2039598-.2861537.4092441-.414019.0251639-.015432.0494448-.0299822.0706355-.0436506.5412441-.9845627.4560401-1.4241548.3924682-1.5696567-.0772575-.1768068-.2397191-.2200165-.2578194-.2244256-.2070502-.0493825-.3620067-.242944-.3505284-.455465.0004414-.0110229.0569498-1.138442-.2172041-2.1723873-.0264882-.0961194-.7200401-2.447959-3.7825284-2.447959-3.0863277 0-3.7767893 2.4254724-3.7834113 2.4501636-.2750368 1.0370316-.217204 2.1587189-.2167626 2.1697418.0128027.2217801-.1421538.4179872-.3606823.4581105-.008388.0022045-.1708495.0454142-.248107.222221-.0631304.145502-.148776.585094.3924682 1.5696567m1.5289632 3.7027551c-.9700046-.942784-1.6226598-2.1862342-1.8543277-2.8667806-.0220736-.0141093-.0463545-.0286594-.0697525-.0432096-.1589298-.098324-.264-.1635794-.3328696-.2865947-.5849498-1.0330634-.7394649-1.8611014-.4591304-2.4594228.1337659-.2865946.3368428-.4598741.5151973-.5630482-.0004415-.4470876.0322274-1.3015805.2520803-2.1313822C5.2813923 3.5109332 6.15374.4395207 9.9088973.4395207s4.6270636 3.0714125 4.635893 3.1022766c.2202943.8311244.2529632 1.6860582.2525217 2.1331458.1779131.103174.38099.2764536.5147559.5626073.2803344.5987623.1253779 1.4268003-.4595719 2.4611865-.0684281.1216925-.1734983.186507-.3324281.284831-.023398.014991-.0472375.0295412-.0697525.0436505-.2355791.6903132-.9024249 1.9561981-1.8923754 2.9026198.1117436.1173461.3353756.3110863.7395607.5201578.216321.1124333.3006421.3783049.1885083.5943532-.0785819.1516747-.233097.238094-.3924682.238094-.0684281 0-.1377391-.015873-.2030769-.0493825-.5346675-.2772657-.8451333-.550443-1.0179001-.7438435-.5798012.3953525-1.2392996.6543819-1.9636665.6543819-.7383075 0-1.4090315-.2686157-1.9966163-.6762287-.3275061.2802299-1.2245863.9623488-2.6523884 1.4122037-1.9919197.6278627-4.0505016 1.744259-4.3546755 5.2191086 1.3222073.2164892 5.8300735.8827114 10.411224.7561689.2476656-.0061728.4472107.1851842.4538328.4285692.0066221.243385-.1854181.4462058-.4286689.4528195-.4026221.0114638-.8039197.0167548-1.2025685.0167548-5.078689 0-9.730475-.843911-9.7803613-.8531702-.217204-.0396823-.371719-.2341258-.3615652-.4545832.2101405-4.3968024 2.9525619-5.7623156 4.9974582-6.4064922 1.1371345-.3584269 1.8874787-.8751929 2.2267973-1.1447505zm12.0540576 5.3153196h-5.2976589c-.2441338 0-.4414716-.1975298-.4414716-.4409148 0-.2433849.1973378-.4409148.4414716-.4409148h5.2976589c.2441338 0 .4414715.1975299.4414715.4409148 0 .243385-.1973377.4409148-.4414715.4409148zm-3.9732442-1.3227444c-.2441338 0-.4414715-.1975298-.4414715-.4409148v-1.7636592c0-.243385.1973377-.4409148.4414715-.4409148s.4414716.1975298.4414716.4409148v1.7636592c0 .243385-.1973378.4409148-.4414716.4409148zm2.6488295 0c-.2441338 0-.4414716-.1975298-.4414716-.4409148v-1.7636592c0-.243385.1973378-.4409148.4414716-.4409148.2441337 0 .4414715.1975298.4414715.4409148v1.7636592c0 .243385-.1973378.4409148-.4414715.4409148z"/><path d="M13.9777642 15.0047446v4.8500629h5.2981003l-.0004414-4.8500629h-5.2976589zm5.2976589 5.7318925h-5.2976589c-.4869431 0-.8829431-.3955006-.8829431-.8818296v-4.8500629c0-.486329.396-.8818296.8829431-.8818296h5.2976589c.4869431 0 .8829431.3955006.8829431.8818296v4.8500629c0 .486329-.396.8818296-.8829431.8818296z"/></g></svg>