<svg xmlns="http://www.w3.org/2000/svg" viewBox="0 0 18 22"><path fill="#007AFF" fill-rule="evenodd" d="M1.402834.949853c-.2576538 0-.4676113.213242-.4676113.4749264v18.9970589c0 .2616844.2099575.4749264.4676113.4749264h14.9635628c.2576538 0 .4676113-.213242.4676113-.4749264V6.3706637L11.4966923.9498529H1.402834zm14.9635628 20.8967647H1.402834C.629405 21.8466177 0 21.2073666 0 20.4218383V1.4247794C0 .639251.6294049 0 1.402834 0h10.2874494c.123917 0 .2431579.0498673.3306012.1391535l5.611336 5.6991176c.087911.0888113.1370102.2099175.1370102.335773v14.2477942c0 .7855283-.6294049 1.4247794-1.402834 1.4247794zm.9352226-15.1976471v-.949853h-5.1437247V.949853h-.9352226v5.2241912c0 .2621594.2094898.4749265.4676113.4749265h5.611336zM8.8846154 8.07375c.2581214 0 .4676113-.212767.4676113-.4749265 0-.2621594-.2094899-.4749264-.4676113-.4749264h-5.611336c-.2581215 0-.4676114.212767-.4676114.4749264 0 .2621595.2094899.4749265.4676114.4749265h5.611336zm5.611336 2.8495588c.2581215 0 .4676114-.212767.4676114-.4749264 0-.2621594-.2094899-.4749265-.4676114-.4749265H3.2732794c-.2581215 0-.4676114.2127671-.4676114.4749265s.2094899.4749264.4676114.4749264h11.222672zm0 2.8495589c.2581215 0 .4676114-.2127671.4676114-.4749265s-.2094899-.4749265-.4676114-.4749265H3.2732794c-.2581215 0-.4676114.2127671-.4676114.4749265s.2094899.4749265.4676114.4749265h11.222672zm0 2.8495588c.2581215 0 .4676114-.2127671.4676114-.4749265s-.2094899-.4749265-.4676114-.4749265H3.2732794c-.2581215 0-.4676114.2127671-.4676114.4749265s.2094899.4749265.4676114.4749265h11.222672z"/></svg>