<svg xmlns="http://www.w3.org/2000/svg" viewBox="0 0 24 22"><g fill="#007AFF" fill-rule="evenodd"><path d="M18.2036195 19.4762704c-.23736 0-.4502182-.1637468-.499732-.4018326-.0561497-.2717392.1214874-.5369487.3976417-.5922007 2.3103035-.4656234 3.4771956-1.6741348 4.2479774-2.5571618-.541589-.8604239-1.762589-2.2567919-3.4823002-2.8399514-1.9831041-.6720649-2.4088206-.9282331-2.4088206-2.1231826 0-.2230171.1490518-.4189104.3659937-.4816968.3236263-.0939283.7273934-.0964398 1.194967-.0989512.6962558-.0040184 1.562492-.0090413 1.8457926-.3802341.2399122-.3154385.1393533-.540967-.3613996-1.2959099-.1225084-.184843-.2516526-.3807363-.3756923-.5906938-.9652638-1.6374676-1.037748-2.362273-1.1219725-3.2016007l-.0163344-.1647514c-.210306-2.009665-1.30012-3.0996357-3.2388148-3.2397748-1.694699.1220567-2.7446977.9764531-3.1209005 2.5390794-.0648273.2702323-.3404712.4364906-.6145836.3726996-.2741125-.0637909-.4440928-.3345255-.378755-.6042556.4798244-1.9935917 1.9289962-3.1704587 4.0800389-3.312607.0224598-.0010046.0454301-.0010046.0684005 0 2.4593553.1632445 3.9580409 1.6334493 4.2199025 4.1418888l.0173554.169272c.0780991.7820666.1347592 1.3471436.9887446 2.7957498.1143411.1943865.2342972.3747089.3476174.54599.4772722.7197825 1.0183508 1.5355026.3226054 2.4471601-.5870192.7705139-1.7340038.7770437-2.6558792.7825689-.1618131.0010046-.3256681.0015069-.473699.0075344.1352697.2104597.5257651.3621515 1.6477375.7423856 2.230673.7554451 3.704857 2.6279847 4.2244966 3.6154882.094944.1813269.0694214.4018325-.0648273.556538l-.0775886.0899101c-.8080448.9352652-2.1607413 2.5019098-4.9748604 3.0679913-.0347107.0070321-.0694214.0105482-.1031112.0105482"/><path d="M9.2629593 21.799867c-5.116766 0-8.7093236-.7484131-8.8599068-.7805597-.2439958-.0512337-.4139762-.2692278-.4027462-.514848.1970343-4.0670475 2.7707307-5.3293039 4.6900284-5.9255229 1.431306-.4445273 2.2036191-1.1743556 2.211276-1.18189.2011178-.1938842.5237232-.1908704.7212679.0070321.1965238.1974002.195503.5138433-.004594.7082298-.037263.0366672-.9392308.9021141-2.620658 1.4244964-1.7927058.5570403-3.643603 1.5420323-3.9452798 4.5823977 1.1035962.1963957 4.2122458.6760832 8.2106125.6760832 3.9983666 0 7.1070163-.4796875 8.2106124-.6760832-.3021873-3.0403654-2.152574-4.0253574-3.9452796-4.5818955-1.6819378-.5228845-2.5833951-1.3883314-2.6211685-1.4249986-.200097-.1948887-.2016284-.513341-.0035732-.7107413.1975448-.1963956.5201501-.1979025.7207575-.0045206.0209286.0200916.7917103.7408788 2.211276 1.1823922 1.9187872.5957168 4.4929941 1.8574709 4.6900284 5.9250207.0112299.2456202-.1587504.4636143-.4027462.514848-.1505832.0321466-3.7436514.7805597-8.8599068.7805597"/><path d="M5.4433017 10.1897698c.0132717.0080367.0275644.0165756.041857.0251146.1934612.1185406.3613997.2210079.4241852.4359883.1985657.6801015 1.5441158 3.2161671 3.3536664 3.2161671s3.1545903-2.5360656 3.3536664-3.2166694c.0627855-.2144781.2302136-.3169454.4241852-.435486.0142927-.008539.0280748-.0170779.0413466-.0251146.483908-.8759949.3859013-1.2336259.3425129-1.3245405-.0490033-.1034718-.1495622-.136623-.1505831-.136623-.2521631-.0457085-.4308211-.2687255-.4170389-.5208754.0005104-.0105481.0515556-1.0216592-.1975448-1.9468787-.0239912-.0833802-.6482734-2.1538223-3.3965443-2.1538223-2.7753248 0-3.3919502 2.134233-3.3975652 2.1558315-.2485899.9232102-.1975447 1.9343214-.1970343 1.9448695.0137822.2521499-.1648758.475167-.4170388.5208754-.0045941.0020091-.106174.0331512-.1551773.1466689-.0398152.0924214-.1276129.4540707.347107 1.3144946m3.8197086 4.6818513c-2.4542508 0-3.9391542-2.8715957-4.2796254-3.7807418-.0122508-.0075344-.0250121-.0145664-.0367525-.0226031-.1536459-.0939283-.2649243-.1612353-.3420025-.2948446-.5579235-.9719325-.7023813-1.757515-.4287793-2.3331402.121998-.2566705.300656-.4214218.4670631-.5264006.0025523-.4254402.0393048-1.1783739.2363391-1.9102114.2751334-1.0050836 1.5446263-2.9012309 4.3837575-2.9012309 2.8391313 0 4.1086242 1.8961473 4.3827366 2.8992218.1980552.7333443.2348077 1.486278.23736 1.9122205.1658967.1049788.3445548.2697301.4665527.5264006.273602.5756251.1296547 1.3612077-.4287793 2.3326379-.0765677.1341116-.1878461.2014186-.3420025.2953469-.0117404.0080367-.0239912.0150687-.0362421.0226031-.341492.9096484-1.825885 3.7807418-4.2796254 3.7807418"/></g></svg>