<svg xmlns="http://www.w3.org/2000/svg" viewBox="0 0 23 18"><path fill="#007AFF" fill-rule="evenodd" d="M1.9685607 4.6660982l9.5147536 3.6065742 9.5142317-3.6065742-9.5142317-3.6065743-9.5147536 3.6065743zm16.5296348 6.5185481l4.1343807 1.5695258c.2009534.076703.3335305.2659037.3335305.4770925 0 .2111889-.1325771.4003896-.3335305.4770926l-10.9610964 4.1547449c-.060547.0230109-.1247477.0342607-.1884265.0342607-.0636787 0-.1278794-.0112498-.1884264-.0342607L.3335305 13.7083572C.1325771 13.6316542 0 13.4424535 0 13.2312646c0-.2111888.132577-.4003895.3335305-.4770925l4.1343806-1.5695258L.3335305 9.6175314C.1325771 9.5408284 0 9.3516277 0 9.140439c0-.211189.132577-.4003896.3335305-.4770926l4.643613-1.75992-4.643874-1.7602356C.1323161 5.0664877.000261 4.877287.000261 4.6660982c0-.211189.132055-.4003896.3330085-.4770926L11.294366.0342606c.121616-.0455104.2557589-.0455104.3773749 0l10.9610964 4.154745c.2009534.076703.3335305.2659037.3335305.4770926 0 .2111888-.1325771.4003895-.3335305.4770925l-4.643874 1.7602356 4.643613 1.75992c.2009534.076703.3335305.2659037.3335305.4770926 0 .2111888-.1325771.4003895-.3335305.4770925l-4.1343807 1.5671149zm-1.4462735.5482022l-5.3804422 2.0394278c-.060547.0230109-.1247477.0342607-.1884265.0342607-.0636787 0-.1278794-.0112498-.1884264-.0342607l-5.3804422-2.0394278-3.946407 1.4979048 9.5152756 3.6070856 9.5152756-3.6070856-3.9464069-1.4979048zM6.3663282 7.4299893c-.048849.04651-.1078554.0843457-.1753966.109914L1.9682997 9.1404389l9.5147536 3.6065742 9.5147537-3.6065742-4.2226319-1.6005356c-.0675412-.0255683-.1265477-.063404-.1753966-.109914l-4.9280377 1.8679463c-.060547.023011-.1247477.0342607-.1884265.0342607-.0642007 0-.1284014-.0112498-.1889484-.0342607L6.3663282 7.4299893z"/></svg>